<?xml version="1.0" encoding="utf-8"?>
<!-- Generator: Adobe Illustrator 19.2.1, SVG Export Plug-In . SVG Version: 6.00 Build 0)  -->
<svg version="1.1" id="Layer_1" xmlns="http://www.w3.org/2000/svg" xmlns:xlink="http://www.w3.org/1999/xlink" x="0px" y="0px"
	 viewBox="0 0 2403 1080" style="enable-background:new 0 0 2403 1080;" xml:space="preserve">
<style type="text/css">
	.st0{display:none;opacity:0.7;}
	.st1{fill:#98D5E9;}
	.st2{fill:#D1D3D3;}
	.st3{fill:#005CB9;}
	.st4{fill:#1D4F90;}
	.st5{fill:#0075C9;}
	.st6{fill:#003764;}
	.st7{fill:#B07C57;}
	.st8{fill:#65513C;}
	.st9{fill:#55565A;}
	.st10{fill:#646569;}
	.st11{fill:#77777A;}
	.st12{fill:#4B4F54;}
	.st13{fill:#008065;}
	.st14{fill:#009877;}
	.st15{fill:#00A98F;}
	.st16{fill:#006852;}
	.st17{fill:#A4A9AD;}
	.st18{fill:#4A7628;}
	.st19{fill:#3FAE2A;}
	.st20{fill:#4E9D2D;}
	.st21{fill:#3E3935;}
	.st22{fill:#342E1F;}
	.st23{fill:#D9A460;}
	.st24{fill:#83603F;}
	.st25{fill:#FFFFFF;}
	.st26{fill:#CF0A2C;}
	.st27{opacity:0.35;fill:#1E428A;enable-background:new    ;}
	.st28{opacity:0.25;fill:#1E428A;enable-background:new    ;}
	.st29{opacity:0.2;fill:#1E428A;enable-background:new    ;}
	.st30{opacity:0.15;fill:#1E428A;enable-background:new    ;}
	.st31{opacity:0.45;fill:#1E428A;enable-background:new    ;}
	.st32{opacity:0.6;fill:#1E428A;enable-background:new    ;}
	.st33{opacity:0.75;fill:#1E428A;enable-background:new    ;}
	.st34{fill:#1E428A;}
	.st35{fill:#111820;}
	.st36{fill:#FEDD3D;}
	.st37{fill:#6CC04A;}
	.st38{opacity:0.6;fill:#FFFFFF;enable-background:new    ;}
	.st39{display:none;fill:url(#SVGID_1_);}
	.st40{fill:#F2F2F2;}
</style>
<g id="Layer_2" class="st0">
</g>
<g id="Mid_ground">
	<rect class="st1" width="2403" height="468"/>
	<polygon class="st2" points="666,198 666,189 603,189 603,180 315,180 315,189 207,189 207,198 153,198 153,207 171,207 171,216 
		360,216 360,224.4 639,224.4 639,216 675,216 675,207 702,207 702,198 	"/>
	<rect y="468" class="st3" width="2403" height="612"/>
	<polygon class="st4" points="0,468 0,648 108,648 108,711 117,711 117,720 279,720 279,729 504,729 504,738 711,738 711,747 
		864,747 864,756 1026,756 1026,765 1170,765 1170,774 1260,774 1260,783 1332,783 1332,792 1377,792 1377,801 1404,801 1404,810 
		1431,810 1431,819 1449,819 1449,828 1467,828 1467,837 1467,837 1467,846 1458,846 1458,855 1440,855 1440,864 1422,864 1422,873 
		1395,873 1395,882 1350,882 1350,891 1305,891 1305,900 1242,900 1242,909 1206,909 1206,918 1134,918 1134,927 1044,927 1044,936 
		963,936 963,945 891,945 891,954 702,954 702,963 468,963 468,972 65.1,972 36,1026 945,1026 945,1035 945,1044 945,1053 945,1062 
		945,1071 1116,1071 1125,1071 1701,1071 1917,1071 1917,1062 1953,1062 1953,1053 1989,1053 1989,1044 2025,1044 2025,1035 
		2052,1035 2052,1026 2079,1026 2079,1017 2097,1017 2097,1008 2106,1008 2124,1008 2124,999 2133,999 2160,999 2160,990 2196,990 
		2196,981 2223,981 2223,972 2268,972 2268,963 2295,963 2295,954 2322,954 2322,945 2349,945 2349,936 2358,936 2385,936 2385,927 
		2403,927 2403,891 2403,882 2403,873 2403,855 2394,855 2394,846 2376,846 2376,837 2349,837 2349,828 2331,828 2331,819 2286,819 
		2286,810 2187,810 2187,801 2097,801 2097,792 2052,792 2052,783 2025,783 2025,774 2007,774 2007,765 1998,765 1998,756 2007,756 
		2007,747 2016,747 2016,738 2034,738 2034,729 2070,729 2070,720 2115,720 2115,711 2160,711 2160,702 2232,702 2232,693 2295,693 
		2295,684 2376,684 2376,675 2403,675 2403,666 2403,657 2403,648 2403,468 	"/>
	<polygon class="st5" points="927,846 927,837 882,837 882,828 837,828 837,819 756,819 756,810 405,810 405,819 378,819 378,828 
		342,828 342,837 306,837 306,846 252,846 252,855 198,855 198,846 144,846 144,837 81,837 81,828 18,828 18,837 72,837 72,846 
		126,846 126,855 153,855 153,864 144,864 144,873 117,873 117,882 0,882 0,891 -9,891 -9,900 108,900 108,891 162,891 162,882 
		216,882 216,873 279,873 279,882 360,882 360,891 810,891 810,882 891,882 891,873 927,873 927,864 945,864 945,855 963,855 
		963,846 	"/>
	<polygon class="st6" points="2286,468 1836,468 756,468 675,468 0,468 0,639 216,639 216,648 207,648 207,666 207,666 207,675 
		369,675 369,684 567,684 567,693 792,693 792,702 936,702 936,711 1071,711 1071,720 1206,720 1206,729 1278,729 1278,738 
		1332,738 1332,747 1386,747 1386,756 1431,756 1431,765 1467,765 1467,774 1503,774 1503,783 1521,783 1521,792 1539,792 1539,801 
		1557,801 1557,810 1575,810 1575,819 1584,819 1584,828 1593,828 1593,837 1602,837 1602,855 1593,855 1593,864 1584,864 1584,873 
		1557,873 1557,882 1548,882 1521,882 1521,891 1512,891 1494,891 1494,900 1458,900 1458,909 1431,909 1431,918 1404,918 1404,927 
		1368,927 1368,936 1341,936 1341,945 1278,945 1278,954 1224,954 1224,963 1134,963 1134,972 1017,972 1017,981 945,981 945,990 
		819,990 819,999 0,999 0,1044 1800,1044 1818,1044 1872,1044 1872,1035 1899,1035 1899,1026 1926,1026 1926,1017 1944,1017 
		1944,1008 1953,1008 1953,999 1980,999 1980,990 2007,990 2007,981 2043,981 2043,972 2070,972 2070,963 2106,963 2106,954 
		2160,954 2160,945 2187,945 2187,936 2214,936 2214,927 2259,927 2259,918 2286,918 2286,909 2322,909 2322,900 2340,900 2340,882 
		2313,882 2313,873 2286,873 2286,864 2268,864 2268,855 2223,855 2223,846 2169,846 2169,837 2133,837 2133,828 2097,828 2097,819 
		2052,819 2052,810 2025,810 2025,801 1998,801 1998,792 1989,792 1989,783 1971,783 1971,774 1962,774 1962,765 1953,765 1953,756 
		1962,756 1962,747 1971,747 1971,738 1980,738 1980,729 1989,729 1989,720 2007,720 2007,711 2025,711 2025,702 2052,702 2052,693 
		2079,693 2079,684 2142,684 2142,675 2205,675 2205,666 2286,666 2286,657 2349,657 2349,648 2403,648 2403,468 	"/>
	<polygon class="st7" points="810,837 810,828 720,828 720,819.8 441,819.8 441,828 387,828 387,837 369,837 369,846 378,846 
		378,864 396,864 396,873 450,873 450,882 693,882 693,873 792,873 792,864 846,864 846,837 	"/>
	<polygon class="st7" points="126,855 126,846 72,846 72,837 36,837 0,855 0,864 0,873 0,882 117,882 117,873 144,873 144,864 
		153,864 153,855 	"/>
	<polygon class="st8" points="54,854.7 54,846 36,846 36,854.7 0,854.7 0,864 0,873 72,873 72,864 108,864 108,854.7 	"/>
	<polygon class="st8" points="774,837 477,837 477,828 459,828 459,837 405,837 405,855 459,855 459,864 675,864 675,855 819,855 
		819,846 774,846 	"/>
	<g>
		<rect x="837" y="468" class="st9" width="63" height="54"/>
		<rect x="900" y="468" class="st10" width="63" height="54"/>
		<rect x="927" y="378" class="st11" width="36" height="144"/>
		<rect x="963" y="450" class="st10" width="45" height="72"/>
		<rect x="999" y="405" class="st11" width="9" height="117"/>
		<rect x="630" y="495" class="st10" width="225" height="27"/>
		<rect x="378" y="450" class="st12" width="81" height="36"/>
		<rect x="630" y="477" class="st13" width="225" height="18"/>
		<rect x="630" y="495" class="st10" width="63" height="27"/>
		<rect x="630" y="450" class="st10" width="63" height="27"/>
		<rect x="189" y="432" class="st10" width="117" height="90"/>
		<polygon class="st14" points="621,369 621,360 612,360 612,351 603,351 603,387 612,387 621,387 630,387 630,369 		"/>
		<rect x="594" y="360" class="st13" width="9" height="27"/>
		<rect x="585" y="369" class="st13" width="9" height="18"/>
		<polygon class="st15" points="774,306 774,288 765,288 765,270 756,270 756,243 747,243 747,315 756,315 765,315 774,315 783,315 
			783,306 		"/>
		<polygon class="st14" points="738,270 738,288 729,288 729,306 720,306 720,315 729,315 738,315 747,315 747,270 		"/>
		<rect x="585" y="387" class="st9" width="18" height="36"/>
		<rect x="603" y="387" class="st10" width="27" height="36"/>
		<rect x="585.8" y="387" class="st12" width="8.3" height="36"/>
		<polygon class="st14" points="549,216 549,189 540,189 540,144 522,144 522,243 540,243 542,243 549,243 558,243 558,216 		"/>
		<rect x="513" y="189" class="st13" width="9" height="54"/>
		<rect x="504" y="216" class="st13" width="9" height="27"/>
		<rect x="495" y="252" class="st13" width="9" height="36"/>
		<rect x="558" y="252" class="st14" width="9" height="36"/>
		<rect x="495" y="288" class="st9" width="9" height="126"/>
		<polygon class="st11" points="558,288 558,243 504,243 504,414 558,414 567,414 567,288 		"/>
		<rect x="504" y="243" class="st10" width="18" height="171"/>
		<rect x="531" y="261" class="st2" width="18" height="18"/>
		<polygon class="st14" points="468,324 468,315 459,315 459,306 450,306 450,342 459,342 468,342 477,342 477,324 		"/>
		<rect x="441" y="315" class="st13" width="9" height="27"/>
		<rect x="432" y="324" class="st13" width="9" height="18"/>
		<polygon class="st14" points="369,315 369,306 360,306 360,297 351,297 351,333 360,333 369,333 378,333 378,315 		"/>
		<rect x="342" y="306" class="st13" width="9" height="27"/>
		<rect x="333" y="315" class="st13" width="9" height="18"/>
		<polygon class="st14" points="225,414 225,405 216,405 216,396 207,396 207,432 216,432 225,432 234,432 234,414 		"/>
		<polygon class="st13" points="198,405 198,414 189,414 189,432 198,432 207,432 207,405 		"/>
		<polygon class="st14" points="297,414 297,405 288,405 288,396 279,396 279,387 252,387 252,432 279,432 288,432 297,432 306,432 
			306,414 		"/>
		<polygon class="st13" points="243,396 243,405 234,405 234,432 243,432 252,432 252,396 		"/>
		<polygon class="st13" points="423,432 423,423 414,423 414,414 405,414 405,405 396,405 396,396 378,396 378,450 396,450 405,450 
			414,450 423,450 432,450 432,432 		"/>
		<rect x="324" y="396" class="st13" width="9" height="54"/>
		<polygon class="st16" points="315,405 315,414 306,414 306,450 315,450 324,450 324,405 		"/>
		<rect x="432" y="342" class="st9" width="18" height="108"/>
		<rect x="333" y="486" class="st9" width="198" height="36"/>
		<rect x="432" y="342" class="st10" width="45" height="108"/>
		<rect x="450" y="450" class="st10" width="180" height="72"/>
		<rect x="459" y="423" class="st13" width="9" height="27"/>
		<polygon class="st14" points="648,423 648,414 468,414 468,450 648,450 657,450 657,423 		"/>
		<rect x="450" y="432" class="st13" width="9" height="18"/>
		<rect x="495" y="288" class="st9" width="9" height="126"/>
		<rect x="432" y="342" class="st12" width="9" height="144"/>
		<rect x="468" y="459" class="st2" width="9" height="18"/>
		<rect x="468" y="486" class="st2" width="9" height="18"/>
		<rect x="486" y="459" class="st2" width="9" height="18"/>
		<rect x="486" y="486" class="st2" width="9" height="18"/>
		<rect x="504" y="459" class="st2" width="9" height="18"/>
		<rect x="504" y="486" class="st2" width="9" height="18"/>
		<rect x="522" y="459" class="st2" width="9" height="18"/>
		<rect x="522" y="486" class="st2" width="9" height="18"/>
		<rect x="540" y="459" class="st2" width="9" height="18"/>
		<rect x="540" y="486" class="st2" width="9" height="18"/>
		<rect x="558" y="459" class="st2" width="9" height="18"/>
		<rect x="558" y="486" class="st2" width="9" height="18"/>
		<rect x="342" y="495" class="st17" width="9" height="18"/>
		<rect x="360" y="495" class="st17" width="9" height="18"/>
		<rect x="378" y="495" class="st17" width="9" height="18"/>
		<rect x="396" y="495" class="st17" width="9" height="18"/>
		<rect x="414" y="495" class="st17" width="9" height="18"/>
		<rect x="432" y="495" class="st17" width="9" height="18"/>
		<rect x="576" y="459" class="st2" width="9" height="18"/>
		<rect x="576" y="486" class="st2" width="9" height="18"/>
		<rect x="594" y="459" class="st2" width="9" height="18"/>
		<rect x="594" y="486" class="st2" width="9" height="18"/>
		<rect x="333" y="333" class="st11" width="45" height="153"/>
		<rect x="342" y="333" class="st10" width="9" height="153"/>
		<rect x="333" y="333" class="st9" width="9" height="153"/>
		<rect x="396" y="459" class="st17" width="18" height="18"/>
		<rect x="306" y="450" class="st9" width="27" height="36"/>
		<rect x="855" y="378" class="st11" width="36" height="81"/>
		<rect x="297" y="495" class="st17" width="18" height="27"/>
		<rect x="234" y="432" class="st12" width="9" height="90"/>
		<polygon class="st10" points="828,432 828,423 657,423 657,441 630,441 630,477 837,477 837,432 		"/>
		<polygon class="st9" points="315,486 297,486 252,486 252,432 243,432 243,522 252,522 297,522 297,495 315,495 315,522 333,522 
			333,486 		"/>
		<polygon class="st14" points="891,459 891,450 882,450 882,441 873,441 873,432 837,432 837,468 873,468 882,468 891,468 900,468 
			900,459 		"/>
		<rect x="837" y="432" class="st13" width="27" height="36"/>
		<rect x="189" y="432" class="st12" width="9" height="90"/>
		<rect x="198" y="432" class="st9" width="9" height="90"/>
		<polygon class="st12" points="846,432 846,441 828,441 828,432 819,432 819,441 792,441 792,432 783,432 783,441 747,441 747,432 
			738,432 738,441 702,441 702,432 693,432 693,441 666,441 666,432 657,432 657,441 639,441 639,432 630,432 630,441 630,450 
			630,522 639,522 639,468 648,468 648,459 657,459 657,522 666,522 666,468 675,468 675,459 684,459 684,450 693,450 693,522 
			702,522 702,459 711,459 711,450 738,450 738,522 747,522 747,450 774,450 774,459 783,459 783,522 792,522 792,450 801,450 
			801,459 810,459 810,468 819,468 819,522 828,522 828,459 837,459 837,468 846,468 846,522 855,522 855,450 855,441 855,432 		"/>
		<polygon class="st14" points="810,396 810,387 801,387 801,378 792,378 792,369 702,369 702,378 693,378 693,387 684,387 684,396 
			675,396 675,405 666,405 666,423 819,423 819,405 819,396 		"/>
		<rect x="666" y="405" class="st16" width="9" height="18"/>
		<rect x="675" y="396" class="st16" width="9" height="27"/>
		<rect x="684" y="387" class="st13" width="9" height="36"/>
		<rect x="693" y="378" class="st13" width="9" height="45"/>
		<rect x="639" y="477" class="st16" width="18" height="18"/>
		<rect x="702" y="369" class="st11" width="36" height="72"/>
		<rect x="720" y="315" class="st11" width="63" height="54"/>
		<rect x="720" y="315" class="st9" width="9" height="54"/>
		<rect x="729" y="315" class="st10" width="18" height="54"/>
		<polygon class="st15" points="729,351 729,342 720,342 720,351 720,369 738,369 738,351 		"/>
		<rect x="702" y="351" class="st14" width="9" height="18"/>
		<rect x="711" y="342" class="st14" width="9" height="27"/>
		<polygon class="st15" points="882,360 882,351 873,351 873,360 873,378 891,378 891,360 		"/>
		<polygon class="st14" points="864,351 864,360 855,360 855,378 864,378 873,378 873,351 		"/>
		<polygon class="st15" points="954,360 954,351 945,351 945,360 945,378 963,378 963,360 		"/>
		<polygon class="st14" points="936,351 936,360 927,360 927,378 936,378 945,378 945,351 		"/>
		<rect x="990" y="414" class="st15" width="9" height="36"/>
		<rect x="981" y="369" class="st15" width="9" height="81"/>
		<rect x="972" y="333" class="st15" width="9" height="117"/>
		<rect x="963" y="369" class="st14" width="9" height="81"/>
		<rect x="963" y="450" class="st9" width="9" height="72"/>
		<rect x="855" y="378" class="st10" width="18" height="54"/>
		<rect x="855" y="378" class="st9" width="9" height="54"/>
		<rect x="927" y="378" class="st10" width="18" height="144"/>
		<rect x="927" y="378" class="st9" width="9" height="144"/>
		<rect x="972" y="495" class="st17" width="18" height="27"/>
		<rect x="261" y="441" class="st2" width="9" height="18"/>
		<rect x="360" y="342" class="st2" width="9" height="18"/>
		<rect x="459" y="351" class="st2" width="9" height="18"/>
		<rect x="288" y="441" class="st2" width="9" height="18"/>
		<rect x="216" y="441" class="st2" width="9" height="18"/>
		<rect x="711" y="369" class="st10" width="9" height="72"/>
		<rect x="702" y="369" class="st9" width="9" height="72"/>
		<rect x="945" y="387" class="st2" width="9" height="18"/>
		<rect x="873" y="387" class="st2" width="9" height="18"/>
		<rect x="882" y="477" class="st17" width="9" height="18"/>
		<rect x="864" y="477" class="st17" width="9" height="18"/>
	</g>
	<rect x="315" y="522" class="st18" width="684" height="9"/>
	<polygon class="st7" points="0,522 0,531 0,540 0,549 63,549 63,540 135,540 135,531 315,531 315,522 	"/>
	<polygon class="st19" points="0,540 0,549 0,558 1053,558 1053,549 1062,549 1062,540 	"/>
	<polygon class="st20" points="999,522 999,531 0,531 0,540 1071,540 1071,531 1071,522 	"/>
	<polygon class="st8" points="1044,540 1044,549 999,549 999,558 0,558 0,567 1044,567 1044,558 1053,558 1053,549 1062,549 
		1062,540 	"/>
	<rect x="1062" y="531" class="st8" width="9" height="9"/>
	<polygon class="st21" points="1017,558 1017,567 0,567 0,576 0,576.4 0,585 0,594 0,603 0,603.4 0,612 0,613.5 0,621 0,621.4 
		0,630 0,630.4 0,639 0,639.9 0,648 0,648.4 0,657 0,666 0,675 0,684 0,693 0,702 0,702.9 0,711 0,711.5 0,720 0,738 0,747 
		-0.3,747 -0.3,756 0,756 0,765 0,774 0,792 0,801 0,819 0,855 36,855 36,819 45,819 45,801 54,801 54,792 63,792 63,774 72,774 
		72,756 81,756 81,747 99,747 99,738 108,738 108,720 117,720 117,711.5 126,711.5 126,702.9 144,702.9 144,693 162,693 162,684 
		189,684 189,675 207,675 207,666 225,666 225,657 261,657 261,648.4 279,648.4 279,639.9 333,639.9 333,630.4 459,630.4 459,639 
		468,639 468,648 477,648 477,657 486,657 486,666 486,675 495,675 495,684 495,684.9 495,693.5 504,693.5 504,702 504,711 513,711 
		513,720 513,729 522,729 522,738 522,747 522,756 513,756 513,765 504,765 504,774 504,783 495,783 495,792 495,801 486,801 
		486,810 486,819 477,819 477,828 477,837 468,837 468,846 711,846 711,837 693,837 693,828 675,828 675,819 675,810 666,810 
		666,801 666,792 657,792 657,783 657,774 648,774 648,765 648,756 639,756 639,747 639,738 639,729 639,720 648,720 648,711 
		648,702 657,702 657,693.5 657,693 657,684.9 666,684.9 666,675 666,666 675,666 675,657 693,657 693,648 720,648 720,639 729,639 
		729,630.4 747,630.4 747,621.4 774,621.4 774,613.5 801,613.5 801,603.4 864,603.4 864,594 927,594 927,585 972,585 972,576.4 
		1035,576.4 1035,567 1044,567 1044,558 	"/>
	<polygon class="st22" points="0,567 0,576 0,585 0,594 0,603 0,612 0,621 0,630 0,639 0,648 0,657 0,666 0,675 0,684 0,693 
		0,699.7 0,702 0,711 0,720 0,738 0,747 0,765 0,792 9,792 9,765 18,765 18,747 27,747 27,738 36,738 36,720 45,720 45,702 54,702 
		54,693 63,693 63,684 72,684 72,675 90,675 90,666 108,666 108,657 135,657 135,648 153,648 153,639 207,639 207,630 297,630 
		297,621 432,621 432,630 459,630 459,639 468,639 468,648 477,648 477,657 486,657 486,675 504,675 504,693 522,693 522,711 
		531,711 531,729 540,729 540,756 531,756 531,765 522,765 522,783 513,783 513,801 495,801 495,819 477,819 477,837 468,837 
		468,846 666,846 666,837 648,837 648,828 621,828 621,819 612,819 612,810 603,810 603,792 594,792 594,783 585,783 585,693 
		594,693 594,684 603,684 603,675 612,675 612,666 621,666 621,648 630,648 630,639 648,639 648,630 657,630 657,621 684,621 
		684,612 720,612 720,603 765,603 765,594 801,594 801,585 855,585 855,576 909,576 909,567 	"/>
	<polygon class="st5" points="2205,720 2205,729 2142,729 2142,738 2115,738 2115,747 2124,747 2124,756 2178,756 2178,765 
		2232,765 2232,774 2322,774 2322,783 2403,783 2403,747 2403,738 2403,729 2412,729 2412,720 	"/>
	<polygon class="st23" points="2205,738 2205,747 2250,747 2250,756 2322,756 2322,765 2403,765 2403,756 2403,747 2403,738 	"/>
	<polygon class="st7" points="2232,729 2232,738 2277,738 2277,747 2358,747 2358,756 2403,756 2403,747 2403,738 2403,729 	"/>
	<polygon class="st24" points="2250,720 2250,729 2295,729 2295,738 2403,738 2403,729 2403,720 	"/>
	<polygon class="st19" points="2286,711 2286,720 2313,720 2313,729 2403,729 2403,720 2403,711 	"/>
	<rect x="486" y="108" class="st25" width="45" height="27"/>
	<rect x="486" y="108" class="st26" width="9" height="27"/>
	<rect x="522" y="108" class="st26" width="9" height="27"/>
	<polygon class="st4" points="1863,747 1863,738 1620,738 1620,747 1602,747 1602,756 1611,756 1611,765 1629,765 1629,774 
		1845,774 1845,765 1854,765 1854,756 1872,756 1872,747 	"/>
	<rect x="504" y="117" class="st26" width="9" height="9"/>
	<polygon class="st8" points="1611,702 1611,711 1620,711 1620,720 1629,720 1629,729 1629,738 1638,738 1638,747 1638,756 
		1836,756 1836,747 1845,747 1845,738 1854,738 1854,729 1863,729 1863,720 1872,720 1872,711 1881,711 1881,702 	"/>
	<polygon class="st24" points="1800,684 1800,693 1683,693 1683,684 1674,684 1674,675 1665,675 1665,666 1656,666 1656,657 
		1593,657 1593,684 1593,693 1593,693 1593,702 1899,702 1899,693 1935,693 1935,684 	"/>
	<rect x="1908" y="675" class="st24" width="9" height="9"/>
	<rect x="1899" y="666" class="st24" width="9" height="9"/>
	<rect x="1890" y="657" class="st24" width="9" height="9"/>
	<rect x="1881" y="648" class="st24" width="9" height="9"/>
	<rect x="1872" y="639" class="st24" width="9" height="9"/>
	<rect x="1863" y="630" class="st24" width="9" height="9"/>
	<rect x="1854" y="621" class="st24" width="9" height="9"/>
	<rect x="1008" y="513" class="st27" width="1395" height="9"/>
	<rect x="1071" y="531" class="st28" width="1332" height="9"/>
	<rect x="1044" y="558" class="st29" width="1359" height="9.2"/>
	<rect x="864" y="594" class="st30" width="1539" height="9.2"/>
	<rect x="1089" y="495" class="st31" width="1314" height="9.6"/>
	<rect x="1845" y="612" class="st24" width="9" height="9"/>
	<rect x="1836" y="603" class="st24" width="9" height="9"/>
	<rect x="1827" y="594" class="st24" width="9" height="9"/>
	<rect x="1818" y="585" class="st24" width="9" height="9"/>
	<rect x="1809" y="576" class="st24" width="9" height="9"/>
	<rect x="1800" y="567" class="st24" width="9" height="9"/>
	<rect x="1791" y="558" class="st24" width="9" height="9"/>
	<rect x="1422" y="486" class="st32" width="891" height="9.6"/>
	<rect x="1593" y="477" class="st33" width="585" height="9"/>
	<rect x="1800" y="468" class="st34" width="252" height="9.6"/>
	<rect x="1782" y="549" class="st24" width="9" height="9"/>
	<rect x="1773" y="540" class="st24" width="9" height="9"/>
	<rect x="1719" y="486" class="st8" width="9" height="207"/>
	<polygon class="st2" points="1782,567 1782,558 1773,558 1773,549 1674,549 1674,558 1683,558 1683,567 1692,567 1692,576 
		1692,585 1692,594 1692,603 1692,612 1692,621 1692,630 1692,639 1791,639 1791,630 1791,621 1791,612 1791,603 1791,594 1791,585 
		1791,576 1791,567 	"/>
	<rect x="1683" y="639" class="st17" width="99" height="9"/>
	<rect x="1674" y="648" class="st17" width="99" height="9"/>
	<rect x="1764" y="531" class="st24" width="9" height="9"/>
	<rect x="1755" y="522" class="st24" width="9" height="9"/>
	<rect x="1746" y="513" class="st24" width="9" height="9"/>
	<rect x="1737" y="504" class="st24" width="9" height="9"/>
	<rect x="1728" y="495" class="st24" width="9" height="9"/>
	<rect x="1638" y="639" class="st24" width="9" height="18"/>
	<rect x="1647" y="621" class="st24" width="9" height="18"/>
	<rect x="1656" y="603" class="st24" width="9" height="18"/>
	<rect x="1665" y="585" class="st24" width="9" height="18"/>
	<rect x="1665" y="549" class="st2" width="9" height="9"/>
	<rect x="1674" y="567" class="st24" width="9" height="18"/>
	<rect x="1692" y="531" class="st24" width="9" height="18"/>
	<rect x="1701" y="513" class="st24" width="9" height="18"/>
	<rect x="1710" y="495" class="st24" width="9" height="18"/>
	<rect x="1602" y="675" class="st2" width="9" height="18"/>
	<rect x="1620" y="675" class="st2" width="9" height="18"/>
	<rect x="1674" y="720" class="st35" width="9" height="9"/>
	<rect x="1692" y="720" class="st35" width="9" height="9"/>
	<rect x="1710" y="720" class="st35" width="9" height="9"/>
	<rect x="1737" y="720" class="st35" width="9" height="9"/>
	<rect x="1755" y="720" class="st35" width="9" height="9"/>
	<rect x="1773" y="720" class="st35" width="9" height="9"/>
	<rect x="1791" y="720" class="st35" width="9" height="9"/>
	<rect x="1809" y="720" class="st35" width="9" height="9"/>
	<rect x="1845" y="711" class="st35" width="9" height="9"/>
	<rect x="1593" y="657" class="st8" width="63" height="9"/>
	<rect x="1683" y="684" class="st8" width="117" height="9"/>
	<polygon class="st36" points="2016,162 2016,153 2016,144 2007,144 2007,135 1998,135 1998,126 1989,126 1989,117 1971,117 
		1971,108 1935,108 1935,117 1917,117 1917,126 1908,126 1908,135 1899,135 1899,144 1890,144 1890,153 1890,162 1881,162 1881,171 
		1881,180 1881,189 1881,198 1890,198 1890,207 1890,216 1899,216 1899,225 1908,225 1908,234 1917,234 1917,243 1935,243 1935,252 
		1971,252 1971,243 1989,243 1989,234 1998,234 1998,225 2007,225 2007,216 2016,216 2016,207 2016,198 2025,198 2025,189 2025,180 
		2025,171 2025,162 	"/>
	<rect x="873" y="72" class="st2" width="387" height="9"/>
	<rect x="765" y="81" class="st2" width="675" height="9"/>
	<rect x="711" y="90" class="st2" width="765" height="9"/>
	<rect x="729" y="99" class="st2" width="720" height="9"/>
	<rect x="918" y="108" class="st2" width="495" height="8.4"/>
</g>
<g id="Fore_ground">
	<polygon class="st20" points="360,900 360,891 360,882 351,882 351,873 351,864 342,864 342,855 333,855 333,846 315,846 315,837 
		288,837 288,828 216,828 216,837 207,837 207,846 189,846 189,855 180,855 180,864 180,873 171,873 171,882 171,891 171,900 
		180,900 180,909 180,918 189,918 189,927 189,936 189,945 207,945 207,954 324,954 324,945 351,945 351,936 360,936 360,927 
		360,918 369,918 369,909 369,900 	"/>
	<polygon class="st20" points="630,891 630,882 630,873 621,873 621,864 612,864 612,855 585,855 585,846 567,846 567,837 495,837 
		495,846 477,846 477,855 459,855 459,864 441,864 441,873 432,873 432,882 432,891 423,891 423,900 432,900 432,909 441,909 
		441,918 450,918 450,927 459,927 459,936 477,936 477,945 576,945 576,936 594,936 594,927 603,927 603,918 630,918 630,909 
		639,909 639,900 639,891 	"/>
	<polygon class="st37" points="693,927 693,918 675,918 675,909 657,909 657,900 603,900 603,909 585,909 585,918 567,918 567,927 
		558,927 558,936 558,945 567,945 567,954 576,954 576,963 594,963 594,972 666,972 666,963 684,963 684,954 702,954 702,945 
		702,936 702,927 	"/>
	<polygon class="st19" points="504,918 504,909 504,900 495,900 495,891 495,882 495,873 486,873 486,864 468,864 468,855 450,855 
		450,846 405,846 405,855 387,855 387,864 369,864 369,873 360,873 360,882 351,882 351,891 342,891 342,900 342,909 333,909 
		333,918 333,927 342,927 342,936 351,936 351,945 369,945 369,954 486,954 486,945 504,945 504,936 513,936 513,927 513,918 	"/>
	<polygon class="st19" points="180,900 180,891 180,882 171,882 171,873 171,864 162,864 162,855 153,855 153,846 135,846 135,837 
		108,837 108,828 36,828 36,837 27,837 27,846 9,846 9,855 0,855 0,864 0,873 -9,873 -9,882 -9,891 -9,900 0,900 0,909 0,918 9,918 
		9,927 9,936 9,945 27,945 27,954 144,954 144,945 171,945 171,936 180,936 180,927 180,918 189,918 189,909 189,900 	"/>
	<polygon class="st37" points="306,891 306,882 288,882 288,873 270,873 270,864 216,864 216,873 198,873 198,882 180,882 180,891 
		171,891 171,900 171,909 180,909 180,918 189,918 189,927 207,927 207,936 279,936 279,927 297,927 297,918 315,918 315,909 
		315,900 315,891 	"/>
	<polygon class="st37" points="90,936 90,927 72,927 72,918 54,918 54,909 0,909 0,918 -18,918 -18,927 -36,927 -36,936 -45,936 
		-45,945 -45,954 -36,954 -36,963 -27,963 -27,972 -9,972 -9,981 63,981 63,972 81,972 81,963 99,963 99,954 99,945 99,936 	"/>
	<polygon class="st19" points="783,936 783,927 774,927 774,918 774,909 765,909 765,900 747,900 747,891 693,891 693,900 684,900 
		684,909 666,909 666,918 657,918 657,927 648,927 648,936 648,945 657,945 657,954 666,954 666,963 675,963 675,972 693,972 
		693,981 756,981 756,972 765,972 765,963 783,963 783,954 792,954 792,945 792,936 	"/>
	<polygon class="st19" points="216,927 216,918 207,918 207,909 207,900 198,900 198,891 180,891 180,882 126,882 126,891 117,891 
		117,900 99,900 99,909 90,909 90,918 81,918 81,927 81,936 90,936 90,945 99,945 99,954 108,954 108,963 126,963 126,972 189,972 
		189,963 198,963 198,954 216,954 216,945 225,945 225,936 225,927 	"/>
	<polygon class="st20" points="954,1017 810,1017 684,1017 0,1017 0,1035 0,1053 0,1062 0,1071 0,1080 126,1080 126,1071 198,1071 
		198,1062 297,1062 297,1053 396,1053 396,1044 540,1044 540,1035 810,1035 810,1026 954,1026 	"/>
	<rect x="234" y="963" class="st24" width="27" height="63"/>
	<polygon class="st8" points="576,1008 576,999 567,999 567,990 558,990 558,954 567,954 567,945 558,945 513,945 513,1008 
		504,1008 504,1026 585,1026 585,1008 	"/>
	<rect x="135" y="963" class="st8" width="36" height="63"/>
	<polygon class="st19" points="369,936 369,927 369,918 369,909 360,909 360,900 342,900 342,891 324,891 324,882 279,882 279,891 
		261,891 261,900 243,900 243,909 234,909 234,918 225,918 225,927 216,927 216,936 216,945 225,945 225,954 225,963 234,963 
		234,972 243,972 243,981 351,981 351,972 360,972 360,963 369,963 369,954 378,954 378,945 378,936 	"/>
	<rect x="99" y="999" class="st24" width="27" height="36"/>
	<polygon class="st37" points="180,954 180,945 162,945 162,936 144,936 144,927 90,927 90,936 72,936 72,945 54,945 54,954 45,954 
		45,963 45,972 54,972 54,981 63,981 63,990 81,990 81,999 153,999 153,990 171,990 171,981 189,981 189,972 189,963 189,954 	"/>
	<polygon class="st19" points="99,999 99,990 99,981 99,972 90,972 90,963 72,963 72,954 54,954 54,945 9,945 9,954 -9,954 -9,963 
		-27,963 -27,972 -36,972 -36,981 -45,981 -45,990 -54,990 -54,999 -54,1008 -45,1008 -45,1017 -45,1026 -36,1026 -36,1035 
		-27,1035 -27,1044 81,1044 81,1035 90,1035 90,1026 99,1026 99,1017 108,1017 108,1008 108,999 	"/>
	<polygon class="st8" points="2331,1035 2331,1044 2223,1044 2223,1053 2106,1053 2106,1062 1674,1062 1674,1053 1485,1053 
		1485,1044 1377,1044 1377,1035 1251,1035 1251,1026 1107,1026 1107,1017 954,1017 954,1026 810,1026 810,1035 540,1035 540,1044 
		396,1044 396,1053 297,1053 297,1062 198,1062 198,1071 126,1071 126,1080 396,1080 414,1080 1152,1080 1485,1080 2403,1080 
		2403,1071 2403,1062 2403,1053 2403,1044 2403,1035 	"/>
	<polygon class="st24" points="1683,1071 1683,1062 1476,1062 1476,1053 1377,1053 1377,1044 1314,1044 1314,1035 1116,1035 
		1116,1026 1107,1026 1107,1017 981,1017 981,1026 918,1026 918,1035 819,1035 819,1044 540,1044 540,1053 405,1053 405,1062 
		288,1062 288,1071 207,1071 207,1080 2403,1080 2403,1071 	"/>
	<rect x="2106" y="1062" class="st24" width="297" height="9"/>
	<rect x="2232" y="1053" class="st24" width="171" height="9"/>
	<rect x="2331" y="1044" class="st24" width="72" height="9"/>
	<polygon class="st7" points="1467,1071 1467,1062.6 1359,1062.6 1359,1053.4 1287,1053.4 1287,1044 1107,1044 1107,1035 1098,1035 
		1098,1017 990,1017 990,1035 936,1035 936,1044 837,1044 837,1053.4 558,1053.4 558,1062.6 414,1062.6 414,1071 306,1071 306,1080 
		1665,1080 1665,1071 	"/>
	<polygon class="st7" points="2358,1053 2358,1062 2241,1062 2241,1071 2124,1071 2124,1080 2403,1080 2403,1071 2403,1062 
		2403,1053 	"/>
	<polygon class="st23" points="1260,1071 1260,1062 1161,1062 1161,1053 1089,1053 1089,1044 1089,1035 1080,1035 1080,1026 
		999,1026 999,1035 981,1035 981,1044 972,1044 972,1053 900,1053 900,1062 729,1062 729,1071 603,1071 603,1080 1323,1080 
		1323,1071 	"/>
	<polygon class="st20" points="1107,1017 1107,1026 1251,1026 1251,1035 1377,1035 1377,1044 1485,1044 1485,1053 1674,1053 
		1674,1062 2106,1062 2106,1053 2223,1053 2223,1044 2331,1044 2331,1035 2403,1035 2403,1026 2403,1017 	"/>
	<polygon class="st8" points="306,981 306,990 288,990 288,981 270,981 270,990 279,990 279,1035 315,1035 315,990 333,990 333,981 
			"/>
	<polygon class="st8" points="54,1044 36,1044 36,1053 27,1053 27,1044 18,1044 18,1080 54,1080 54,1053 63,1053 63,1044 	"/>
	<polygon class="st8" points="1557,972 1557,954 1512,954 1512,1026 1557,1026 1557,1017 1548,1017 1548,972 	"/>
	<g>
		<polygon class="st24" points="441,963 441,954 423,954 423,963 405,963 405,954 387,954 387,963 396,963 396,1026 441,1026 
			441,1008 432,1008 432,981 441,981 441,972 459,972 459,963 		"/>
		<rect x="459" y="954" class="st24" width="9" height="9"/>
	</g>
	<polygon class="st37" points="405,945 405,936 423,936 423,927 441,927 441,918 495,918 495,927 513,927 513,936 531,936 531,945 
		540,945 540,954 540,963 531,963 531,972 522,972 522,981 504,981 504,990 432,990 432,981 414,981 414,972 396,972 396,963 
		396,954 396,945 	"/>
	<polygon class="st20" points="1674,900 1674,891 1674,882 1683,882 1683,873 1683,864 1692,864 1692,855 1701,855 1701,846 
		1719,846 1719,837 1746,837 1746,828 1818,828 1818,837 1827,837 1827,846 1845,846 1845,855 1854,855 1854,864 1854,873 1863,873 
		1863,882 1863,891 1863,900 1854,900 1854,909 1854,918 1845,918 1845,927 1845,936 1845,945 1827,945 1827,954 1710,954 1710,945 
		1683,945 1683,936 1674,936 1674,927 1674,918 1665,918 1665,909 1665,900 	"/>
	<polygon class="st19" points="1854,873 1854,864 1854,855 1854,846 1863,846 1863,837 1881,837 1881,828 1899,828 1899,819 
		1944,819 1944,828 1962,828 1962,837 1980,837 1980,846 1989,846 1989,855 1998,855 1998,864 2007,864 2007,873 2007,882 1998,882 
		1998,891 1998,900 1989,900 1989,909 1980,909 1980,918 1872,918 1872,909 1863,909 1863,900 1854,900 1854,891 1845,891 1845,882 
		1845,873 	"/>
	<polygon class="st20" points="1449,900 1449,891 1449,882 1458,882 1458,873 1467,873 1467,864 1494,864 1494,855 1512,855 
		1512,846 1584,846 1584,855 1602,855 1602,864 1620,864 1620,873 1638,873 1638,882 1647,882 1647,891 1647,900 1656,900 1656,909 
		1647,909 1647,918 1638,918 1638,927 1629,927 1629,936 1620,936 1620,945 1602,945 1602,954 1503,954 1503,945 1485,945 1485,936 
		1476,936 1476,927 1449,927 1449,918 1440,918 1440,909 1440,900 	"/>
	<polygon class="st37" points="1395,936 1395,927 1413,927 1413,918 1431,918 1431,909 1485,909 1485,918 1503,918 1503,927 
		1521,927 1521,936 1530,936 1530,945 1530,954 1521,954 1521,963 1512,963 1512,972 1494,972 1494,981 1422,981 1422,972 1404,972 
		1404,963 1386,963 1386,954 1386,945 1386,936 	"/>
	<polygon class="st19" points="1575,927 1575,918 1575,909 1584,909 1584,900 1584,891 1584,882 1593,882 1593,873 1611,873 
		1611,864 1629,864 1629,855 1674,855 1674,864 1692,864 1692,873 1710,873 1710,882 1719,882 1719,891 1728,891 1728,900 1737,900 
		1737,909 1737,918 1746,918 1746,927 1746,936 1737,936 1737,945 1728,945 1728,954 1710,954 1710,963 1593,963 1593,954 1575,954 
		1575,945 1566,945 1566,936 1566,927 	"/>
	<polygon class="st20" points="1953,909 1953,900 1953,891 1962,891 1962,882 1962,873 1971,873 1971,864 1980,864 1980,855 
		1998,855 1998,846 2025,846 2025,837 2097,837 2097,846 2106,846 2106,855 2124,855 2124,864 2133,864 2133,873 2133,882 2142,882 
		2142,891 2142,900 2142,909 2133,909 2133,918 2133,927 2124,927 2124,936 2124,945 2124,954 2106,954 2106,963 1989,963 1989,954 
		1962,954 1962,945 1953,945 1953,936 1953,927 1944,927 1944,918 1944,909 	"/>
	<polygon class="st20" points="2241,918 2241,909 2241,900 2250,900 2250,891 2250,882 2259,882 2259,873 2268,873 2268,864 
		2286,864 2286,855 2313,855 2313,846 2385,846 2385,855 2394,855 2394,864 2412,864 2412,873 2421,873 2421,882 2421,891 2430,891 
		2430,900 2430,909 2430,918 2421,918 2421,927 2421,936 2412,936 2412,945 2412,954 2412,963 2394,963 2394,972 2277,972 2277,963 
		2250,963 2250,954 2241,954 2241,945 2241,936 2232,936 2232,927 2232,918 	"/>
	<rect x="1827" y="954" class="st8" width="27" height="72"/>
	<polygon class="st37" points="1773,900 1773,891 1791,891 1791,882 1809,882 1809,873 1863,873 1863,882 1881,882 1881,891 
		1899,891 1899,900 1908,900 1908,909 1908,918 1899,918 1899,927 1890,927 1890,936 1872,936 1872,945 1800,945 1800,936 1782,936 
		1782,927 1764,927 1764,918 1764,909 1764,900 	"/>
	<polygon class="st19" points="1989,945 1989,936 2007,936 2007,927 2025,927 2025,918 2079,918 2079,927 2097,927 2097,936 
		2115,936 2115,945 2124,945 2124,954 2124,963 2115,963 2115,972 2106,972 2106,981 2088,981 2088,990 2016,990 2016,981 1998,981 
		1998,972 1980,972 1980,963 1980,954 1980,945 	"/>
	<polygon class="st8" points="2367,981 2367,972 2322,972 2322,1026 2367,1026 2367,1017 2358,1017 2358,981 	"/>
	<polygon class="st19" points="1296,954 1296,945 1305,945 1305,936 1305,927 1314,927 1314,918 1332,918 1332,909 1386,909 
		1386,918 1395,918 1395,927 1413,927 1413,936 1422,936 1422,945 1431,945 1431,954 1431,963 1422,963 1422,972 1413,972 1413,981 
		1404,981 1404,990 1386,990 1386,999 1323,999 1323,990 1314,990 1314,981 1296,981 1296,972 1287,972 1287,963 1287,954 	"/>
	<rect x="1908" y="972" class="st8" width="36" height="54"/>
	<polygon class="st19" points="1863,936 1863,927 1872,927 1872,918 1872,909 1881,909 1881,900 1899,900 1899,891 1953,891 
		1953,900 1962,900 1962,909 1980,909 1980,918 1989,918 1989,927 1998,927 1998,936 1998,945 1989,945 1989,954 1980,954 1980,963 
		1971,963 1971,972 1953,972 1953,981 1890,981 1890,972 1881,972 1881,963 1863,963 1863,954 1854,954 1854,945 1854,936 	"/>
	<polygon class="st19" points="1710,945 1710,936 1710,927 1710,918 1719,918 1719,909 1737,909 1737,900 1755,900 1755,891 
		1800,891 1800,900 1818,900 1818,909 1836,909 1836,918 1845,918 1845,927 1854,927 1854,936 1863,936 1863,945 1863,954 1854,954 
		1854,963 1854,972 1845,972 1845,981 1836,981 1836,990 1728,990 1728,981 1719,981 1719,972 1710,972 1710,963 1701,963 1701,954 
		1701,945 	"/>
	<polygon class="st19" points="2331,936 2331,927 2331,918 2331,909 2340,909 2340,900 2358,900 2358,891 2376,891 2376,882 
		2421,882 2421,891 2439,891 2439,900 2457,900 2457,909 2466,909 2466,918 2475,918 2475,927 2484,927 2484,936 2484,945 2475,945 
		2475,954 2475,963 2466,963 2466,972 2457,972 2457,981 2349,981 2349,972 2340,972 2340,963 2331,963 2331,954 2322,954 2322,945 
		2322,936 	"/>
	<polygon class="st20" points="2142,918 2142,909 2142,900 2142,891 2151,891 2151,882 2169,882 2169,873 2187,873 2187,864 
		2232,864 2232,873 2250,873 2250,882 2268,882 2268,891 2277,891 2277,900 2286,900 2286,909 2295,909 2295,918 2295,927 2286,927 
		2286,936 2286,945 2277,945 2277,954 2268,954 2268,963 2160,963 2160,954 2151,954 2151,945 2142,945 2142,936 2133,936 2133,927 
		2133,918 	"/>
	<polygon class="st37" points="1899,963 1899,954 1917,954 1917,945 1935,945 1935,936 1989,936 1989,945 2007,945 2007,954 
		2025,954 2025,963 2034,963 2034,972 2034,981 2025,981 2025,990 2016,990 2016,999 1998,999 1998,1008 1926,1008 1926,999 
		1908,999 1908,990 1890,990 1890,981 1890,972 1890,963 	"/>
	<polygon class="st8" points="1692,963 1692,972 1683,972 1683,963 1638,963 1638,1026 1683,1026 1683,981 1701,981 1701,972 
		1701,963 	"/>
	<polygon class="st19" points="2088,936 2088,927 2088,918 2088,909 2097,909 2097,900 2115,900 2115,891 2133,891 2133,882 
		2178,882 2178,891 2196,891 2196,900 2214,900 2214,909 2223,909 2223,918 2232,918 2232,927 2241,927 2241,936 2241,945 2232,945 
		2232,954 2232,963 2223,963 2223,972 2214,972 2214,981 2106,981 2106,972 2097,972 2097,963 2088,963 2088,954 2079,954 2079,945 
		2079,936 	"/>
	<polygon class="st37" points="1665,954 1665,945 1647,945 1647,936 1629,936 1629,927 1575,927 1575,936 1557,936 1557,945 
		1539,945 1539,954 1530,954 1530,963 1530,972 1539,972 1539,981 1548,981 1548,990 1566,990 1566,999 1638,999 1638,990 1656,990 
		1656,981 1674,981 1674,972 1674,963 1674,954 	"/>
	<polygon class="st24" points="621,972 612,972 612,981 621,981 621,1026 648,1026 648,972 	"/>
	<polygon class="st37" points="2223,945 2223,936 2241,936 2241,927 2259,927 2259,918 2313,918 2313,927 2331,927 2331,936 
		2349,936 2349,945 2358,945 2358,954 2358,963 2349,963 2349,972 2340,972 2340,981 2322,981 2322,990 2250,990 2250,981 2232,981 
		2232,972 2214,972 2214,963 2214,954 2214,945 	"/>
	<g>
		<polygon class="st24" points="729,981 729,990 711,990 711,1026 738,1026 738,990 747,990 747,981 		"/>
		<rect x="702" y="981" class="st24" width="9" height="9"/>
	</g>
	<polygon class="st24" points="477,990 450,990 450,1035 477,1035 477,999 486,999 486,990 	"/>
	<rect x="1341" y="999" class="st24" width="27" height="27"/>
	<polygon class="st8" points="1458,981 1431,981 1431,1026 1458,1026 1458,990 1467,990 1467,981 	"/>
	<polygon class="st24" points="1593,999 1584,999 1584,1008 1593,1008 1593,1039 1618.5,1039 1618.5,999 	"/>
	<polygon class="st24" points="1764,990 1746,990 1746,999 1755,999 1755,1008 1764,1008 1764,1044 1800,1044 1800,990 	"/>
	<polygon class="st24" points="1953,1008 1944,1008 1944,1017 1953,1017 1953,1053 1980,1053 1980,1008 	"/>
	<rect x="2034" y="990" class="st24" width="27" height="36"/>
	<polygon class="st8" points="2178,981 2133,981 2115,981 2115,990 2133,990 2133,999 2142,999 2142,1017 2133,1017 2133,1026 
		2178,1026 2178,990 2187,990 2187,981 	"/>
	<g>
		<rect x="2304" y="990" class="st24" width="9" height="9"/>
		<polygon class="st24" points="2295,999 2295,990 2277,990 2268,990 2268,999 2277,999 2277,1035 2295,1035 2295,1008 2304,1008 
			2304,999 		"/>
	</g>
	<g>
		<polygon class="st24" points="2385,981 2385,990 2376,990 2376,999 2385,999 2385,1026 2412,1026 2412,981 		"/>
		<rect x="2367" y="981" class="st24" width="9" height="9"/>
	</g>
	<rect x="-27" y="-36" class="st38" width="2457" height="1134"/>
</g>
<g id="Background">
	
		<linearGradient id="SVGID_1_" gradientUnits="userSpaceOnUse" x1="1913.5" y1="2728" x2="2993.5" y2="2728" gradientTransform="matrix(4.489700e-11 1 -1 4.489700e-11 3929.5 -1913.5)">
		<stop  offset="0" style="stop-color:#0082CB"/>
		<stop  offset="1" style="stop-color:#9BE7D8"/>
	</linearGradient>
	<rect class="st39" width="2403" height="1080"/>
</g>
<rect x="1133" y="1021.5" transform="matrix(0.7071 -0.7071 0.7071 0.7071 -414.6931 1158.8424)" class="st40" width="117" height="117"/>
</svg>
