<?xml version="1.0" encoding="utf-8"?>
<!-- Generator: Adobe Illustrator 18.1.1, SVG Export Plug-In . SVG Version: 6.00 Build 0)  -->
<!DOCTYPE svg PUBLIC "-//W3C//DTD SVG 1.1//EN" "http://www.w3.org/Graphics/SVG/1.1/DTD/svg11.dtd">
<svg version="1.1" id="Layer_1" xmlns="http://www.w3.org/2000/svg" xmlns:xlink="http://www.w3.org/1999/xlink" x="0px" y="0px"
	 viewBox="0 0 38.2 38.2" enable-background="new 0 0 38.2 38.2" xml:space="preserve">
<path fill="#B3B3B3" d="M1.5,30.4c0-7.4,0-14.8,0-22.3c0.1,0,0.2,0,0.3,0c3.5,0,6.9,0,10.4,0c1.1,0,2.3,0.1,3.3,0.5
	c2.2,0.8,3.3,2.4,3.5,4.7c0.1,0.7,0,1.4-0.2,2.1c-0.3,1.1-0.9,1.9-1.8,2.5c-0.2,0.1-0.5,0.3-0.7,0.4c0.1,0,0.2,0.1,0.2,0.1
	c1.8,0.8,2.8,2.2,3.1,4.1c0.2,1.3,0.1,2.5-0.5,3.7c-1,2.1-2.6,3.4-4.9,3.8c-0.9,0.2-1.8,0.2-2.8,0.2c-3.2,0-6.5,0-9.7,0
	C1.7,30.4,1.6,30.4,1.5,30.4z M6.6,26.5c0.1,0,0.1,0,0.2,0c1.6,0,3.2,0,4.8,0c0.4,0,0.8,0,1.1-0.1c1.2-0.2,2-0.9,2.2-2.1
	c0.1-0.4,0.1-0.8,0.1-1.2c0-1.2-0.7-2-1.8-2.3c-0.5-0.2-1.1-0.2-1.7-0.2c-1.6,0-3.2,0-4.7,0c-0.1,0-0.1,0-0.2,0
	C6.6,22.6,6.6,24.5,6.6,26.5z M6.6,16.9c0,0,0.1,0,0.1,0c1.7,0,3.3,0,5,0c0.6,0,1.3-0.2,1.9-0.5c0.5-0.2,0.8-0.6,0.9-1.1
	c0.1-0.5,0.2-0.9,0.1-1.4c-0.1-0.9-0.6-1.5-1.5-1.7c-0.7-0.2-1.4-0.2-2-0.2c-1.4,0-2.8,0-4.2,0c-0.1,0-0.1,0-0.2,0
	C6.6,13.6,6.6,15.2,6.6,16.9z"/>
<path fill="#B3B3B3" d="M37.3,22.9c-3.9,0-7.7,0-11.6,0c0,0.5,0.1,0.9,0.2,1.3c0.4,1.5,1.5,2.4,3,2.6c0.5,0.1,1.1,0.1,1.6,0
	c1-0.2,1.7-0.7,2.2-1.5c0.1-0.2,0.2-0.2,0.4-0.2c1.2,0,2.4,0,3.7,0c0.1,0,0.2,0,0.3,0c0,0.2-0.1,0.3-0.1,0.4c-0.1,0.5-0.4,1-0.7,1.5
	c-1.2,1.8-2.9,2.8-5,3.2c-1.5,0.2-3,0.2-4.5-0.2c-1.2-0.3-2.2-0.9-3.1-1.7c-1-0.9-1.7-2-2-3.3c-0.3-1.3-0.4-2.6-0.3-3.9
	c0.1-1,0.2-1.9,0.6-2.8c1-2.6,2.8-4.1,5.4-4.6c1.5-0.3,2.9-0.2,4.4,0.1c2.3,0.6,3.8,2,4.8,4.2c0.4,0.8,0.6,1.7,0.6,2.6
	c0,0.8,0,1.5,0.1,2.3C37.3,22.8,37.3,22.8,37.3,22.9z M32.9,20.1c0-0.2,0-0.4-0.1-0.6c-0.3-1.3-1-2.2-2.3-2.6
	c-0.5-0.2-1.1-0.2-1.6-0.1c-1.7,0.1-3.1,1.6-3.1,3.4C28.2,20.1,30.5,20.1,32.9,20.1z"/>
<path fill="#B3B3B3" d="M24.9,9c3,0,5.9,0,8.9,0c0,0.7,0,1.5,0,2.2c-3,0-5.9,0-8.9,0C24.9,10.5,24.9,9.8,24.9,9z"/>
</svg>
