<?xml version="1.0" encoding="utf-8"?>
<!-- Generator: Adobe Illustrator 19.2.1, SVG Export Plug-In . SVG Version: 6.00 Build 0)  -->
<svg version="1.1" id="Layer_1" xmlns="http://www.w3.org/2000/svg" xmlns:xlink="http://www.w3.org/1999/xlink" x="0px" y="0px"
	 viewBox="0 0 38.2 38.2" style="enable-background:new 0 0 38.2 38.2;" xml:space="preserve">
<style type="text/css">
	.st0{fill:#3A3A3A;}
</style>
<path class="st0" d="M21.4,13.1c0,1.1,0,2.2,0,3.3l0,0l0.1-0.1c0.4-0.6,0.8-1.2,1.4-1.7c1-1,2.3-1.6,3.7-1.9c1-0.2,2-0.2,3.1-0.1
	c1,0.1,1.9,0.3,2.8,0.8c1.6,0.7,2.8,1.9,3.6,3.5c0.5,0.9,0.8,2,1.1,3c0.2,1.1,0.3,2.2,0.3,3.2c0,4.4,0,8.9,0,13.3c0,0.1,0,0.1,0,0.2
	c-2.6,0-5.2,0-7.8,0v-0.1v-0.1c0-4.2,0-8.3,0-12.5c0-0.6-0.1-1.3-0.2-1.9c-0.1-0.5-0.3-1.1-0.6-1.6c-0.6-1-1.4-1.6-2.6-1.7
	c-0.8-0.1-1.5,0-2.2,0.2c-0.9,0.3-1.5,0.9-2,1.7c-0.3,0.5-0.5,1-0.6,1.5c-0.1,0.4-0.1,0.7-0.1,1.1c0,4.3,0,8.7,0,13
	c0,0.1,0,0.1,0,0.2l0,0l0,0c0,0,0,0-0.1,0c-2.6,0-5.1,0-7.7,0c0,0,0,0-0.1,0c0-7.8,0.1-15.7,0-23.5l0,0l0,0
	C16.2,13.1,18.7,13.1,21.4,13.1C21.3,13.1,21.4,13.1,21.4,13.1z"/>
<path class="st0" d="M1.4,13.1c2.6,0,5.2,0,7.8,0c0,7.8,0,15.7,0,23.5c-2.6,0-5.2,0-7.8,0C1.4,28.7,1.4,20.9,1.4,13.1z"/>
<path class="st0" d="M5.4,1.7c0.7,0,1.3,0.1,1.9,0.4c1.3,0.5,2,1.5,2.3,2.8c0.2,0.9,0.1,1.8-0.3,2.7C8.8,8.6,8,9.2,7,9.6
	C6.4,9.8,5.6,9.9,4.9,9.8c-0.6,0-1.2-0.2-1.8-0.5C1.9,8.7,1.2,7.7,1,6.3C0.9,5.4,1,4.5,1.5,3.7c0.6-0.9,1.4-1.5,2.4-1.8
	C4.4,1.8,4.9,1.7,5.4,1.7z"/>
</svg>
