<?xml version="1.0" encoding="utf-8"?>
<!-- Generator: Adobe Illustrator 18.1.1, SVG Export Plug-In . SVG Version: 6.00 Build 0)  -->
<!DOCTYPE svg PUBLIC "-//W3C//DTD SVG 1.1//EN" "http://www.w3.org/Graphics/SVG/1.1/DTD/svg11.dtd">
<svg version="1.1" id="Layer_1" xmlns="http://www.w3.org/2000/svg" xmlns:xlink="http://www.w3.org/1999/xlink" x="0px" y="0px"
	 viewBox="0 0 600 400" enable-background="new 0 0 600 400" xml:space="preserve">
<rect fill="#5E0012" width="600" height="400"/>
<g>
	<polygon fill="#FFFFFF" points="234.7,219.9 251.6,223.2 254.5,213.3 237.3,206.5 	"/>
	<polygon fill="#FFFFFF" points="257.2,207.5 262.2,198.9 244.6,180.4 233.9,197.3 	"/>
	<polygon fill="#FFFFFF" points="266.4,193.5 278,186.6 266.8,158.7 248,170.3 	"/>
	<polygon fill="#FFFFFF" points="284.2,184.9 298.3,182.2 296.4,155.6 276.4,158.3 	"/>
	<path fill="#FFFFFF" d="M259.7,225.9l18.7-23.9l35.7-14.7l17.1,18.1l-5.7,39.7l46.4,62.4l-24.9,22l-49.2-62.4
		c0,0-20.3-22.2,12.2-54.7l-19.3,5.4l-20.5,19.8L259.7,225.9z"/>
	<path fill="#FFFFFF" d="M309.5,174.1l6.3,4.3c0,0,29.8-27.1,11.3-57.7l-6.4,4C320.7,124.7,335.1,147.6,309.5,174.1z"/>
	<path fill="#FFFFFF" d="M250.3,236.6l5.3,5c0,0-32.8,32.3-4.4,61.2l-5.5,6C245.8,308.7,211.3,278.8,250.3,236.6z"/>
	<polygon fill="#FFFFFF" points="234.9,245.7 242.6,248 239.3,252.5 	"/>
	<polygon fill="#FFFFFF" points="246.2,281.2 240,285.4 238.8,280.5 	"/>
	<polygon fill="#FFFFFF" points="338.4,150.7 331.6,152 332.6,147.1 	"/>
	<polygon fill="#FFFFFF" points="312,161.5 318.5,163.3 315.5,167.4 	"/>
	<path fill="#FFFFFF" d="M325,78.3c0,0,0.4,4-6.8,11c-3.3,3.2-5.7,8.5-6.3,12.7c-1.4,9.6,6.8,16.2,6.8,16.2s8.8-3.3,9.4-13.1
		c0.3-4.9-1.9-8.8-2.2-12.7C325.5,88.4,331.2,80.6,325,78.3z"/>
	<path fill="#FFFFFF" d="M314,119.9c0,0-8.1,0.5-13.8-3.8c-4.1-3.1-7.2-5.6-10.2-5.4c-3,0.3-7.7-1.2-7.3-5.3
		c0.3-3.1,0.6-2.9,0.6-2.9s4.8,4.9,11.4,1.8c8.4-4,13.9-3,13.9-3S305.5,111.8,314,119.9z"/>
	<path fill="#FFFFFF" d="M317.1,85.3c0,0-11.4,0.5-21.7,8.2c0,0-4.1,3-3.2,7.3c0,0,9.8-4.3,17-3.3C309.2,97.5,310.9,91,317.1,85.3z"
		/>
	<path fill="#FFFFFF" d="M287.9,101c0,0-4.4-1.4-5.3-5.7c-1.3-6.4,5.7-11.1,10.6-14.1c4.9-3,21.5-13,26.1-7.8
		c3.9,4.4,0.4,8.4,0.4,8.4s-8.2,0.1-16.8,3.5c0,0-7,2.9-10.2,5.9C287.6,95.9,287.9,101,287.9,101z"/>
</g>
</svg>
