<?xml version="1.0" encoding="utf-8"?>
<!-- Generator: Adobe Illustrator 19.2.1, SVG Export Plug-In . SVG Version: 6.00 Build 0)  -->
<svg version="1.1" id="Layer_1" xmlns="http://www.w3.org/2000/svg" xmlns:xlink="http://www.w3.org/1999/xlink" x="0px" y="0px"
	 viewBox="0 0 792 612" style="enable-background:new 0 0 792 612;" xml:space="preserve">
<style type="text/css">
	.st0{fill:none;}
	.st1{fill:#333333;}
	.st2{font-family:'OpenSans-Light';}
	.st3{font-size:40px;}
	.st4{letter-spacing:20;}
	.st5{fill:#1A1A1A;}
</style>
<path d="M-88.3,587c0,0.1-0.1,0.2-0.1,0.2c-0.1,0-0.1,0-0.2,0C-88.5,587.1-88.5,587-88.3,587C-88.4,586.9-88.4,586.9-88.3,587z"/>
<g>
	<rect x="156.8" y="377.2" class="st0" width="459.7" height="129"/>
	<text transform="matrix(1 0 0 1 156.8352 407.5659)" class="st1 st2 st3 st4">SLINGERLAND</text>
	<polygon class="st1" points="475.8,303.1 427.5,328.5 427.5,242.9 475.8,218.6 	"/>
	<polygon class="st5" points="297.5,303.1 345.8,328.5 345.8,242.9 297.5,218.6 	"/>
	<polygon class="st5" points="386.6,199.1 386.6,255.9 297.7,208.9 297.7,153.9 	"/>
	<polygon class="st1" points="386.6,199.1 386.6,255.9 475.6,208.9 475.6,153.9 	"/>
</g>
</svg>
