<?xml version="1.0" encoding="utf-8"?>
<!-- Generator: Adobe Illustrator 19.2.1, SVG Export Plug-In . SVG Version: 6.00 Build 0)  -->
<svg version="1.1" id="Layer_1" xmlns="http://www.w3.org/2000/svg" xmlns:xlink="http://www.w3.org/1999/xlink" x="0px" y="0px"
	 viewBox="0 0 792 612" style="enable-background:new 0 0 792 612;" xml:space="preserve">
<style type="text/css">
	.st0{fill:#333333;}
	.st1{fill:#1A1A1A;}
</style>
<path d="M-88.3,587c0,0.1-0.1,0.2-0.1,0.2c-0.1,0-0.1,0-0.2,0C-88.5,587.1-88.5,587-88.3,587C-88.4,586.9-88.4,586.9-88.3,587z"/>
<g>
	<path class="st0" d="M176.6,400.2c0,2.4-0.9,4.3-2.6,5.7c-1.8,1.4-4.1,2.1-7,2.1c-3.5,0-6.2-0.4-8-1.2v-2c2.1,0.9,4.7,1.3,7.9,1.3
		c2.3,0,4.2-0.5,5.6-1.6c1.4-1.1,2.1-2.5,2.1-4.2c0-1.1-0.2-2-0.7-2.7c-0.5-0.7-1.2-1.4-2.2-1.9c-1-0.6-2.5-1.2-4.5-1.9
		c-2.9-1-4.9-2.1-6-3.3s-1.7-2.7-1.7-4.7c0-2.1,0.8-3.9,2.5-5.2c1.7-1.3,3.8-2,6.5-2c2.7,0,5.2,0.5,7.6,1.5l-0.7,1.7
		c-2.4-1-4.6-1.5-6.8-1.5c-2.1,0-3.8,0.5-5,1.5s-1.9,2.3-1.9,4c0,1.1,0.2,1.9,0.6,2.6c0.4,0.7,1,1.3,1.9,1.8
		c0.9,0.5,2.4,1.2,4.5,1.9c2.2,0.8,3.9,1.5,5,2.2c1.1,0.7,1.9,1.5,2.5,2.5C176.4,397.8,176.6,398.9,176.6,400.2z"/>
	<path class="st0" d="M202.7,407.6V379h2v26.7h13.6v1.9H202.7z"/>
	<path class="st0" d="M243.2,407.6V379h2v28.6H243.2z"/>
	<path class="st0" d="M294,407.6h-2l-16.9-25.4H275c0.2,3,0.2,5.3,0.2,6.8v18.5h-1.9V379h2l16.9,25.3h0.1c-0.1-2.3-0.2-4.6-0.2-6.7
		V379h1.9V407.6z"/>
	<path class="st0" d="M333.4,393.2h10.5v13c-2.8,1.2-5.9,1.8-9.3,1.8c-4.5,0-8-1.3-10.4-3.8s-3.6-6.1-3.6-10.8
		c0-2.9,0.6-5.5,1.8-7.7s2.9-4,5.1-5.2c2.2-1.2,4.8-1.8,7.6-1.8c3.1,0,5.9,0.6,8.4,1.7l-0.8,1.8c-2.5-1.1-5-1.7-7.7-1.7
		c-3.8,0-6.7,1.2-9,3.5s-3.3,5.5-3.3,9.4c0,4.3,1,7.5,3.1,9.7c2.1,2.2,5.2,3.3,9.2,3.3c2.6,0,4.9-0.4,6.7-1.1v-10h-8.5V393.2z"/>
	<path class="st0" d="M386.7,407.6h-15.6V379h15.6v1.8H373v10.8h12.9v1.8H373v12.2h13.6V407.6z"/>
	<path class="st0" d="M415.1,395.1v12.4h-2V379h6.8c3.5,0,6.2,0.7,7.9,2s2.5,3.3,2.5,5.9c0,1.9-0.5,3.5-1.5,4.8s-2.5,2.3-4.6,2.8
		l7.8,13h-2.4l-7.4-12.4H415.1z M415.1,393.4h5.4c2.4,0,4.3-0.5,5.6-1.6s2-2.7,2-4.8c0-2.2-0.7-3.8-2-4.7s-3.4-1.5-6.4-1.5h-4.7
		V393.4z"/>
	<path class="st0" d="M456.9,407.6V379h2v26.7h13.6v1.9H456.9z"/>
	<path class="st0" d="M511.2,397.5h-11.6l-4,10.1h-2.2l11.5-28.7h1.3l11.2,28.7h-2.2L511.2,397.5z M500.3,395.7h10.2l-3.9-10.3
		c-0.3-0.8-0.7-1.9-1.2-3.4c-0.4,1.2-0.7,2.4-1.2,3.4L500.3,395.7z"/>
	<path class="st0" d="M562.2,407.6h-2l-16.9-25.4h-0.2c0.2,3,0.2,5.3,0.2,6.8v18.5h-1.9V379h2l16.9,25.3h0.1
		c-0.1-2.3-0.2-4.6-0.2-6.7V379h1.9V407.6z"/>
	<path class="st0" d="M612,393c0,4.8-1.3,8.4-3.8,10.9s-6.2,3.7-11.1,3.7h-6.8V379h7.7c4.6,0,8,1.2,10.4,3.6S612,388.4,612,393z
		 M609.8,393.1c0-4.1-1-7.2-3.1-9.2s-5.1-3.1-9.2-3.1h-5.3v25h4.7C605.5,405.8,609.8,401.6,609.8,393.1z"/>
</g>
<polygon class="st0" points="475.8,303.1 427.5,328.5 427.5,242.9 475.8,218.6 "/>
<polygon class="st1" points="297.5,303.1 345.8,328.5 345.8,242.9 297.5,218.6 "/>
<polygon class="st1" points="386.6,199.1 386.6,255.9 297.7,208.9 297.7,153.9 "/>
<polygon class="st0" points="386.6,199.1 386.6,255.9 475.6,208.9 475.6,153.9 "/>
</svg>
