<?xml version="1.0" encoding="utf-8"?>
<!-- Generator: Adobe Illustrator 18.1.1, SVG Export Plug-In . SVG Version: 6.00 Build 0)  -->
<!DOCTYPE svg PUBLIC "-//W3C//DTD SVG 1.1//EN" "http://www.w3.org/Graphics/SVG/1.1/DTD/svg11.dtd">
<svg version="1.1" xmlns="http://www.w3.org/2000/svg" xmlns:xlink="http://www.w3.org/1999/xlink" x="0px" y="0px"
	 viewBox="0 0 600 400" enable-background="new 0 0 600 400" xml:space="preserve">
<g id="Layer_2" display="none" opacity="0.7">
	
		<image display="inline" overflow="visible" width="580" height="385" xlink:href="../../Parliment.jpg"  transform="matrix(2.8052 0 0 2.8052 -901.5 -340)">
	</image>
</g>
<g id="Mid_ground">
	<rect x="-89.5" y="-3" fill="#98D5E9" width="892.2" height="173.8"/>
	<polygon fill="#D1D3D3" points="157.8,70.5 157.8,67.2 134.4,67.2 134.4,63.9 27.5,63.9 27.5,67.2 -12.6,67.2 -12.6,70.5 
		-32.6,70.5 -32.6,73.9 -26,73.9 -26,77.2 44.2,77.2 44.2,80.3 147.8,80.3 147.8,77.2 161.2,77.2 161.2,73.9 171.2,73.9 171.2,70.5 
			"/>
	<rect x="-901.5" y="128" fill="#005CB9" width="2403" height="612"/>
	<polygon fill="#1D4F90" points="-89.5,170.8 -89.5,237.6 -49.4,237.6 -49.4,261 -46,261 -46,264.3 14.1,264.3 14.1,267.7 
		97.7,267.7 97.7,271 174.5,271 174.5,274.4 231.3,274.4 231.3,277.7 291.5,277.7 291.5,281 344.9,281 344.9,284.4 378.4,284.4 
		378.4,287.7 405.1,287.7 405.1,291.1 421.8,291.1 421.8,294.4 431.8,294.4 431.8,297.8 441.8,297.8 441.8,301.1 448.5,301.1 
		448.5,304.4 455.2,304.4 455.2,307.8 455.2,307.8 455.2,311.1 451.9,311.1 451.9,314.5 445.2,314.5 445.2,317.8 438.5,317.8 
		438.5,321.1 428.5,321.1 428.5,324.5 411.8,324.5 411.8,327.8 395.1,327.8 395.1,331.2 371.7,331.2 371.7,334.5 358.3,334.5 
		358.3,337.9 331.6,337.9 331.6,341.2 298.2,341.2 298.2,344.5 268.1,344.5 268.1,347.9 241.4,347.9 241.4,351.2 171.2,351.2 
		171.2,354.6 84.3,354.6 84.3,357.9 -65.3,357.9 -76.1,378 261.4,378 261.4,381.3 261.4,384.6 261.4,388 261.4,391.3 261.4,394.7 
		324.9,394.7 328.2,394.7 542.1,394.7 622.3,394.7 622.3,391.3 635.7,391.3 635.7,388 649,388 649,384.6 662.4,384.6 662.4,381.3 
		672.4,381.3 672.4,378 682.4,378 682.4,374.6 689.1,374.6 689.1,371.3 692.5,371.3 699.1,371.3 699.1,367.9 702.5,367.9 
		712.5,367.9 712.5,364.6 725.9,364.6 725.9,361.2 735.9,361.2 735.9,357.9 752.6,357.9 752.6,354.6 762.6,354.6 762.6,351.2 
		772.7,351.2 772.7,347.9 782.7,347.9 782.7,344.5 786,344.5 796,344.5 796,341.2 802.7,341.2 802.7,327.8 802.7,324.5 802.7,321.1 
		802.7,314.5 799.4,314.5 799.4,311.1 792.7,311.1 792.7,307.8 782.7,307.8 782.7,304.4 776,304.4 776,301.1 759.3,301.1 
		759.3,297.8 722.5,297.8 722.5,294.4 689.1,294.4 689.1,291.1 672.4,291.1 672.4,287.7 662.4,287.7 662.4,284.4 655.7,284.4 
		655.7,281 652.4,281 652.4,277.7 655.7,277.7 655.7,274.4 659,274.4 659,271 665.7,271 665.7,267.7 679.1,267.7 679.1,264.3 
		695.8,264.3 695.8,261 712.5,261 712.5,257.7 739.2,257.7 739.2,254.3 762.6,254.3 762.6,251 792.7,251 792.7,247.6 802.7,247.6 
		802.7,244.3 802.7,240.9 802.7,237.6 802.7,170.8 	"/>
	<polygon fill="#0075C9" points="254.7,311.1 254.7,307.8 238,307.8 238,304.4 221.3,304.4 221.3,301.1 191.2,301.1 191.2,297.8 
		60.9,297.8 60.9,301.1 50.9,301.1 50.9,304.4 37.5,304.4 37.5,307.8 24.2,307.8 24.2,311.1 4.1,311.1 4.1,314.5 -15.9,314.5 
		-15.9,311.1 -36,311.1 -36,307.8 -59.4,307.8 -59.4,304.4 -82.8,304.4 -82.8,307.8 -62.7,307.8 -62.7,311.1 -42.7,311.1 
		-42.7,314.5 -32.6,314.5 -32.6,317.8 -36,317.8 -36,321.1 -46,321.1 -46,324.5 -89.5,324.5 -89.5,327.8 -92.8,327.8 -92.8,331.2 
		-49.4,331.2 -49.4,327.8 -29.3,327.8 -29.3,324.5 -9.3,324.5 -9.3,321.1 14.1,321.1 14.1,324.5 44.2,324.5 44.2,327.8 211.3,327.8 
		211.3,324.5 241.4,324.5 241.4,321.1 254.7,321.1 254.7,317.8 261.4,317.8 261.4,314.5 268.1,314.5 268.1,311.1 	"/>
	<polygon fill="#003764" points="759.3,170.8 592.2,170.8 191.2,170.8 161.2,170.8 -89.5,170.8 -89.5,234.3 -9.3,234.3 -9.3,237.6 
		-12.6,237.6 -12.6,244.3 -12.6,244.3 -12.6,247.6 47.5,247.6 47.5,251 121.1,251 121.1,254.3 204.6,254.3 204.6,257.7 258.1,257.7 
		258.1,261 308.2,261 308.2,264.3 358.3,264.3 358.3,267.7 385,267.7 385,271 405.1,271 405.1,274.4 425.1,274.4 425.1,277.7 
		441.8,277.7 441.8,281 455.2,281 455.2,284.4 468.6,284.4 468.6,287.7 475.3,287.7 475.3,291.1 481.9,291.1 481.9,294.4 
		488.6,294.4 488.6,297.8 495.3,297.8 495.3,301.1 498.7,301.1 498.7,304.4 502,304.4 502,307.8 505.3,307.8 505.3,314.5 502,314.5 
		502,317.8 498.7,317.8 498.7,321.1 488.6,321.1 488.6,324.5 485.3,324.5 475.3,324.5 475.3,327.8 471.9,327.8 465.2,327.8 
		465.2,331.2 451.9,331.2 451.9,334.5 441.8,334.5 441.8,337.9 431.8,337.9 431.8,341.2 418.5,341.2 418.5,344.5 408.4,344.5 
		408.4,347.9 385,347.9 385,351.2 365,351.2 365,354.6 331.6,354.6 331.6,357.9 288.1,357.9 288.1,361.2 261.4,361.2 261.4,364.6 
		214.6,364.6 214.6,367.9 -89.5,367.9 -89.5,384.6 578.8,384.6 585.5,384.6 605.6,384.6 605.6,381.3 615.6,381.3 615.6,378 
		625.6,378 625.6,374.6 632.3,374.6 632.3,371.3 635.7,371.3 635.7,367.9 645.7,367.9 645.7,364.6 655.7,364.6 655.7,361.2 
		669.1,361.2 669.1,357.9 679.1,357.9 679.1,354.6 692.5,354.6 692.5,351.2 712.5,351.2 712.5,347.9 722.5,347.9 722.5,344.5 
		732.6,344.5 732.6,341.2 749.3,341.2 749.3,337.9 759.3,337.9 759.3,334.5 772.7,334.5 772.7,331.2 779.3,331.2 779.3,324.5 
		769.3,324.5 769.3,321.1 759.3,321.1 759.3,317.8 752.6,317.8 752.6,314.5 735.9,314.5 735.9,311.1 715.8,311.1 715.8,307.8 
		702.5,307.8 702.5,304.4 689.1,304.4 689.1,301.1 672.4,301.1 672.4,297.8 662.4,297.8 662.4,294.4 652.4,294.4 652.4,291.1 
		649,291.1 649,287.7 642.3,287.7 642.3,284.4 639,284.4 639,281 635.7,281 635.7,277.7 639,277.7 639,274.4 642.3,274.4 642.3,271 
		645.7,271 645.7,267.7 649,267.7 649,264.3 655.7,264.3 655.7,261 662.4,261 662.4,257.7 672.4,257.7 672.4,254.3 682.4,254.3 
		682.4,251 705.8,251 705.8,247.6 729.2,247.6 729.2,244.3 759.3,244.3 759.3,240.9 782.7,240.9 782.7,237.6 802.7,237.6 
		802.7,170.8 	"/>
	<polygon fill="#B07C57" points="211.3,307.8 211.3,304.4 177.9,304.4 177.9,301.4 74.3,301.4 74.3,304.4 54.2,304.4 54.2,307.8 
		47.5,307.8 47.5,311.1 50.9,311.1 50.9,317.8 57.6,317.8 57.6,321.1 77.6,321.1 77.6,324.5 167.8,324.5 167.8,321.1 204.6,321.1 
		204.6,317.8 224.6,317.8 224.6,307.8 	"/>
	<polygon fill="#B07C57" points="-42.7,314.5 -42.7,311.1 -62.7,311.1 -62.7,307.8 -76.1,307.8 -89.5,314.5 -89.5,317.8 
		-89.5,321.1 -89.5,324.5 -46,324.5 -46,321.1 -36,321.1 -36,317.8 -32.6,317.8 -32.6,314.5 	"/>
	<polygon fill="#65513C" points="-69.4,314.3 -69.4,311.1 -76.1,311.1 -76.1,314.3 -89.5,314.3 -89.5,317.8 -89.5,321.1 
		-62.7,321.1 -62.7,317.8 -49.4,317.8 -49.4,314.3 	"/>
	<polygon fill="#65513C" points="197.9,307.8 87.6,307.8 87.6,304.4 81,304.4 81,307.8 60.9,307.8 60.9,314.5 81,314.5 81,317.8 
		161.2,317.8 161.2,314.5 214.6,314.5 214.6,311.1 197.9,311.1 	"/>
	<g>
		<rect x="221.3" y="170.8" fill="#55565A" width="23.4" height="20"/>
		<rect x="244.7" y="170.8" fill="#646569" width="23.4" height="20"/>
		<rect x="254.7" y="137.4" fill="#77777A" width="13.4" height="53.5"/>
		<rect x="268.1" y="164.1" fill="#646569" width="16.7" height="26.7"/>
		<rect x="281.5" y="147.4" fill="#77777A" width="3.3" height="43.4"/>
		<rect x="144.5" y="180.8" fill="#646569" width="83.5" height="10"/>
		<rect x="50.9" y="164.1" fill="#4B4F54" width="30.1" height="13.4"/>
		<rect x="144.5" y="174.1" fill="#008065" width="83.5" height="6.7"/>
		<rect x="144.5" y="180.8" fill="#646569" width="23.4" height="10"/>
		<rect x="144.5" y="164.1" fill="#646569" width="23.4" height="10"/>
		<rect x="-19.3" y="157.4" fill="#646569" width="43.4" height="33.4"/>
		<polygon fill="#009877" points="141.1,134 141.1,130.7 137.8,130.7 137.8,127.3 134.4,127.3 134.4,140.7 137.8,140.7 141.1,140.7 
			144.5,140.7 144.5,134 		"/>
		<rect x="131.1" y="130.7" fill="#008065" width="3.3" height="10"/>
		<rect x="127.7" y="134" fill="#008065" width="3.3" height="6.7"/>
		<polygon fill="#00A98F" points="197.9,110.6 197.9,103.9 194.6,103.9 194.6,97.3 191.2,97.3 191.2,87.2 187.9,87.2 187.9,114 
			191.2,114 194.6,114 197.9,114 201.3,114 201.3,110.6 		"/>
		<polygon fill="#009877" points="184.6,97.3 184.6,103.9 181.2,103.9 181.2,110.6 177.9,110.6 177.9,114 181.2,114 184.6,114 
			187.9,114 187.9,97.3 		"/>
		<rect x="127.7" y="140.7" fill="#55565A" width="6.7" height="13.4"/>
		<rect x="134.4" y="140.7" fill="#646569" width="10" height="13.4"/>
		<rect x="128" y="140.7" fill="#4B4F54" width="3.1" height="13.4"/>
		<polygon fill="#009877" points="114.4,77.2 114.4,67.2 111,67.2 111,50.5 104.4,50.5 104.4,87.2 111,87.2 111.8,87.2 114.4,87.2 
			117.7,87.2 117.7,77.2 		"/>
		<rect x="101" y="67.2" fill="#008065" width="3.3" height="20"/>
		<rect x="97.7" y="77.2" fill="#008065" width="3.3" height="10"/>
		<rect x="94.3" y="90.6" fill="#008065" width="3.3" height="13.4"/>
		<rect x="117.7" y="90.6" fill="#009877" width="3.3" height="13.4"/>
		<rect x="94.3" y="103.9" fill="#55565A" width="3.3" height="46.8"/>
		<polygon fill="#77777A" points="117.7,103.9 117.7,87.2 97.7,87.2 97.7,150.7 117.7,150.7 121.1,150.7 121.1,103.9 		"/>
		<rect x="97.7" y="87.2" fill="#646569" width="6.7" height="63.5"/>
		<rect x="107.7" y="93.9" fill="#D1D3D3" width="6.7" height="6.7"/>
		<polygon fill="#009877" points="84.3,117.3 84.3,114 81,114 81,110.6 77.6,110.6 77.6,124 81,124 84.3,124 87.6,124 87.6,117.3 		
			"/>
		<rect x="74.3" y="114" fill="#008065" width="3.3" height="10"/>
		<rect x="70.9" y="117.3" fill="#008065" width="3.3" height="6.7"/>
		<polygon fill="#009877" points="47.5,114 47.5,110.6 44.2,110.6 44.2,107.3 40.9,107.3 40.9,120.7 44.2,120.7 47.5,120.7 
			50.9,120.7 50.9,114 		"/>
		<rect x="37.5" y="110.6" fill="#008065" width="3.3" height="10"/>
		<rect x="34.2" y="114" fill="#008065" width="3.3" height="6.7"/>
		<polygon fill="#009877" points="-5.9,150.7 -5.9,147.4 -9.3,147.4 -9.3,144 -12.6,144 -12.6,157.4 -9.3,157.4 -5.9,157.4 
			-2.6,157.4 -2.6,150.7 		"/>
		<polygon fill="#008065" points="-15.9,147.4 -15.9,150.7 -19.3,150.7 -19.3,157.4 -15.9,157.4 -12.6,157.4 -12.6,147.4 		"/>
		<polygon fill="#009877" points="20.8,150.7 20.8,147.4 17.5,147.4 17.5,144 14.1,144 14.1,140.7 4.1,140.7 4.1,157.4 14.1,157.4 
			17.5,157.4 20.8,157.4 24.2,157.4 24.2,150.7 		"/>
		<polygon fill="#008065" points="0.8,144 0.8,147.4 -2.6,147.4 -2.6,157.4 0.8,157.4 4.1,157.4 4.1,144 		"/>
		<polygon fill="#008065" points="67.6,157.4 67.6,154.1 64.3,154.1 64.3,150.7 60.9,150.7 60.9,147.4 57.6,147.4 57.6,144 
			50.9,144 50.9,164.1 57.6,164.1 60.9,164.1 64.3,164.1 67.6,164.1 70.9,164.1 70.9,157.4 		"/>
		<rect x="30.8" y="144" fill="#008065" width="3.3" height="20"/>
		<polygon fill="#006852" points="27.5,147.4 27.5,150.7 24.2,150.7 24.2,164.1 27.5,164.1 30.8,164.1 30.8,147.4 		"/>
		<rect x="70.9" y="124" fill="#55565A" width="6.7" height="40.1"/>
		<rect x="34.2" y="177.5" fill="#55565A" width="73.5" height="13.4"/>
		<rect x="70.9" y="124" fill="#646569" width="16.7" height="40.1"/>
		<rect x="77.6" y="164.1" fill="#646569" width="66.8" height="26.7"/>
		<rect x="81" y="154.1" fill="#008065" width="3.3" height="10"/>
		<polygon fill="#009877" points="151.1,154.1 151.1,150.7 84.3,150.7 84.3,164.1 151.1,164.1 154.5,164.1 154.5,154.1 		"/>
		<rect x="77.6" y="157.4" fill="#008065" width="3.3" height="6.7"/>
		<rect x="94.3" y="103.9" fill="#55565A" width="3.3" height="46.8"/>
		<rect x="70.9" y="124" fill="#4B4F54" width="3.3" height="53.5"/>
		<rect x="84.3" y="167.4" fill="#D1D3D3" width="3.3" height="6.7"/>
		<rect x="84.3" y="177.5" fill="#D1D3D3" width="3.3" height="6.7"/>
		<rect x="91" y="167.4" fill="#D1D3D3" width="3.3" height="6.7"/>
		<rect x="91" y="177.5" fill="#D1D3D3" width="3.3" height="6.7"/>
		<rect x="97.7" y="167.4" fill="#D1D3D3" width="3.3" height="6.7"/>
		<rect x="97.7" y="177.5" fill="#D1D3D3" width="3.3" height="6.7"/>
		<rect x="104.4" y="167.4" fill="#D1D3D3" width="3.3" height="6.7"/>
		<rect x="104.4" y="177.5" fill="#D1D3D3" width="3.3" height="6.7"/>
		<rect x="111" y="167.4" fill="#D1D3D3" width="3.3" height="6.7"/>
		<rect x="111" y="177.5" fill="#D1D3D3" width="3.3" height="6.7"/>
		<rect x="117.7" y="167.4" fill="#D1D3D3" width="3.3" height="6.7"/>
		<rect x="117.7" y="177.5" fill="#D1D3D3" width="3.3" height="6.7"/>
		<rect x="37.5" y="180.8" fill="#A4A9AD" width="3.3" height="6.7"/>
		<rect x="44.2" y="180.8" fill="#A4A9AD" width="3.3" height="6.7"/>
		<rect x="50.9" y="180.8" fill="#A4A9AD" width="3.3" height="6.7"/>
		<rect x="57.6" y="180.8" fill="#A4A9AD" width="3.3" height="6.7"/>
		<rect x="64.3" y="180.8" fill="#A4A9AD" width="3.3" height="6.7"/>
		<rect x="70.9" y="180.8" fill="#A4A9AD" width="3.3" height="6.7"/>
		<rect x="124.4" y="167.4" fill="#D1D3D3" width="3.3" height="6.7"/>
		<rect x="124.4" y="177.5" fill="#D1D3D3" width="3.3" height="6.7"/>
		<rect x="131.1" y="167.4" fill="#D1D3D3" width="3.3" height="6.7"/>
		<rect x="131.1" y="177.5" fill="#D1D3D3" width="3.3" height="6.7"/>
		<rect x="34.2" y="120.7" fill="#77777A" width="16.7" height="56.8"/>
		<rect x="37.5" y="120.7" fill="#646569" width="3.3" height="56.8"/>
		<rect x="34.2" y="120.7" fill="#55565A" width="3.3" height="56.8"/>
		<rect x="57.6" y="167.4" fill="#A4A9AD" width="6.7" height="6.7"/>
		<rect x="24.2" y="164.1" fill="#55565A" width="10" height="13.4"/>
		<rect x="228" y="137.4" fill="#77777A" width="13.4" height="30.1"/>
		<rect x="20.8" y="180.8" fill="#A4A9AD" width="6.7" height="10"/>
		<rect x="-2.6" y="157.4" fill="#4B4F54" width="3.3" height="33.4"/>
		<polygon fill="#646569" points="218,157.4 218,154.1 154.5,154.1 154.5,160.8 144.5,160.8 144.5,174.1 221.3,174.1 221.3,157.4 		
			"/>
		<polygon fill="#55565A" points="27.5,177.5 20.8,177.5 4.1,177.5 4.1,157.4 0.8,157.4 0.8,190.8 4.1,190.8 20.8,190.8 20.8,180.8 
			27.5,180.8 27.5,190.8 34.2,190.8 34.2,177.5 		"/>
		<polygon fill="#009877" points="241.4,167.4 241.4,164.1 238,164.1 238,160.8 234.7,160.8 234.7,157.4 221.3,157.4 221.3,170.8 
			234.7,170.8 238,170.8 241.4,170.8 244.7,170.8 244.7,167.4 		"/>
		<rect x="221.3" y="157.4" fill="#008065" width="10" height="13.4"/>
		<rect x="-19.3" y="157.4" fill="#4B4F54" width="3.3" height="33.4"/>
		<rect x="-15.9" y="157.4" fill="#55565A" width="3.3" height="33.4"/>
		<polygon fill="#4B4F54" points="224.6,157.4 224.6,160.8 218,160.8 218,157.4 214.6,157.4 214.6,160.8 204.6,160.8 204.6,157.4 
			201.3,157.4 201.3,160.8 187.9,160.8 187.9,157.4 184.6,157.4 184.6,160.8 171.2,160.8 171.2,157.4 167.8,157.4 167.8,160.8 
			157.8,160.8 157.8,157.4 154.5,157.4 154.5,160.8 147.8,160.8 147.8,157.4 144.5,157.4 144.5,160.8 144.5,164.1 144.5,190.8 
			147.8,190.8 147.8,170.8 151.1,170.8 151.1,167.4 154.5,167.4 154.5,190.8 157.8,190.8 157.8,170.8 161.2,170.8 161.2,167.4 
			164.5,167.4 164.5,164.1 167.8,164.1 167.8,190.8 171.2,190.8 171.2,167.4 174.5,167.4 174.5,164.1 184.6,164.1 184.6,190.8 
			187.9,190.8 187.9,164.1 197.9,164.1 197.9,167.4 201.3,167.4 201.3,190.8 204.6,190.8 204.6,164.1 207.9,164.1 207.9,167.4 
			211.3,167.4 211.3,170.8 214.6,170.8 214.6,190.8 218,190.8 218,167.4 221.3,167.4 221.3,170.8 224.6,170.8 224.6,190.8 
			228,190.8 228,164.1 228,160.8 228,157.4 		"/>
		<polygon fill="#009877" points="211.3,144 211.3,140.7 207.9,140.7 207.9,137.4 204.6,137.4 204.6,134 171.2,134 171.2,137.4 
			167.8,137.4 167.8,140.7 164.5,140.7 164.5,144 161.2,144 161.2,147.4 157.8,147.4 157.8,154.1 214.6,154.1 214.6,147.4 
			214.6,144 		"/>
		<rect x="157.8" y="147.4" fill="#006852" width="3.3" height="6.7"/>
		<rect x="161.2" y="144" fill="#006852" width="3.3" height="10"/>
		<rect x="164.5" y="140.7" fill="#008065" width="3.3" height="13.4"/>
		<rect x="167.8" y="137.4" fill="#008065" width="3.3" height="16.7"/>
		<rect x="147.8" y="174.1" fill="#006852" width="6.7" height="6.7"/>
		<rect x="171.2" y="134" fill="#77777A" width="13.4" height="26.7"/>
		<rect x="177.9" y="114" fill="#77777A" width="23.4" height="20"/>
		<rect x="177.9" y="114" fill="#55565A" width="3.3" height="20"/>
		<rect x="181.2" y="114" fill="#646569" width="6.7" height="20"/>
		<polygon fill="#00A98F" points="181.2,127.3 181.2,124 177.9,124 177.9,127.3 177.9,134 184.6,134 184.6,127.3 		"/>
		<rect x="171.2" y="127.3" fill="#009877" width="3.3" height="6.7"/>
		<rect x="174.5" y="124" fill="#009877" width="3.3" height="10"/>
		<polygon fill="#00A98F" points="238,130.7 238,127.3 234.7,127.3 234.7,130.7 234.7,137.4 241.4,137.4 241.4,130.7 		"/>
		<polygon fill="#009877" points="231.3,127.3 231.3,130.7 228,130.7 228,137.4 231.3,137.4 234.7,137.4 234.7,127.3 		"/>
		<polygon fill="#00A98F" points="264.7,130.7 264.7,127.3 261.4,127.3 261.4,130.7 261.4,137.4 268.1,137.4 268.1,130.7 		"/>
		<polygon fill="#009877" points="258.1,127.3 258.1,130.7 254.7,130.7 254.7,137.4 258.1,137.4 261.4,137.4 261.4,127.3 		"/>
		<rect x="278.1" y="150.7" fill="#00A98F" width="3.3" height="13.4"/>
		<rect x="274.8" y="134" fill="#00A98F" width="3.3" height="30.1"/>
		<rect x="271.4" y="120.7" fill="#00A98F" width="3.3" height="43.4"/>
		<rect x="268.1" y="134" fill="#009877" width="3.3" height="30.1"/>
		<rect x="268.1" y="164.1" fill="#55565A" width="3.3" height="26.7"/>
		<rect x="228" y="137.4" fill="#646569" width="6.7" height="20"/>
		<rect x="228" y="137.4" fill="#55565A" width="3.3" height="20"/>
		<rect x="254.7" y="137.4" fill="#646569" width="6.7" height="53.5"/>
		<rect x="254.7" y="137.4" fill="#55565A" width="3.3" height="53.5"/>
		<rect x="271.4" y="180.8" fill="#A4A9AD" width="6.7" height="10"/>
		<rect x="7.5" y="160.8" fill="#D1D3D3" width="3.3" height="6.7"/>
		<rect x="44.2" y="124" fill="#D1D3D3" width="3.3" height="6.7"/>
		<rect x="81" y="127.3" fill="#D1D3D3" width="3.3" height="6.7"/>
		<rect x="17.5" y="160.8" fill="#D1D3D3" width="3.3" height="6.7"/>
		<rect x="-9.3" y="160.8" fill="#D1D3D3" width="3.3" height="6.7"/>
		<rect x="174.5" y="134" fill="#646569" width="3.3" height="26.7"/>
		<rect x="171.2" y="134" fill="#55565A" width="3.3" height="26.7"/>
		<rect x="261.4" y="140.7" fill="#D1D3D3" width="3.3" height="6.7"/>
		<rect x="234.7" y="140.7" fill="#D1D3D3" width="3.3" height="6.7"/>
		<rect x="238" y="174.1" fill="#A4A9AD" width="3.3" height="6.7"/>
		<rect x="231.3" y="174.1" fill="#A4A9AD" width="3.3" height="6.7"/>
	</g>
	<rect x="27.5" y="190.8" fill="#4A7628" width="254" height="3.3"/>
	<polygon fill="#B07C57" points="-89.5,190.8 -89.5,194.2 -89.5,197.5 -89.5,200.9 -66.1,200.9 -66.1,197.5 -39.3,197.5 
		-39.3,194.2 27.5,194.2 27.5,190.8 	"/>
	<polygon fill="#3FAE2A" points="-89.5,197.5 -89.5,200.9 -89.5,204.2 301.5,204.2 301.5,200.9 304.8,200.9 304.8,197.5 	"/>
	<polygon fill="#4E9D2D" points="281.5,190.8 281.5,194.2 -89.5,194.2 -89.5,197.5 308.2,197.5 308.2,194.2 308.2,190.8 	"/>
	<polygon fill="#65513C" points="298.2,197.5 298.2,200.9 281.5,200.9 281.5,204.2 -89.5,204.2 -89.5,207.5 298.2,207.5 
		298.2,204.2 301.5,204.2 301.5,200.9 304.8,200.9 304.8,197.5 	"/>
	<rect x="304.8" y="194.2" fill="#65513C" width="3.3" height="3.3"/>
	<polygon fill="#3E3935" points="288.1,204.2 288.1,207.5 -89.5,207.5 -89.5,210.9 -89.5,211 -89.5,214.2 -89.5,217.6 -89.5,220.9 
		-89.5,221 -89.5,224.2 -89.5,224.8 -89.5,227.6 -89.5,227.7 -89.5,230.9 -89.5,231.1 -89.5,234.3 -89.5,234.6 -89.5,237.6 
		-89.5,237.7 -89.5,240.9 -89.5,244.3 -89.5,247.6 -89.5,251 -89.5,254.3 -89.5,257.7 -89.5,258 -89.5,261 -89.5,261.2 -89.5,264.3 
		-89.5,271 -89.5,274.4 -89.6,274.4 -89.6,277.7 -89.5,277.7 -89.5,281 -89.5,284.4 -89.5,291.1 -89.5,294.4 -89.5,301.1 
		-89.5,314.5 -76.1,314.5 -76.1,301.1 -72.7,301.1 -72.7,294.4 -69.4,294.4 -69.4,291.1 -66.1,291.1 -66.1,284.4 -62.7,284.4 
		-62.7,277.7 -59.4,277.7 -59.4,274.4 -52.7,274.4 -52.7,271 -49.4,271 -49.4,264.3 -46,264.3 -46,261.2 -42.7,261.2 -42.7,258 
		-36,258 -36,254.3 -29.3,254.3 -29.3,251 -19.3,251 -19.3,247.6 -12.6,247.6 -12.6,244.3 -5.9,244.3 -5.9,240.9 7.5,240.9 
		7.5,237.7 14.1,237.7 14.1,234.6 34.2,234.6 34.2,231.1 81,231.1 81,234.3 84.3,234.3 84.3,237.6 87.6,237.6 87.6,240.9 91,240.9 
		91,244.3 91,247.6 94.3,247.6 94.3,251 94.3,251.3 94.3,254.5 97.7,254.5 97.7,257.7 97.7,261 101,261 101,264.3 101,267.7 
		104.4,267.7 104.4,271 104.4,274.4 104.4,277.7 101,277.7 101,281 97.7,281 97.7,284.4 97.7,287.7 94.3,287.7 94.3,291.1 
		94.3,294.4 91,294.4 91,297.8 91,301.1 87.6,301.1 87.6,304.4 87.6,307.8 84.3,307.8 84.3,311.1 174.5,311.1 174.5,307.8 
		167.8,307.8 167.8,304.4 161.2,304.4 161.2,301.1 161.2,297.8 157.8,297.8 157.8,294.4 157.8,291.1 154.5,291.1 154.5,287.7 
		154.5,284.4 151.1,284.4 151.1,281 151.1,277.7 147.8,277.7 147.8,274.4 147.8,271 147.8,267.7 147.8,264.3 151.1,264.3 151.1,261 
		151.1,257.7 154.5,257.7 154.5,254.5 154.5,254.3 154.5,251.3 157.8,251.3 157.8,247.6 157.8,244.3 161.2,244.3 161.2,240.9 
		167.8,240.9 167.8,237.6 177.9,237.6 177.9,234.3 181.2,234.3 181.2,231.1 187.9,231.1 187.9,227.7 197.9,227.7 197.9,224.8 
		207.9,224.8 207.9,221 231.3,221 231.3,217.6 254.7,217.6 254.7,214.2 271.4,214.2 271.4,211 294.8,211 294.8,207.5 298.2,207.5 
		298.2,204.2 	"/>
	<polygon fill="#342E1F" points="-89.5,207.5 -89.5,210.9 -89.5,214.2 -89.5,217.6 -89.5,220.9 -89.5,224.2 -89.5,227.6 
		-89.5,230.9 -89.5,234.3 -89.5,237.6 -89.5,240.9 -89.5,244.3 -89.5,247.6 -89.5,251 -89.5,254.3 -89.5,256.8 -89.5,257.7 
		-89.5,261 -89.5,264.3 -89.5,271 -89.5,274.4 -89.5,281 -89.5,291.1 -86.1,291.1 -86.1,281 -82.8,281 -82.8,274.4 -79.4,274.4 
		-79.4,271 -76.1,271 -76.1,264.3 -72.7,264.3 -72.7,257.7 -69.4,257.7 -69.4,254.3 -66.1,254.3 -66.1,251 -62.7,251 -62.7,247.6 
		-56,247.6 -56,244.3 -49.4,244.3 -49.4,240.9 -39.3,240.9 -39.3,237.6 -32.6,237.6 -32.6,234.3 -12.6,234.3 -12.6,230.9 
		20.8,230.9 20.8,227.6 70.9,227.6 70.9,230.9 81,230.9 81,234.3 84.3,234.3 84.3,237.6 87.6,237.6 87.6,240.9 91,240.9 91,247.6 
		97.7,247.6 97.7,254.3 104.4,254.3 104.4,261 107.7,261 107.7,267.7 111,267.7 111,277.7 107.7,277.7 107.7,281 104.4,281 
		104.4,287.7 101,287.7 101,294.4 94.3,294.4 94.3,301.1 87.6,301.1 87.6,307.8 84.3,307.8 84.3,311.1 157.8,311.1 157.8,307.8 
		151.1,307.8 151.1,304.4 141.1,304.4 141.1,301.1 137.8,301.1 137.8,297.8 134.4,297.8 134.4,291.1 131.1,291.1 131.1,287.7 
		127.7,287.7 127.7,254.3 131.1,254.3 131.1,251 134.4,251 134.4,247.6 137.8,247.6 137.8,244.3 141.1,244.3 141.1,237.6 
		144.5,237.6 144.5,234.3 151.1,234.3 151.1,230.9 154.5,230.9 154.5,227.6 164.5,227.6 164.5,224.2 177.9,224.2 177.9,220.9 
		194.6,220.9 194.6,217.6 207.9,217.6 207.9,214.2 228,214.2 228,210.9 248,210.9 248,207.5 	"/>
	<polygon fill="#0075C9" points="729.2,264.3 729.2,267.7 705.8,267.7 705.8,271 695.8,271 695.8,274.4 699.1,274.4 699.1,277.7 
		719.2,277.7 719.2,281 739.2,281 739.2,284.4 772.7,284.4 772.7,287.7 802.7,287.7 802.7,274.4 802.7,271 802.7,267.7 806.1,267.7 
		806.1,264.3 	"/>
	<polygon fill="#D9A460" points="729.2,271 729.2,274.4 745.9,274.4 745.9,277.7 772.7,277.7 772.7,281 802.7,281 802.7,277.7 
		802.7,274.4 802.7,271 	"/>
	<polygon fill="#B07C57" points="739.2,267.7 739.2,271 755.9,271 755.9,274.4 786,274.4 786,277.7 802.7,277.7 802.7,274.4 
		802.7,271 802.7,267.7 	"/>
	<polygon fill="#83603F" points="745.9,264.3 745.9,267.7 762.6,267.7 762.6,271 802.7,271 802.7,267.7 802.7,264.3 	"/>
	<polygon fill="#3FAE2A" points="759.3,261 759.3,264.3 769.3,264.3 769.3,267.7 802.7,267.7 802.7,264.3 802.7,261 	"/>
	<rect x="91" y="37.1" fill="#FFFFFF" width="16.7" height="10"/>
	<rect x="91" y="37.1" fill="#CF0A2C" width="3.3" height="10"/>
	<rect x="104.4" y="37.1" fill="#CF0A2C" width="3.3" height="10"/>
	<polygon fill="#1D4F90" points="602.2,274.4 602.2,271 512,271 512,274.4 505.3,274.4 505.3,277.7 508.7,277.7 508.7,281 
		515.4,281 515.4,284.4 595.6,284.4 595.6,281 598.9,281 598.9,277.7 605.6,277.7 605.6,274.4 	"/>
	<rect x="97.7" y="40.5" fill="#CF0A2C" width="3.3" height="3.3"/>
	<polygon fill="#65513C" points="508.7,257.7 508.7,261 512,261 512,264.3 515.4,264.3 515.4,267.7 515.4,271 518.7,271 
		518.7,274.4 518.7,277.7 592.2,277.7 592.2,274.4 595.6,274.4 595.6,271 598.9,271 598.9,267.7 602.2,267.7 602.2,264.3 
		605.6,264.3 605.6,261 608.9,261 608.9,257.7 	"/>
	<polygon fill="#83603F" points="578.8,251 578.8,254.3 535.4,254.3 535.4,251 532.1,251 532.1,247.6 528.7,247.6 528.7,244.3 
		525.4,244.3 525.4,240.9 502,240.9 502,251 502,254.3 502,254.3 502,257.7 615.6,257.7 615.6,254.3 629,254.3 629,251 	"/>
	<rect x="618.9" y="247.6" fill="#83603F" width="3.3" height="3.3"/>
	<rect x="615.6" y="244.3" fill="#83603F" width="3.3" height="3.3"/>
	<rect x="612.3" y="240.9" fill="#83603F" width="3.3" height="3.3"/>
	<rect x="608.9" y="237.6" fill="#83603F" width="3.3" height="3.3"/>
	<rect x="605.6" y="234.3" fill="#83603F" width="3.3" height="3.3"/>
	<rect x="602.2" y="230.9" fill="#83603F" width="3.3" height="3.3"/>
	<rect x="598.9" y="227.6" fill="#83603F" width="3.3" height="3.3"/>
	<rect x="284.8" y="187.5" opacity="0.35" fill="#1E428A" width="517.9" height="3.3"/>
	<rect x="308.2" y="194.2" opacity="0.25" fill="#1E428A" width="494.5" height="3.3"/>
	<rect x="298.2" y="204.2" opacity="0.2" fill="#1E428A" width="504.6" height="3.4"/>
	<rect x="231.3" y="217.6" opacity="0.15" fill="#1E428A" width="571.4" height="3.4"/>
	<rect x="314.9" y="180.8" opacity="0.45" fill="#1E428A" width="487.9" height="3.6"/>
	<rect x="595.6" y="224.2" fill="#83603F" width="3.3" height="3.3"/>
	<rect x="592.2" y="220.9" fill="#83603F" width="3.3" height="3.3"/>
	<rect x="588.9" y="217.6" fill="#83603F" width="3.3" height="3.3"/>
	<rect x="585.5" y="214.2" fill="#83603F" width="3.3" height="3.3"/>
	<rect x="582.2" y="210.9" fill="#83603F" width="3.3" height="3.3"/>
	<rect x="578.8" y="207.5" fill="#83603F" width="3.3" height="3.3"/>
	<rect x="575.5" y="204.2" fill="#83603F" width="3.3" height="3.3"/>
	<rect x="438.5" y="177.5" opacity="0.6" fill="#1E428A" width="330.8" height="3.6"/>
	<rect x="502" y="174.1" opacity="0.75" fill="#1E428A" width="217.2" height="3.3"/>
	<rect x="578.8" y="170.8" fill="#1E428A" width="93.6" height="3.6"/>
	<rect x="572.2" y="200.9" fill="#83603F" width="3.3" height="3.3"/>
	<rect x="568.8" y="197.5" fill="#83603F" width="3.3" height="3.3"/>
	<rect x="548.8" y="177.5" fill="#65513C" width="3.3" height="76.9"/>
	<polygon fill="#D1D3D3" points="572.2,207.5 572.2,204.2 568.8,204.2 568.8,200.9 532.1,200.9 532.1,204.2 535.4,204.2 
		535.4,207.5 538.7,207.5 538.7,210.9 538.7,214.2 538.7,217.6 538.7,220.9 538.7,224.2 538.7,227.6 538.7,230.9 538.7,234.3 
		575.5,234.3 575.5,230.9 575.5,227.6 575.5,224.2 575.5,220.9 575.5,217.6 575.5,214.2 575.5,210.9 575.5,207.5 	"/>
	<rect x="535.4" y="234.3" fill="#A4A9AD" width="36.8" height="3.3"/>
	<rect x="532.1" y="237.6" fill="#A4A9AD" width="36.8" height="3.3"/>
	<rect x="565.5" y="194.2" fill="#83603F" width="3.3" height="3.3"/>
	<rect x="562.1" y="190.8" fill="#83603F" width="3.3" height="3.3"/>
	<rect x="558.8" y="187.5" fill="#83603F" width="3.3" height="3.3"/>
	<rect x="555.5" y="184.1" fill="#83603F" width="3.3" height="3.3"/>
	<rect x="552.1" y="180.8" fill="#83603F" width="3.3" height="3.3"/>
	<rect x="518.7" y="234.3" fill="#83603F" width="3.3" height="6.7"/>
	<rect x="522" y="227.6" fill="#83603F" width="3.3" height="6.7"/>
	<rect x="525.4" y="220.9" fill="#83603F" width="3.3" height="6.7"/>
	<rect x="528.7" y="214.2" fill="#83603F" width="3.3" height="6.7"/>
	<rect x="528.7" y="200.9" fill="#D1D3D3" width="3.3" height="3.3"/>
	<rect x="532.1" y="207.5" fill="#83603F" width="3.3" height="6.7"/>
	<rect x="538.7" y="194.2" fill="#83603F" width="3.3" height="6.7"/>
	<rect x="542.1" y="187.5" fill="#83603F" width="3.3" height="6.7"/>
	<rect x="545.4" y="180.8" fill="#83603F" width="3.3" height="6.7"/>
	<rect x="505.3" y="247.6" fill="#D1D3D3" width="3.3" height="6.7"/>
	<rect x="512" y="247.6" fill="#D1D3D3" width="3.3" height="6.7"/>
	<rect x="532.1" y="264.3" fill="#111820" width="3.3" height="3.3"/>
	<rect x="538.7" y="264.3" fill="#111820" width="3.3" height="3.3"/>
	<rect x="545.4" y="264.3" fill="#111820" width="3.3" height="3.3"/>
	<rect x="555.5" y="264.3" fill="#111820" width="3.3" height="3.3"/>
	<rect x="562.1" y="264.3" fill="#111820" width="3.3" height="3.3"/>
	<rect x="568.8" y="264.3" fill="#111820" width="3.3" height="3.3"/>
	<rect x="575.5" y="264.3" fill="#111820" width="3.3" height="3.3"/>
	<rect x="582.2" y="264.3" fill="#111820" width="3.3" height="3.3"/>
	<rect x="595.6" y="261" fill="#111820" width="3.3" height="3.3"/>
	<rect x="502" y="240.9" fill="#65513C" width="23.4" height="3.3"/>
	<rect x="535.4" y="251" fill="#65513C" width="43.4" height="3.3"/>
	<polygon fill="#FEDD3D" points="659,57.2 659,53.8 659,50.5 655.7,50.5 655.7,47.1 652.4,47.1 652.4,43.8 649,43.8 649,40.5 
		642.3,40.5 642.3,37.1 629,37.1 629,40.5 622.3,40.5 622.3,43.8 618.9,43.8 618.9,47.1 615.6,47.1 615.6,50.5 612.3,50.5 
		612.3,53.8 612.3,57.2 608.9,57.2 608.9,60.5 608.9,63.9 608.9,67.2 608.9,70.5 612.3,70.5 612.3,73.9 612.3,77.2 615.6,77.2 
		615.6,80.6 618.9,80.6 618.9,83.9 622.3,83.9 622.3,87.2 629,87.2 629,90.6 642.3,90.6 642.3,87.2 649,87.2 649,83.9 652.4,83.9 
		652.4,80.6 655.7,80.6 655.7,77.2 659,77.2 659,73.9 659,70.5 662.4,70.5 662.4,67.2 662.4,63.9 662.4,60.5 662.4,57.2 	"/>
	<rect x="234.7" y="23.8" fill="#D1D3D3" width="143.7" height="3.3"/>
	<rect x="194.6" y="27.1" fill="#D1D3D3" width="250.6" height="3.3"/>
	<rect x="174.5" y="30.4" fill="#D1D3D3" width="284" height="3.3"/>
	<rect x="181.2" y="33.8" fill="#D1D3D3" width="267.3" height="3.3"/>
	<rect x="251.4" y="37.1" fill="#D1D3D3" width="183.8" height="3.1"/>
</g>
<g id="Fore_ground">
	<polygon fill="#4E9D2D" points="44.2,331.2 44.2,327.8 44.2,324.5 40.9,324.5 40.9,321.1 40.9,317.8 37.5,317.8 37.5,314.5 
		34.2,314.5 34.2,311.1 27.5,311.1 27.5,307.8 17.5,307.8 17.5,304.4 -9.3,304.4 -9.3,307.8 -12.6,307.8 -12.6,311.1 -19.3,311.1 
		-19.3,314.5 -22.6,314.5 -22.6,317.8 -22.6,321.1 -26,321.1 -26,324.5 -26,327.8 -26,331.2 -22.6,331.2 -22.6,334.5 -22.6,337.9 
		-19.3,337.9 -19.3,341.2 -19.3,344.5 -19.3,347.9 -12.6,347.9 -12.6,351.2 30.8,351.2 30.8,347.9 40.9,347.9 40.9,344.5 
		44.2,344.5 44.2,341.2 44.2,337.9 47.5,337.9 47.5,334.5 47.5,331.2 	"/>
	<polygon fill="#4E9D2D" points="144.5,327.8 144.5,324.5 144.5,321.1 141.1,321.1 141.1,317.8 137.8,317.8 137.8,314.5 
		127.7,314.5 127.7,311.1 121.1,311.1 121.1,307.8 94.3,307.8 94.3,311.1 87.6,311.1 87.6,314.5 81,314.5 81,317.8 74.3,317.8 
		74.3,321.1 70.9,321.1 70.9,324.5 70.9,327.8 67.6,327.8 67.6,331.2 70.9,331.2 70.9,334.5 74.3,334.5 74.3,337.9 77.6,337.9 
		77.6,341.2 81,341.2 81,344.5 87.6,344.5 87.6,347.9 124.4,347.9 124.4,344.5 131.1,344.5 131.1,341.2 134.4,341.2 134.4,337.9 
		144.5,337.9 144.5,334.5 147.8,334.5 147.8,331.2 147.8,327.8 	"/>
	<polygon fill="#6CC04A" points="167.8,341.2 167.8,337.9 161.2,337.9 161.2,334.5 154.5,334.5 154.5,331.2 134.4,331.2 
		134.4,334.5 127.7,334.5 127.7,337.9 121.1,337.9 121.1,341.2 117.7,341.2 117.7,344.5 117.7,347.9 121.1,347.9 121.1,351.2 
		124.4,351.2 124.4,354.6 131.1,354.6 131.1,357.9 157.8,357.9 157.8,354.6 164.5,354.6 164.5,351.2 171.2,351.2 171.2,347.9 
		171.2,344.5 171.2,341.2 	"/>
	<polygon fill="#3FAE2A" points="97.7,337.9 97.7,334.5 97.7,331.2 94.3,331.2 94.3,327.8 94.3,324.5 94.3,321.1 91,321.1 91,317.8 
		84.3,317.8 84.3,314.5 77.6,314.5 77.6,311.1 60.9,311.1 60.9,314.5 54.2,314.5 54.2,317.8 47.5,317.8 47.5,321.1 44.2,321.1 
		44.2,324.5 40.9,324.5 40.9,327.8 37.5,327.8 37.5,331.2 37.5,334.5 34.2,334.5 34.2,337.9 34.2,341.2 37.5,341.2 37.5,344.5 
		40.9,344.5 40.9,347.9 47.5,347.9 47.5,351.2 91,351.2 91,347.9 97.7,347.9 97.7,344.5 101,344.5 101,341.2 101,337.9 	"/>
	<polygon fill="#3FAE2A" points="-22.6,331.2 -22.6,327.8 -22.6,324.5 -26,324.5 -26,321.1 -26,317.8 -29.3,317.8 -29.3,314.5 
		-32.6,314.5 -32.6,311.1 -39.3,311.1 -39.3,307.8 -49.4,307.8 -49.4,304.4 -76.1,304.4 -76.1,307.8 -79.4,307.8 -79.4,311.1 
		-86.1,311.1 -86.1,314.5 -89.5,314.5 -89.5,317.8 -89.5,321.1 -92.8,321.1 -92.8,324.5 -92.8,327.8 -92.8,331.2 -89.5,331.2 
		-89.5,334.5 -89.5,337.9 -86.1,337.9 -86.1,341.2 -86.1,344.5 -86.1,347.9 -79.4,347.9 -79.4,351.2 -36,351.2 -36,347.9 -26,347.9 
		-26,344.5 -22.6,344.5 -22.6,341.2 -22.6,337.9 -19.3,337.9 -19.3,334.5 -19.3,331.2 	"/>
	<polygon fill="#6CC04A" points="24.2,327.8 24.2,324.5 17.5,324.5 17.5,321.1 10.8,321.1 10.8,317.8 -9.3,317.8 -9.3,321.1 
		-15.9,321.1 -15.9,324.5 -22.6,324.5 -22.6,327.8 -26,327.8 -26,331.2 -26,334.5 -22.6,334.5 -22.6,337.9 -19.3,337.9 -19.3,341.2 
		-12.6,341.2 -12.6,344.5 14.1,344.5 14.1,341.2 20.8,341.2 20.8,337.9 27.5,337.9 27.5,334.5 27.5,331.2 27.5,327.8 	"/>
	<polygon fill="#6CC04A" points="-56,344.5 -56,341.2 -62.7,341.2 -62.7,337.9 -69.4,337.9 -69.4,334.5 -89.5,334.5 -89.5,337.9 
		-96.1,337.9 -96.1,341.2 -102.8,341.2 -102.8,344.5 -106.2,344.5 -106.2,347.9 -106.2,351.2 -102.8,351.2 -102.8,354.6 
		-99.5,354.6 -99.5,357.9 -92.8,357.9 -92.8,361.2 -66.1,361.2 -66.1,357.9 -59.4,357.9 -59.4,354.6 -52.7,354.6 -52.7,351.2 
		-52.7,347.9 -52.7,344.5 	"/>
	<polygon fill="#3FAE2A" points="201.3,344.5 201.3,341.2 197.9,341.2 197.9,337.9 197.9,334.5 194.6,334.5 194.6,331.2 
		187.9,331.2 187.9,327.8 167.8,327.8 167.8,331.2 164.5,331.2 164.5,334.5 157.8,334.5 157.8,337.9 154.5,337.9 154.5,341.2 
		151.1,341.2 151.1,344.5 151.1,347.9 154.5,347.9 154.5,351.2 157.8,351.2 157.8,354.6 161.2,354.6 161.2,357.9 167.8,357.9 
		167.8,361.2 191.2,361.2 191.2,357.9 194.6,357.9 194.6,354.6 201.3,354.6 201.3,351.2 204.6,351.2 204.6,347.9 204.6,344.5 	"/>
	<polygon fill="#3FAE2A" points="-9.3,341.2 -9.3,337.9 -12.6,337.9 -12.6,334.5 -12.6,331.2 -15.9,331.2 -15.9,327.8 -22.6,327.8 
		-22.6,324.5 -42.7,324.5 -42.7,327.8 -46,327.8 -46,331.2 -52.7,331.2 -52.7,334.5 -56,334.5 -56,337.9 -59.4,337.9 -59.4,341.2 
		-59.4,344.5 -56,344.5 -56,347.9 -52.7,347.9 -52.7,351.2 -49.4,351.2 -49.4,354.6 -42.7,354.6 -42.7,357.9 -19.3,357.9 
		-19.3,354.6 -15.9,354.6 -15.9,351.2 -9.3,351.2 -9.3,347.9 -5.9,347.9 -5.9,344.5 -5.9,341.2 	"/>
	<polygon fill="#4E9D2D" points="264.7,374.6 211.3,374.6 164.5,374.6 -89.5,374.6 -89.5,381.3 -89.5,388 -89.5,391.3 -89.5,394.7 
		-89.5,398 -42.7,398 -42.7,394.7 -15.9,394.7 -15.9,391.3 20.8,391.3 20.8,388 57.6,388 57.6,384.6 111,384.6 111,381.3 
		211.3,381.3 211.3,378 264.7,378 	"/>
	<rect x="-2.6" y="354.6" fill="#83603F" width="10" height="23.4"/>
	<polygon fill="#65513C" points="124.4,371.3 124.4,367.9 121.1,367.9 121.1,364.6 117.7,364.6 117.7,351.2 121.1,351.2 
		121.1,347.9 117.7,347.9 101,347.9 101,371.3 97.7,371.3 97.7,378 127.7,378 127.7,371.3 	"/>
	<rect x="-39.3" y="354.6" fill="#65513C" width="13.4" height="23.4"/>
	<polygon fill="#3FAE2A" points="47.5,344.5 47.5,341.2 47.5,337.9 47.5,334.5 44.2,334.5 44.2,331.2 37.5,331.2 37.5,327.8 
		30.8,327.8 30.8,324.5 14.1,324.5 14.1,327.8 7.5,327.8 7.5,331.2 0.8,331.2 0.8,334.5 -2.6,334.5 -2.6,337.9 -5.9,337.9 
		-5.9,341.2 -9.3,341.2 -9.3,344.5 -9.3,347.9 -5.9,347.9 -5.9,351.2 -5.9,354.6 -2.6,354.6 -2.6,357.9 0.8,357.9 0.8,361.2 
		40.9,361.2 40.9,357.9 44.2,357.9 44.2,354.6 47.5,354.6 47.5,351.2 50.9,351.2 50.9,347.9 50.9,344.5 	"/>
	<rect x="-52.7" y="367.9" fill="#83603F" width="10" height="13.4"/>
	<polygon fill="#6CC04A" points="-22.6,351.2 -22.6,347.9 -29.3,347.9 -29.3,344.5 -36,344.5 -36,341.2 -56,341.2 -56,344.5 
		-62.7,344.5 -62.7,347.9 -69.4,347.9 -69.4,351.2 -72.7,351.2 -72.7,354.6 -72.7,357.9 -69.4,357.9 -69.4,361.2 -66.1,361.2 
		-66.1,364.6 -59.4,364.6 -59.4,367.9 -32.6,367.9 -32.6,364.6 -26,364.6 -26,361.2 -19.3,361.2 -19.3,357.9 -19.3,354.6 
		-19.3,351.2 	"/>
	<polygon fill="#3FAE2A" points="-52.7,367.9 -52.7,364.6 -52.7,361.2 -52.7,357.9 -56,357.9 -56,354.6 -62.7,354.6 -62.7,351.2 
		-69.4,351.2 -69.4,347.9 -86.1,347.9 -86.1,351.2 -92.8,351.2 -92.8,354.6 -99.5,354.6 -99.5,357.9 -102.8,357.9 -102.8,361.2 
		-106.2,361.2 -106.2,364.6 -109.5,364.6 -109.5,367.9 -109.5,371.3 -106.2,371.3 -106.2,374.6 -106.2,378 -102.8,378 -102.8,381.3 
		-99.5,381.3 -99.5,384.6 -59.4,384.6 -59.4,381.3 -56,381.3 -56,378 -52.7,378 -52.7,374.6 -49.4,374.6 -49.4,371.3 -49.4,367.9 	
		"/>
	<polygon fill="#65513C" points="776,381.3 776,384.6 735.9,384.6 735.9,388 692.5,388 692.5,391.3 532.1,391.3 532.1,388 
		461.9,388 461.9,384.6 421.8,384.6 421.8,381.3 375,381.3 375,378 321.6,378 321.6,374.6 264.7,374.6 264.7,378 211.3,378 
		211.3,381.3 111,381.3 111,384.6 57.6,384.6 57.6,388 20.8,388 20.8,391.3 -15.9,391.3 -15.9,394.7 -42.7,394.7 -42.7,398 
		57.6,398 64.3,398 338.3,398 461.9,398 802.7,398 802.7,394.7 802.7,391.3 802.7,388 802.7,384.6 802.7,381.3 	"/>
	<polygon fill="#83603F" points="535.4,394.7 535.4,391.3 458.6,391.3 458.6,388 421.8,388 421.8,384.6 398.4,384.6 398.4,381.3 
		324.9,381.3 324.9,378 321.6,378 321.6,374.6 274.8,374.6 274.8,378 251.4,378 251.4,381.3 214.6,381.3 214.6,384.6 111,384.6 
		111,388 60.9,388 60.9,391.3 17.5,391.3 17.5,394.7 -12.6,394.7 -12.6,398 802.7,398 802.7,394.7 	"/>
	<rect x="692.5" y="391.3" fill="#83603F" width="110.3" height="3.3"/>
	<rect x="739.2" y="388" fill="#83603F" width="63.5" height="3.3"/>
	<rect x="776" y="384.6" fill="#83603F" width="26.7" height="3.3"/>
	<polygon fill="#B07C57" points="455.2,394.7 455.2,391.5 415.1,391.5 415.1,388.1 388.4,388.1 388.4,384.6 321.6,384.6 
		321.6,381.3 318.2,381.3 318.2,374.6 278.1,374.6 278.1,381.3 258.1,381.3 258.1,384.6 221.3,384.6 221.3,388.1 117.7,388.1 
		117.7,391.5 64.3,391.5 64.3,394.7 24.2,394.7 24.2,398 528.7,398 528.7,394.7 	"/>
	<polygon fill="#B07C57" points="786,388 786,391.3 742.6,391.3 742.6,394.7 699.1,394.7 699.1,398 802.7,398 802.7,394.7 
		802.7,391.3 802.7,388 	"/>
	<polygon fill="#D9A460" points="378.4,394.7 378.4,391.3 341.6,391.3 341.6,388 314.9,388 314.9,384.6 314.9,381.3 311.5,381.3 
		311.5,378 281.5,378 281.5,381.3 274.8,381.3 274.8,384.6 271.4,384.6 271.4,388 244.7,388 244.7,391.3 181.2,391.3 181.2,394.7 
		134.4,394.7 134.4,398 401.7,398 401.7,394.7 	"/>
	<polygon fill="#4E9D2D" points="321.6,374.6 321.6,378 375,378 375,381.3 421.8,381.3 421.8,384.6 461.9,384.6 461.9,388 
		532.1,388 532.1,391.3 692.5,391.3 692.5,388 735.9,388 735.9,384.6 776,384.6 776,381.3 802.7,381.3 802.7,378 802.7,374.6 	"/>
	<polygon fill="#65513C" points="24.2,361.2 24.2,364.6 17.5,364.6 17.5,361.2 10.8,361.2 10.8,364.6 14.1,364.6 14.1,381.3 
		27.5,381.3 27.5,364.6 34.2,364.6 34.2,361.2 	"/>
	<polygon fill="#65513C" points="-69.4,384.6 -76.1,384.6 -76.1,388 -79.4,388 -79.4,384.6 -82.8,384.6 -82.8,398 -69.4,398 
		-69.4,388 -66.1,388 -66.1,384.6 	"/>
	<polygon fill="#65513C" points="488.6,357.9 488.6,351.2 471.9,351.2 471.9,378 488.6,378 488.6,374.6 485.3,374.6 485.3,357.9 	
		"/>
	<g>
		<polygon fill="#83603F" points="74.3,354.6 74.3,351.2 67.6,351.2 67.6,354.6 60.9,354.6 60.9,351.2 54.2,351.2 54.2,354.6 
			57.6,354.6 57.6,378 74.3,378 74.3,371.3 70.9,371.3 70.9,361.2 74.3,361.2 74.3,357.9 81,357.9 81,354.6 		"/>
		<rect x="81" y="351.2" fill="#83603F" width="3.3" height="3.3"/>
	</g>
	<polygon fill="#6CC04A" points="60.9,347.9 60.9,344.5 67.6,344.5 67.6,341.2 74.3,341.2 74.3,337.9 94.3,337.9 94.3,341.2 
		101,341.2 101,344.5 107.7,344.5 107.7,347.9 111,347.9 111,351.2 111,354.6 107.7,354.6 107.7,357.9 104.4,357.9 104.4,361.2 
		97.7,361.2 97.7,364.6 70.9,364.6 70.9,361.2 64.3,361.2 64.3,357.9 57.6,357.9 57.6,354.6 57.6,351.2 57.6,347.9 	"/>
	<polygon fill="#4E9D2D" points="532.1,331.2 532.1,327.8 532.1,324.5 535.4,324.5 535.4,321.1 535.4,317.8 538.7,317.8 
		538.7,314.5 542.1,314.5 542.1,311.1 548.8,311.1 548.8,307.8 558.8,307.8 558.8,304.4 585.5,304.4 585.5,307.8 588.9,307.8 
		588.9,311.1 595.6,311.1 595.6,314.5 598.9,314.5 598.9,317.8 598.9,321.1 602.2,321.1 602.2,324.5 602.2,327.8 602.2,331.2 
		598.9,331.2 598.9,334.5 598.9,337.9 595.6,337.9 595.6,341.2 595.6,344.5 595.6,347.9 588.9,347.9 588.9,351.2 545.4,351.2 
		545.4,347.9 535.4,347.9 535.4,344.5 532.1,344.5 532.1,341.2 532.1,337.9 528.7,337.9 528.7,334.5 528.7,331.2 	"/>
	<polygon fill="#3FAE2A" points="598.9,321.1 598.9,317.8 598.9,314.5 598.9,311.1 602.2,311.1 602.2,307.8 608.9,307.8 
		608.9,304.4 615.6,304.4 615.6,301.1 632.3,301.1 632.3,304.4 639,304.4 639,307.8 645.7,307.8 645.7,311.1 649,311.1 649,314.5 
		652.4,314.5 652.4,317.8 655.7,317.8 655.7,321.1 655.7,324.5 652.4,324.5 652.4,327.8 652.4,331.2 649,331.2 649,334.5 
		645.7,334.5 645.7,337.9 605.6,337.9 605.6,334.5 602.2,334.5 602.2,331.2 598.9,331.2 598.9,327.8 595.6,327.8 595.6,324.5 
		595.6,321.1 	"/>
	<polygon fill="#4E9D2D" points="448.5,331.2 448.5,327.8 448.5,324.5 451.9,324.5 451.9,321.1 455.2,321.1 455.2,317.8 
		465.2,317.8 465.2,314.5 471.9,314.5 471.9,311.1 498.7,311.1 498.7,314.5 505.3,314.5 505.3,317.8 512,317.8 512,321.1 
		518.7,321.1 518.7,324.5 522,324.5 522,327.8 522,331.2 525.4,331.2 525.4,334.5 522,334.5 522,337.9 518.7,337.9 518.7,341.2 
		515.4,341.2 515.4,344.5 512,344.5 512,347.9 505.3,347.9 505.3,351.2 468.6,351.2 468.6,347.9 461.9,347.9 461.9,344.5 
		458.6,344.5 458.6,341.2 448.5,341.2 448.5,337.9 445.2,337.9 445.2,334.5 445.2,331.2 	"/>
	<polygon fill="#6CC04A" points="428.5,344.5 428.5,341.2 435.2,341.2 435.2,337.9 441.8,337.9 441.8,334.5 461.9,334.5 
		461.9,337.9 468.6,337.9 468.6,341.2 475.3,341.2 475.3,344.5 478.6,344.5 478.6,347.9 478.6,351.2 475.3,351.2 475.3,354.6 
		471.9,354.6 471.9,357.9 465.2,357.9 465.2,361.2 438.5,361.2 438.5,357.9 431.8,357.9 431.8,354.6 425.1,354.6 425.1,351.2 
		425.1,347.9 425.1,344.5 	"/>
	<polygon fill="#3FAE2A" points="495.3,341.2 495.3,337.9 495.3,334.5 498.7,334.5 498.7,331.2 498.7,327.8 498.7,324.5 502,324.5 
		502,321.1 508.7,321.1 508.7,317.8 515.4,317.8 515.4,314.5 532.1,314.5 532.1,317.8 538.7,317.8 538.7,321.1 545.4,321.1 
		545.4,324.5 548.8,324.5 548.8,327.8 552.1,327.8 552.1,331.2 555.5,331.2 555.5,334.5 555.5,337.9 558.8,337.9 558.8,341.2 
		558.8,344.5 555.5,344.5 555.5,347.9 552.1,347.9 552.1,351.2 545.4,351.2 545.4,354.6 502,354.6 502,351.2 495.3,351.2 
		495.3,347.9 492,347.9 492,344.5 492,341.2 	"/>
	<polygon fill="#4E9D2D" points="635.7,334.5 635.7,331.2 635.7,327.8 639,327.8 639,324.5 639,321.1 642.3,321.1 642.3,317.8 
		645.7,317.8 645.7,314.5 652.4,314.5 652.4,311.1 662.4,311.1 662.4,307.8 689.1,307.8 689.1,311.1 692.5,311.1 692.5,314.5 
		699.1,314.5 699.1,317.8 702.5,317.8 702.5,321.1 702.5,324.5 705.8,324.5 705.8,327.8 705.8,331.2 705.8,334.5 702.5,334.5 
		702.5,337.9 702.5,341.2 699.1,341.2 699.1,344.5 699.1,347.9 699.1,351.2 692.5,351.2 692.5,354.6 649,354.6 649,351.2 639,351.2 
		639,347.9 635.7,347.9 635.7,344.5 635.7,341.2 632.3,341.2 632.3,337.9 632.3,334.5 	"/>
	<polygon fill="#4E9D2D" points="742.6,337.9 742.6,334.5 742.6,331.2 745.9,331.2 745.9,327.8 745.9,324.5 749.3,324.5 
		749.3,321.1 752.6,321.1 752.6,317.8 759.3,317.8 759.3,314.5 769.3,314.5 769.3,311.1 796,311.1 796,314.5 799.4,314.5 
		799.4,317.8 806.1,317.8 806.1,321.1 809.4,321.1 809.4,324.5 809.4,327.8 812.8,327.8 812.8,331.2 812.8,334.5 812.8,337.9 
		809.4,337.9 809.4,341.2 809.4,344.5 806.1,344.5 806.1,347.9 806.1,351.2 806.1,354.6 799.4,354.6 799.4,357.9 755.9,357.9 
		755.9,354.6 745.9,354.6 745.9,351.2 742.6,351.2 742.6,347.9 742.6,344.5 739.2,344.5 739.2,341.2 739.2,337.9 	"/>
	<rect x="588.9" y="351.2" fill="#65513C" width="10" height="26.7"/>
	<polygon fill="#6CC04A" points="568.8,331.2 568.8,327.8 575.5,327.8 575.5,324.5 582.2,324.5 582.2,321.1 602.2,321.1 
		602.2,324.5 608.9,324.5 608.9,327.8 615.6,327.8 615.6,331.2 618.9,331.2 618.9,334.5 618.9,337.9 615.6,337.9 615.6,341.2 
		612.3,341.2 612.3,344.5 605.6,344.5 605.6,347.9 578.8,347.9 578.8,344.5 572.2,344.5 572.2,341.2 565.5,341.2 565.5,337.9 
		565.5,334.5 565.5,331.2 	"/>
	<polygon fill="#3FAE2A" points="649,347.9 649,344.5 655.7,344.5 655.7,341.2 662.4,341.2 662.4,337.9 682.4,337.9 682.4,341.2 
		689.1,341.2 689.1,344.5 695.8,344.5 695.8,347.9 699.1,347.9 699.1,351.2 699.1,354.6 695.8,354.6 695.8,357.9 692.5,357.9 
		692.5,361.2 685.8,361.2 685.8,364.6 659,364.6 659,361.2 652.4,361.2 652.4,357.9 645.7,357.9 645.7,354.6 645.7,351.2 
		645.7,347.9 	"/>
	<polygon fill="#65513C" points="789.4,361.2 789.4,357.9 772.7,357.9 772.7,378 789.4,378 789.4,374.6 786,374.6 786,361.2 	"/>
	<polygon fill="#3FAE2A" points="391.7,351.2 391.7,347.9 395.1,347.9 395.1,344.5 395.1,341.2 398.4,341.2 398.4,337.9 
		405.1,337.9 405.1,334.5 425.1,334.5 425.1,337.9 428.5,337.9 428.5,341.2 435.2,341.2 435.2,344.5 438.5,344.5 438.5,347.9 
		441.8,347.9 441.8,351.2 441.8,354.6 438.5,354.6 438.5,357.9 435.2,357.9 435.2,361.2 431.8,361.2 431.8,364.6 425.1,364.6 
		425.1,367.9 401.7,367.9 401.7,364.6 398.4,364.6 398.4,361.2 391.7,361.2 391.7,357.9 388.4,357.9 388.4,354.6 388.4,351.2 	"/>
	<rect x="618.9" y="357.9" fill="#65513C" width="13.4" height="20"/>
	<polygon fill="#3FAE2A" points="602.2,344.5 602.2,341.2 605.6,341.2 605.6,337.9 605.6,334.5 608.9,334.5 608.9,331.2 
		615.6,331.2 615.6,327.8 635.7,327.8 635.7,331.2 639,331.2 639,334.5 645.7,334.5 645.7,337.9 649,337.9 649,341.2 652.4,341.2 
		652.4,344.5 652.4,347.9 649,347.9 649,351.2 645.7,351.2 645.7,354.6 642.3,354.6 642.3,357.9 635.7,357.9 635.7,361.2 
		612.3,361.2 612.3,357.9 608.9,357.9 608.9,354.6 602.2,354.6 602.2,351.2 598.9,351.2 598.9,347.9 598.9,344.5 	"/>
	<polygon fill="#3FAE2A" points="545.4,347.9 545.4,344.5 545.4,341.2 545.4,337.9 548.8,337.9 548.8,334.5 555.5,334.5 
		555.5,331.2 562.1,331.2 562.1,327.8 578.8,327.8 578.8,331.2 585.5,331.2 585.5,334.5 592.2,334.5 592.2,337.9 595.6,337.9 
		595.6,341.2 598.9,341.2 598.9,344.5 602.2,344.5 602.2,347.9 602.2,351.2 598.9,351.2 598.9,354.6 598.9,357.9 595.6,357.9 
		595.6,361.2 592.2,361.2 592.2,364.6 552.1,364.6 552.1,361.2 548.8,361.2 548.8,357.9 545.4,357.9 545.4,354.6 542.1,354.6 
		542.1,351.2 542.1,347.9 	"/>
	<polygon fill="#3FAE2A" points="776,344.5 776,341.2 776,337.9 776,334.5 779.3,334.5 779.3,331.2 786,331.2 786,327.8 
		792.7,327.8 792.7,324.5 809.4,324.5 809.4,327.8 816.1,327.8 816.1,331.2 822.8,331.2 822.8,334.5 826.1,334.5 826.1,337.9 
		829.5,337.9 829.5,341.2 832.8,341.2 832.8,344.5 832.8,347.9 829.5,347.9 829.5,351.2 829.5,354.6 826.1,354.6 826.1,357.9 
		822.8,357.9 822.8,361.2 782.7,361.2 782.7,357.9 779.3,357.9 779.3,354.6 776,354.6 776,351.2 772.7,351.2 772.7,347.9 
		772.7,344.5 	"/>
	<polygon fill="#4E9D2D" points="705.8,337.9 705.8,334.5 705.8,331.2 705.8,327.8 709.2,327.8 709.2,324.5 715.8,324.5 
		715.8,321.1 722.5,321.1 722.5,317.8 739.2,317.8 739.2,321.1 745.9,321.1 745.9,324.5 752.6,324.5 752.6,327.8 755.9,327.8 
		755.9,331.2 759.3,331.2 759.3,334.5 762.6,334.5 762.6,337.9 762.6,341.2 759.3,341.2 759.3,344.5 759.3,347.9 755.9,347.9 
		755.9,351.2 752.6,351.2 752.6,354.6 712.5,354.6 712.5,351.2 709.2,351.2 709.2,347.9 705.8,347.9 705.8,344.5 702.5,344.5 
		702.5,341.2 702.5,337.9 	"/>
	<polygon fill="#6CC04A" points="615.6,354.6 615.6,351.2 622.3,351.2 622.3,347.9 629,347.9 629,344.5 649,344.5 649,347.9 
		655.7,347.9 655.7,351.2 662.4,351.2 662.4,354.6 665.7,354.6 665.7,357.9 665.7,361.2 662.4,361.2 662.4,364.6 659,364.6 
		659,367.9 652.4,367.9 652.4,371.3 625.6,371.3 625.6,367.9 618.9,367.9 618.9,364.6 612.3,364.6 612.3,361.2 612.3,357.9 
		612.3,354.6 	"/>
	<polygon fill="#65513C" points="538.7,354.6 538.7,357.9 535.4,357.9 535.4,354.6 518.7,354.6 518.7,378 535.4,378 535.4,361.2 
		542.1,361.2 542.1,357.9 542.1,354.6 	"/>
	<polygon fill="#3FAE2A" points="685.8,344.5 685.8,341.2 685.8,337.9 685.8,334.5 689.1,334.5 689.1,331.2 695.8,331.2 
		695.8,327.8 702.5,327.8 702.5,324.5 719.2,324.5 719.2,327.8 725.9,327.8 725.9,331.2 732.6,331.2 732.6,334.5 735.9,334.5 
		735.9,337.9 739.2,337.9 739.2,341.2 742.6,341.2 742.6,344.5 742.6,347.9 739.2,347.9 739.2,351.2 739.2,354.6 735.9,354.6 
		735.9,357.9 732.6,357.9 732.6,361.2 692.5,361.2 692.5,357.9 689.1,357.9 689.1,354.6 685.8,354.6 685.8,351.2 682.4,351.2 
		682.4,347.9 682.4,344.5 	"/>
	<polygon fill="#6CC04A" points="528.7,351.2 528.7,347.9 522,347.9 522,344.5 515.4,344.5 515.4,341.2 495.3,341.2 495.3,344.5 
		488.6,344.5 488.6,347.9 481.9,347.9 481.9,351.2 478.6,351.2 478.6,354.6 478.6,357.9 481.9,357.9 481.9,361.2 485.3,361.2 
		485.3,364.6 492,364.6 492,367.9 518.7,367.9 518.7,364.6 525.4,364.6 525.4,361.2 532.1,361.2 532.1,357.9 532.1,354.6 
		532.1,351.2 	"/>
	<polygon fill="#83603F" points="141.1,357.9 137.8,357.9 137.8,361.2 141.1,361.2 141.1,378 151.1,378 151.1,357.9 	"/>
	<polygon fill="#6CC04A" points="735.9,347.9 735.9,344.5 742.6,344.5 742.6,341.2 749.3,341.2 749.3,337.9 769.3,337.9 
		769.3,341.2 776,341.2 776,344.5 782.7,344.5 782.7,347.9 786,347.9 786,351.2 786,354.6 782.7,354.6 782.7,357.9 779.3,357.9 
		779.3,361.2 772.7,361.2 772.7,364.6 745.9,364.6 745.9,361.2 739.2,361.2 739.2,357.9 732.6,357.9 732.6,354.6 732.6,351.2 
		732.6,347.9 	"/>
	<g>
		<polygon fill="#83603F" points="181.2,361.2 181.2,364.6 174.5,364.6 174.5,378 184.6,378 184.6,364.6 187.9,364.6 187.9,361.2 		
			"/>
		<rect x="171.2" y="361.2" fill="#83603F" width="3.3" height="3.3"/>
	</g>
	<polygon fill="#83603F" points="87.6,364.6 77.6,364.6 77.6,381.3 87.6,381.3 87.6,367.9 91,367.9 91,364.6 	"/>
	<rect x="408.4" y="367.9" fill="#83603F" width="10" height="10"/>
	<polygon fill="#65513C" points="451.9,361.2 441.8,361.2 441.8,378 451.9,378 451.9,364.6 455.2,364.6 455.2,361.2 	"/>
	<polygon fill="#83603F" points="502,367.9 498.7,367.9 498.7,371.3 502,371.3 502,382.8 511.5,382.8 511.5,367.9 	"/>
	<polygon fill="#83603F" points="565.5,364.6 558.8,364.6 558.8,367.9 562.1,367.9 562.1,371.3 565.5,371.3 565.5,384.6 
		578.8,384.6 578.8,364.6 	"/>
	<polygon fill="#83603F" points="635.7,371.3 632.3,371.3 632.3,374.6 635.7,374.6 635.7,388 645.7,388 645.7,371.3 	"/>
	<rect x="665.7" y="364.6" fill="#83603F" width="10" height="13.4"/>
	<polygon fill="#65513C" points="719.2,361.2 702.5,361.2 695.8,361.2 695.8,364.6 702.5,364.6 702.5,367.9 705.8,367.9 
		705.8,374.6 702.5,374.6 702.5,378 719.2,378 719.2,364.6 722.5,364.6 722.5,361.2 	"/>
	<g>
		<rect x="766" y="364.6" fill="#83603F" width="3.3" height="3.3"/>
		<polygon fill="#83603F" points="762.6,367.9 762.6,364.6 755.9,364.6 752.6,364.6 752.6,367.9 755.9,367.9 755.9,381.3 
			762.6,381.3 762.6,371.3 766,371.3 766,367.9 		"/>
	</g>
	<g>
		<polygon fill="#83603F" points="796,361.2 796,364.6 792.7,364.6 792.7,367.9 796,367.9 796,378 806.1,378 806.1,361.2 		"/>
		<rect x="789.4" y="361.2" fill="#83603F" width="3.3" height="3.3"/>
	</g>
	<rect x="-1.5" y="-7" opacity="0.5" fill="#232222" width="603" height="405"/>
</g>
<g id="Background">
	
		<linearGradient id="SVGID_1_" gradientUnits="userSpaceOnUse" x1="-240" y1="200" x2="840" y2="200" gradientTransform="matrix(4.489700e-11 1 -1 4.489700e-11 500 -100)">
		<stop  offset="0" style="stop-color:#0082CB"/>
		<stop  offset="1" style="stop-color:#9BE7D8"/>
	</linearGradient>
	<rect x="-901.5" y="-340" display="none" fill="url(#SVGID_1_)" width="2403" height="1080"/>
</g>
</svg>
