<?xml version="1.0" encoding="utf-8"?>
<!-- Generator: Adobe Illustrator 18.1.1, SVG Export Plug-In . SVG Version: 6.00 Build 0)  -->
<!DOCTYPE svg PUBLIC "-//W3C//DTD SVG 1.1//EN" "http://www.w3.org/Graphics/SVG/1.1/DTD/svg11.dtd">
<svg version="1.1" xmlns="http://www.w3.org/2000/svg" xmlns:xlink="http://www.w3.org/1999/xlink" x="0px" y="0px"
	 viewBox="0 0 400 400" enable-background="new 0 0 400 400" xml:space="preserve">
<g id="Layer_2" display="none" opacity="0.7">
	
		<image display="inline" overflow="visible" width="580" height="385" xlink:href="../../Parliment.jpg"  transform="matrix(2.8052 0 0 2.8052 -1001.5 -340)">
	</image>
</g>
<g id="Mid_ground">
	<rect x="-72.5" y="-3" fill="#98D5E9" width="892.2" height="173.8"/>
	<polygon fill="#D1D3D3" points="174.8,70.5 174.8,67.2 151.4,67.2 151.4,63.9 44.5,63.9 44.5,67.2 4.4,67.2 4.4,70.5 -15.6,70.5 
		-15.6,73.9 -9,73.9 -9,77.2 61.2,77.2 61.2,80.3 164.8,80.3 164.8,77.2 178.2,77.2 178.2,73.9 188.2,73.9 188.2,70.5 	"/>
	<rect x="-1001.5" y="128" fill="#005CB9" width="2403" height="612"/>
	<polygon fill="#1D4F90" points="-72.5,170.8 -72.5,237.6 -32.4,237.6 -32.4,261 -29,261 -29,264.3 31.1,264.3 31.1,267.7 
		114.7,267.7 114.7,271 191.5,271 191.5,274.4 248.3,274.4 248.3,277.7 308.5,277.7 308.5,281 361.9,281 361.9,284.4 395.4,284.4 
		395.4,287.7 422.1,287.7 422.1,291.1 438.8,291.1 438.8,294.4 448.8,294.4 448.8,297.8 458.8,297.8 458.8,301.1 465.5,301.1 
		465.5,304.4 472.2,304.4 472.2,307.8 472.2,307.8 472.2,311.1 468.9,311.1 468.9,314.5 462.2,314.5 462.2,317.8 455.5,317.8 
		455.5,321.1 445.5,321.1 445.5,324.5 428.8,324.5 428.8,327.8 412.1,327.8 412.1,331.2 388.7,331.2 388.7,334.5 375.3,334.5 
		375.3,337.9 348.6,337.9 348.6,341.2 315.2,341.2 315.2,344.5 285.1,344.5 285.1,347.9 258.4,347.9 258.4,351.2 188.2,351.2 
		188.2,354.6 101.3,354.6 101.3,357.9 -48.3,357.9 -59.1,378 278.4,378 278.4,381.3 278.4,384.6 278.4,388 278.4,391.3 278.4,394.7 
		341.9,394.7 345.2,394.7 559.1,394.7 639.3,394.7 639.3,391.3 652.7,391.3 652.7,388 666,388 666,384.6 679.4,384.6 679.4,381.3 
		689.4,381.3 689.4,378 699.4,378 699.4,374.6 706.1,374.6 706.1,371.3 709.5,371.3 716.1,371.3 716.1,367.9 719.5,367.9 
		729.5,367.9 729.5,364.6 742.9,364.6 742.9,361.2 752.9,361.2 752.9,357.9 769.6,357.9 769.6,354.6 779.6,354.6 779.6,351.2 
		789.7,351.2 789.7,347.9 799.7,347.9 799.7,344.5 803,344.5 813,344.5 813,341.2 819.7,341.2 819.7,327.8 819.7,324.5 819.7,321.1 
		819.7,314.5 816.4,314.5 816.4,311.1 809.7,311.1 809.7,307.8 799.7,307.8 799.7,304.4 793,304.4 793,301.1 776.3,301.1 
		776.3,297.8 739.5,297.8 739.5,294.4 706.1,294.4 706.1,291.1 689.4,291.1 689.4,287.7 679.4,287.7 679.4,284.4 672.7,284.4 
		672.7,281 669.4,281 669.4,277.7 672.7,277.7 672.7,274.4 676,274.4 676,271 682.7,271 682.7,267.7 696.1,267.7 696.1,264.3 
		712.8,264.3 712.8,261 729.5,261 729.5,257.7 756.2,257.7 756.2,254.3 779.6,254.3 779.6,251 809.7,251 809.7,247.6 819.7,247.6 
		819.7,244.3 819.7,240.9 819.7,237.6 819.7,170.8 	"/>
	<polygon fill="#0075C9" points="271.7,311.1 271.7,307.8 255,307.8 255,304.4 238.3,304.4 238.3,301.1 208.2,301.1 208.2,297.8 
		77.9,297.8 77.9,301.1 67.9,301.1 67.9,304.4 54.5,304.4 54.5,307.8 41.2,307.8 41.2,311.1 21.1,311.1 21.1,314.5 1.1,314.5 
		1.1,311.1 -19,311.1 -19,307.8 -42.4,307.8 -42.4,304.4 -65.8,304.4 -65.8,307.8 -45.7,307.8 -45.7,311.1 -25.7,311.1 -25.7,314.5 
		-15.6,314.5 -15.6,317.8 -19,317.8 -19,321.1 -29,321.1 -29,324.5 -72.5,324.5 -72.5,327.8 -75.8,327.8 -75.8,331.2 -32.4,331.2 
		-32.4,327.8 -12.3,327.8 -12.3,324.5 7.7,324.5 7.7,321.1 31.1,321.1 31.1,324.5 61.2,324.5 61.2,327.8 228.3,327.8 228.3,324.5 
		258.4,324.5 258.4,321.1 271.7,321.1 271.7,317.8 278.4,317.8 278.4,314.5 285.1,314.5 285.1,311.1 	"/>
	<polygon fill="#003764" points="776.3,170.8 609.2,170.8 208.2,170.8 178.2,170.8 -72.5,170.8 -72.5,234.3 7.7,234.3 7.7,237.6 
		4.4,237.6 4.4,244.3 4.4,244.3 4.4,247.6 64.6,247.6 64.6,251 138.1,251 138.1,254.3 221.6,254.3 221.6,257.7 275.1,257.7 
		275.1,261 325.2,261 325.2,264.3 375.3,264.3 375.3,267.7 402,267.7 402,271 422.1,271 422.1,274.4 442.1,274.4 442.1,277.7 
		458.8,277.7 458.8,281 472.2,281 472.2,284.4 485.6,284.4 485.6,287.7 492.3,287.7 492.3,291.1 498.9,291.1 498.9,294.4 
		505.6,294.4 505.6,297.8 512.3,297.8 512.3,301.1 515.7,301.1 515.7,304.4 519,304.4 519,307.8 522.3,307.8 522.3,314.5 519,314.5 
		519,317.8 515.7,317.8 515.7,321.1 505.6,321.1 505.6,324.5 502.3,324.5 492.3,324.5 492.3,327.8 488.9,327.8 482.2,327.8 
		482.2,331.2 468.9,331.2 468.9,334.5 458.8,334.5 458.8,337.9 448.8,337.9 448.8,341.2 435.5,341.2 435.5,344.5 425.4,344.5 
		425.4,347.9 402,347.9 402,351.2 382,351.2 382,354.6 348.6,354.6 348.6,357.9 305.1,357.9 305.1,361.2 278.4,361.2 278.4,364.6 
		231.6,364.6 231.6,367.9 -72.5,367.9 -72.5,384.6 595.8,384.6 602.5,384.6 622.6,384.6 622.6,381.3 632.6,381.3 632.6,378 
		642.6,378 642.6,374.6 649.3,374.6 649.3,371.3 652.7,371.3 652.7,367.9 662.7,367.9 662.7,364.6 672.7,364.6 672.7,361.2 
		686.1,361.2 686.1,357.9 696.1,357.9 696.1,354.6 709.5,354.6 709.5,351.2 729.5,351.2 729.5,347.9 739.5,347.9 739.5,344.5 
		749.6,344.5 749.6,341.2 766.3,341.2 766.3,337.9 776.3,337.9 776.3,334.5 789.7,334.5 789.7,331.2 796.3,331.2 796.3,324.5 
		786.3,324.5 786.3,321.1 776.3,321.1 776.3,317.8 769.6,317.8 769.6,314.5 752.9,314.5 752.9,311.1 732.8,311.1 732.8,307.8 
		719.5,307.8 719.5,304.4 706.1,304.4 706.1,301.1 689.4,301.1 689.4,297.8 679.4,297.8 679.4,294.4 669.4,294.4 669.4,291.1 
		666,291.1 666,287.7 659.3,287.7 659.3,284.4 656,284.4 656,281 652.7,281 652.7,277.7 656,277.7 656,274.4 659.3,274.4 659.3,271 
		662.7,271 662.7,267.7 666,267.7 666,264.3 672.7,264.3 672.7,261 679.4,261 679.4,257.7 689.4,257.7 689.4,254.3 699.4,254.3 
		699.4,251 722.8,251 722.8,247.6 746.2,247.6 746.2,244.3 776.3,244.3 776.3,240.9 799.7,240.9 799.7,237.6 819.7,237.6 
		819.7,170.8 	"/>
	<polygon fill="#B07C57" points="228.3,307.8 228.3,304.4 194.9,304.4 194.9,301.4 91.3,301.4 91.3,304.4 71.2,304.4 71.2,307.8 
		64.6,307.8 64.6,311.1 67.9,311.1 67.9,317.8 74.6,317.8 74.6,321.1 94.6,321.1 94.6,324.5 184.8,324.5 184.8,321.1 221.6,321.1 
		221.6,317.8 241.6,317.8 241.6,307.8 	"/>
	<polygon fill="#B07C57" points="-25.7,314.5 -25.7,311.1 -45.7,311.1 -45.7,307.8 -59.1,307.8 -72.5,314.5 -72.5,317.8 
		-72.5,321.1 -72.5,324.5 -29,324.5 -29,321.1 -19,321.1 -19,317.8 -15.6,317.8 -15.6,314.5 	"/>
	<polygon fill="#65513C" points="-52.4,314.3 -52.4,311.1 -59.1,311.1 -59.1,314.3 -72.5,314.3 -72.5,317.8 -72.5,321.1 
		-45.7,321.1 -45.7,317.8 -32.4,317.8 -32.4,314.3 	"/>
	<polygon fill="#65513C" points="214.9,307.8 104.6,307.8 104.6,304.4 98,304.4 98,307.8 77.9,307.8 77.9,314.5 98,314.5 98,317.8 
		178.2,317.8 178.2,314.5 231.6,314.5 231.6,311.1 214.9,311.1 	"/>
	<g>
		<rect x="238.3" y="170.8" fill="#55565A" width="23.4" height="20"/>
		<rect x="261.7" y="170.8" fill="#646569" width="23.4" height="20"/>
		<rect x="271.7" y="137.4" fill="#77777A" width="13.4" height="53.5"/>
		<rect x="285.1" y="164.1" fill="#646569" width="16.7" height="26.7"/>
		<rect x="298.5" y="147.4" fill="#77777A" width="3.3" height="43.4"/>
		<rect x="161.5" y="180.8" fill="#646569" width="83.5" height="10"/>
		<rect x="67.9" y="164.1" fill="#4B4F54" width="30.1" height="13.4"/>
		<rect x="161.5" y="174.1" fill="#008065" width="83.5" height="6.7"/>
		<rect x="161.5" y="180.8" fill="#646569" width="23.4" height="10"/>
		<rect x="161.5" y="164.1" fill="#646569" width="23.4" height="10"/>
		<rect x="-2.3" y="157.4" fill="#646569" width="43.4" height="33.4"/>
		<polygon fill="#009877" points="158.1,134 158.1,130.7 154.8,130.7 154.8,127.3 151.4,127.3 151.4,140.7 154.8,140.7 158.1,140.7 
			161.5,140.7 161.5,134 		"/>
		<rect x="148.1" y="130.7" fill="#008065" width="3.3" height="10"/>
		<rect x="144.7" y="134" fill="#008065" width="3.3" height="6.7"/>
		<polygon fill="#00A98F" points="214.9,110.6 214.9,103.9 211.6,103.9 211.6,97.3 208.2,97.3 208.2,87.2 204.9,87.2 204.9,114 
			208.2,114 211.6,114 214.9,114 218.3,114 218.3,110.6 		"/>
		<polygon fill="#009877" points="201.6,97.3 201.6,103.9 198.2,103.9 198.2,110.6 194.9,110.6 194.9,114 198.2,114 201.6,114 
			204.9,114 204.9,97.3 		"/>
		<rect x="144.7" y="140.7" fill="#55565A" width="6.7" height="13.4"/>
		<rect x="151.4" y="140.7" fill="#646569" width="10" height="13.4"/>
		<rect x="145" y="140.7" fill="#4B4F54" width="3.1" height="13.4"/>
		<polygon fill="#009877" points="131.4,77.2 131.4,67.2 128,67.2 128,50.5 121.4,50.5 121.4,87.2 128,87.2 128.8,87.2 131.4,87.2 
			134.7,87.2 134.7,77.2 		"/>
		<rect x="118" y="67.2" fill="#008065" width="3.3" height="20"/>
		<rect x="114.7" y="77.2" fill="#008065" width="3.3" height="10"/>
		<rect x="111.3" y="90.6" fill="#008065" width="3.3" height="13.4"/>
		<rect x="134.7" y="90.6" fill="#009877" width="3.3" height="13.4"/>
		<rect x="111.3" y="103.9" fill="#55565A" width="3.3" height="46.8"/>
		<polygon fill="#77777A" points="134.7,103.9 134.7,87.2 114.7,87.2 114.7,150.7 134.7,150.7 138.1,150.7 138.1,103.9 		"/>
		<rect x="114.7" y="87.2" fill="#646569" width="6.7" height="63.5"/>
		<rect x="124.7" y="93.9" fill="#D1D3D3" width="6.7" height="6.7"/>
		<polygon fill="#009877" points="101.3,117.3 101.3,114 98,114 98,110.6 94.6,110.6 94.6,124 98,124 101.3,124 104.6,124 
			104.6,117.3 		"/>
		<rect x="91.3" y="114" fill="#008065" width="3.3" height="10"/>
		<rect x="87.9" y="117.3" fill="#008065" width="3.3" height="6.7"/>
		<polygon fill="#009877" points="64.6,114 64.6,110.6 61.2,110.6 61.2,107.3 57.9,107.3 57.9,120.7 61.2,120.7 64.6,120.7 
			67.9,120.7 67.9,114 		"/>
		<rect x="54.5" y="110.6" fill="#008065" width="3.3" height="10"/>
		<rect x="51.2" y="114" fill="#008065" width="3.3" height="6.7"/>
		<polygon fill="#009877" points="11.1,150.7 11.1,147.4 7.7,147.4 7.7,144 4.4,144 4.4,157.4 7.7,157.4 11.1,157.4 14.4,157.4 
			14.4,150.7 		"/>
		<polygon fill="#008065" points="1.1,147.4 1.1,150.7 -2.3,150.7 -2.3,157.4 1.1,157.4 4.4,157.4 4.4,147.4 		"/>
		<polygon fill="#009877" points="37.8,150.7 37.8,147.4 34.5,147.4 34.5,144 31.1,144 31.1,140.7 21.1,140.7 21.1,157.4 
			31.1,157.4 34.5,157.4 37.8,157.4 41.2,157.4 41.2,150.7 		"/>
		<polygon fill="#008065" points="17.8,144 17.8,147.4 14.4,147.4 14.4,157.4 17.8,157.4 21.1,157.4 21.1,144 		"/>
		<polygon fill="#008065" points="84.6,157.4 84.6,154.1 81.3,154.1 81.3,150.7 77.9,150.7 77.9,147.4 74.6,147.4 74.6,144 
			67.9,144 67.9,164.1 74.6,164.1 77.9,164.1 81.3,164.1 84.6,164.1 87.9,164.1 87.9,157.4 		"/>
		<rect x="47.8" y="144" fill="#008065" width="3.3" height="20"/>
		<polygon fill="#006852" points="44.5,147.4 44.5,150.7 41.2,150.7 41.2,164.1 44.5,164.1 47.8,164.1 47.8,147.4 		"/>
		<rect x="87.9" y="124" fill="#55565A" width="6.7" height="40.1"/>
		<rect x="51.2" y="177.5" fill="#55565A" width="73.5" height="13.4"/>
		<rect x="87.9" y="124" fill="#646569" width="16.7" height="40.1"/>
		<rect x="94.6" y="164.1" fill="#646569" width="66.8" height="26.7"/>
		<rect x="98" y="154.1" fill="#008065" width="3.3" height="10"/>
		<polygon fill="#009877" points="168.1,154.1 168.1,150.7 101.3,150.7 101.3,164.1 168.1,164.1 171.5,164.1 171.5,154.1 		"/>
		<rect x="94.6" y="157.4" fill="#008065" width="3.3" height="6.7"/>
		<rect x="111.3" y="103.9" fill="#55565A" width="3.3" height="46.8"/>
		<rect x="87.9" y="124" fill="#4B4F54" width="3.3" height="53.5"/>
		<rect x="101.3" y="167.4" fill="#D1D3D3" width="3.3" height="6.7"/>
		<rect x="101.3" y="177.5" fill="#D1D3D3" width="3.3" height="6.7"/>
		<rect x="108" y="167.4" fill="#D1D3D3" width="3.3" height="6.7"/>
		<rect x="108" y="177.5" fill="#D1D3D3" width="3.3" height="6.7"/>
		<rect x="114.7" y="167.4" fill="#D1D3D3" width="3.3" height="6.7"/>
		<rect x="114.7" y="177.5" fill="#D1D3D3" width="3.3" height="6.7"/>
		<rect x="121.4" y="167.4" fill="#D1D3D3" width="3.3" height="6.7"/>
		<rect x="121.4" y="177.5" fill="#D1D3D3" width="3.3" height="6.7"/>
		<rect x="128" y="167.4" fill="#D1D3D3" width="3.3" height="6.7"/>
		<rect x="128" y="177.5" fill="#D1D3D3" width="3.3" height="6.7"/>
		<rect x="134.7" y="167.4" fill="#D1D3D3" width="3.3" height="6.7"/>
		<rect x="134.7" y="177.5" fill="#D1D3D3" width="3.3" height="6.7"/>
		<rect x="54.5" y="180.8" fill="#A4A9AD" width="3.3" height="6.7"/>
		<rect x="61.2" y="180.8" fill="#A4A9AD" width="3.3" height="6.7"/>
		<rect x="67.9" y="180.8" fill="#A4A9AD" width="3.3" height="6.7"/>
		<rect x="74.6" y="180.8" fill="#A4A9AD" width="3.3" height="6.7"/>
		<rect x="81.3" y="180.8" fill="#A4A9AD" width="3.3" height="6.7"/>
		<rect x="87.9" y="180.8" fill="#A4A9AD" width="3.3" height="6.7"/>
		<rect x="141.4" y="167.4" fill="#D1D3D3" width="3.3" height="6.7"/>
		<rect x="141.4" y="177.5" fill="#D1D3D3" width="3.3" height="6.7"/>
		<rect x="148.1" y="167.4" fill="#D1D3D3" width="3.3" height="6.7"/>
		<rect x="148.1" y="177.5" fill="#D1D3D3" width="3.3" height="6.7"/>
		<rect x="51.2" y="120.7" fill="#77777A" width="16.7" height="56.8"/>
		<rect x="54.5" y="120.7" fill="#646569" width="3.3" height="56.8"/>
		<rect x="51.2" y="120.7" fill="#55565A" width="3.3" height="56.8"/>
		<rect x="74.6" y="167.4" fill="#A4A9AD" width="6.7" height="6.7"/>
		<rect x="41.2" y="164.1" fill="#55565A" width="10" height="13.4"/>
		<rect x="245" y="137.4" fill="#77777A" width="13.4" height="30.1"/>
		<rect x="37.8" y="180.8" fill="#A4A9AD" width="6.7" height="10"/>
		<rect x="14.4" y="157.4" fill="#4B4F54" width="3.3" height="33.4"/>
		<polygon fill="#646569" points="235,157.4 235,154.1 171.5,154.1 171.5,160.8 161.5,160.8 161.5,174.1 238.3,174.1 238.3,157.4 		
			"/>
		<polygon fill="#55565A" points="44.5,177.5 37.8,177.5 21.1,177.5 21.1,157.4 17.8,157.4 17.8,190.8 21.1,190.8 37.8,190.8 
			37.8,180.8 44.5,180.8 44.5,190.8 51.2,190.8 51.2,177.5 		"/>
		<polygon fill="#009877" points="258.4,167.4 258.4,164.1 255,164.1 255,160.8 251.7,160.8 251.7,157.4 238.3,157.4 238.3,170.8 
			251.7,170.8 255,170.8 258.4,170.8 261.7,170.8 261.7,167.4 		"/>
		<rect x="238.3" y="157.4" fill="#008065" width="10" height="13.4"/>
		<rect x="-2.3" y="157.4" fill="#4B4F54" width="3.3" height="33.4"/>
		<rect x="1.1" y="157.4" fill="#55565A" width="3.3" height="33.4"/>
		<polygon fill="#4B4F54" points="241.6,157.4 241.6,160.8 235,160.8 235,157.4 231.6,157.4 231.6,160.8 221.6,160.8 221.6,157.4 
			218.3,157.4 218.3,160.8 204.9,160.8 204.9,157.4 201.6,157.4 201.6,160.8 188.2,160.8 188.2,157.4 184.8,157.4 184.8,160.8 
			174.8,160.8 174.8,157.4 171.5,157.4 171.5,160.8 164.8,160.8 164.8,157.4 161.5,157.4 161.5,160.8 161.5,164.1 161.5,190.8 
			164.8,190.8 164.8,170.8 168.1,170.8 168.1,167.4 171.5,167.4 171.5,190.8 174.8,190.8 174.8,170.8 178.2,170.8 178.2,167.4 
			181.5,167.4 181.5,164.1 184.8,164.1 184.8,190.8 188.2,190.8 188.2,167.4 191.5,167.4 191.5,164.1 201.6,164.1 201.6,190.8 
			204.9,190.8 204.9,164.1 214.9,164.1 214.9,167.4 218.3,167.4 218.3,190.8 221.6,190.8 221.6,164.1 224.9,164.1 224.9,167.4 
			228.3,167.4 228.3,170.8 231.6,170.8 231.6,190.8 235,190.8 235,167.4 238.3,167.4 238.3,170.8 241.6,170.8 241.6,190.8 
			245,190.8 245,164.1 245,160.8 245,157.4 		"/>
		<polygon fill="#009877" points="228.3,144 228.3,140.7 224.9,140.7 224.9,137.4 221.6,137.4 221.6,134 188.2,134 188.2,137.4 
			184.8,137.4 184.8,140.7 181.5,140.7 181.5,144 178.2,144 178.2,147.4 174.8,147.4 174.8,154.1 231.6,154.1 231.6,147.4 
			231.6,144 		"/>
		<rect x="174.8" y="147.4" fill="#006852" width="3.3" height="6.7"/>
		<rect x="178.2" y="144" fill="#006852" width="3.3" height="10"/>
		<rect x="181.5" y="140.7" fill="#008065" width="3.3" height="13.4"/>
		<rect x="184.8" y="137.4" fill="#008065" width="3.3" height="16.7"/>
		<rect x="164.8" y="174.1" fill="#006852" width="6.7" height="6.7"/>
		<rect x="188.2" y="134" fill="#77777A" width="13.4" height="26.7"/>
		<rect x="194.9" y="114" fill="#77777A" width="23.4" height="20"/>
		<rect x="194.9" y="114" fill="#55565A" width="3.3" height="20"/>
		<rect x="198.2" y="114" fill="#646569" width="6.7" height="20"/>
		<polygon fill="#00A98F" points="198.2,127.3 198.2,124 194.9,124 194.9,127.3 194.9,134 201.6,134 201.6,127.3 		"/>
		<rect x="188.2" y="127.3" fill="#009877" width="3.3" height="6.7"/>
		<rect x="191.5" y="124" fill="#009877" width="3.3" height="10"/>
		<polygon fill="#00A98F" points="255,130.7 255,127.3 251.7,127.3 251.7,130.7 251.7,137.4 258.4,137.4 258.4,130.7 		"/>
		<polygon fill="#009877" points="248.3,127.3 248.3,130.7 245,130.7 245,137.4 248.3,137.4 251.7,137.4 251.7,127.3 		"/>
		<polygon fill="#00A98F" points="281.7,130.7 281.7,127.3 278.4,127.3 278.4,130.7 278.4,137.4 285.1,137.4 285.1,130.7 		"/>
		<polygon fill="#009877" points="275.1,127.3 275.1,130.7 271.7,130.7 271.7,137.4 275.1,137.4 278.4,137.4 278.4,127.3 		"/>
		<rect x="295.1" y="150.7" fill="#00A98F" width="3.3" height="13.4"/>
		<rect x="291.8" y="134" fill="#00A98F" width="3.3" height="30.1"/>
		<rect x="288.4" y="120.7" fill="#00A98F" width="3.3" height="43.4"/>
		<rect x="285.1" y="134" fill="#009877" width="3.3" height="30.1"/>
		<rect x="285.1" y="164.1" fill="#55565A" width="3.3" height="26.7"/>
		<rect x="245" y="137.4" fill="#646569" width="6.7" height="20"/>
		<rect x="245" y="137.4" fill="#55565A" width="3.3" height="20"/>
		<rect x="271.7" y="137.4" fill="#646569" width="6.7" height="53.5"/>
		<rect x="271.7" y="137.4" fill="#55565A" width="3.3" height="53.5"/>
		<rect x="288.4" y="180.8" fill="#A4A9AD" width="6.7" height="10"/>
		<rect x="24.5" y="160.8" fill="#D1D3D3" width="3.3" height="6.7"/>
		<rect x="61.2" y="124" fill="#D1D3D3" width="3.3" height="6.7"/>
		<rect x="98" y="127.3" fill="#D1D3D3" width="3.3" height="6.7"/>
		<rect x="34.5" y="160.8" fill="#D1D3D3" width="3.3" height="6.7"/>
		<rect x="7.7" y="160.8" fill="#D1D3D3" width="3.3" height="6.7"/>
		<rect x="191.5" y="134" fill="#646569" width="3.3" height="26.7"/>
		<rect x="188.2" y="134" fill="#55565A" width="3.3" height="26.7"/>
		<rect x="278.4" y="140.7" fill="#D1D3D3" width="3.3" height="6.7"/>
		<rect x="251.7" y="140.7" fill="#D1D3D3" width="3.3" height="6.7"/>
		<rect x="255" y="174.1" fill="#A4A9AD" width="3.3" height="6.7"/>
		<rect x="248.3" y="174.1" fill="#A4A9AD" width="3.3" height="6.7"/>
	</g>
	<rect x="44.5" y="190.8" fill="#4A7628" width="254" height="3.3"/>
	<polygon fill="#B07C57" points="-72.5,190.8 -72.5,194.2 -72.5,197.5 -72.5,200.9 -49.1,200.9 -49.1,197.5 -22.3,197.5 
		-22.3,194.2 44.5,194.2 44.5,190.8 	"/>
	<polygon fill="#3FAE2A" points="-72.5,197.5 -72.5,200.9 -72.5,204.2 318.5,204.2 318.5,200.9 321.8,200.9 321.8,197.5 	"/>
	<polygon fill="#4E9D2D" points="298.5,190.8 298.5,194.2 -72.5,194.2 -72.5,197.5 325.2,197.5 325.2,194.2 325.2,190.8 	"/>
	<polygon fill="#65513C" points="315.2,197.5 315.2,200.9 298.5,200.9 298.5,204.2 -72.5,204.2 -72.5,207.5 315.2,207.5 
		315.2,204.2 318.5,204.2 318.5,200.9 321.8,200.9 321.8,197.5 	"/>
	<rect x="321.8" y="194.2" fill="#65513C" width="3.3" height="3.3"/>
	<polygon fill="#3E3935" points="305.1,204.2 305.1,207.5 -72.5,207.5 -72.5,210.9 -72.5,211 -72.5,214.2 -72.5,217.6 -72.5,220.9 
		-72.5,221 -72.5,224.2 -72.5,224.8 -72.5,227.6 -72.5,227.7 -72.5,230.9 -72.5,231.1 -72.5,234.3 -72.5,234.6 -72.5,237.6 
		-72.5,237.7 -72.5,240.9 -72.5,244.3 -72.5,247.6 -72.5,251 -72.5,254.3 -72.5,257.7 -72.5,258 -72.5,261 -72.5,261.2 -72.5,264.3 
		-72.5,271 -72.5,274.4 -72.6,274.4 -72.6,277.7 -72.5,277.7 -72.5,281 -72.5,284.4 -72.5,291.1 -72.5,294.4 -72.5,301.1 
		-72.5,314.5 -59.1,314.5 -59.1,301.1 -55.7,301.1 -55.7,294.4 -52.4,294.4 -52.4,291.1 -49.1,291.1 -49.1,284.4 -45.7,284.4 
		-45.7,277.7 -42.4,277.7 -42.4,274.4 -35.7,274.4 -35.7,271 -32.4,271 -32.4,264.3 -29,264.3 -29,261.2 -25.7,261.2 -25.7,258 
		-19,258 -19,254.3 -12.3,254.3 -12.3,251 -2.3,251 -2.3,247.6 4.4,247.6 4.4,244.3 11.1,244.3 11.1,240.9 24.5,240.9 24.5,237.7 
		31.1,237.7 31.1,234.6 51.2,234.6 51.2,231.1 98,231.1 98,234.3 101.3,234.3 101.3,237.6 104.6,237.6 104.6,240.9 108,240.9 
		108,244.3 108,247.6 111.3,247.6 111.3,251 111.3,251.3 111.3,254.5 114.7,254.5 114.7,257.7 114.7,261 118,261 118,264.3 
		118,267.7 121.4,267.7 121.4,271 121.4,274.4 121.4,277.7 118,277.7 118,281 114.7,281 114.7,284.4 114.7,287.7 111.3,287.7 
		111.3,291.1 111.3,294.4 108,294.4 108,297.8 108,301.1 104.6,301.1 104.6,304.4 104.6,307.8 101.3,307.8 101.3,311.1 191.5,311.1 
		191.5,307.8 184.8,307.8 184.8,304.4 178.2,304.4 178.2,301.1 178.2,297.8 174.8,297.8 174.8,294.4 174.8,291.1 171.5,291.1 
		171.5,287.7 171.5,284.4 168.1,284.4 168.1,281 168.1,277.7 164.8,277.7 164.8,274.4 164.8,271 164.8,267.7 164.8,264.3 
		168.1,264.3 168.1,261 168.1,257.7 171.5,257.7 171.5,254.5 171.5,254.3 171.5,251.3 174.8,251.3 174.8,247.6 174.8,244.3 
		178.2,244.3 178.2,240.9 184.8,240.9 184.8,237.6 194.9,237.6 194.9,234.3 198.2,234.3 198.2,231.1 204.9,231.1 204.9,227.7 
		214.9,227.7 214.9,224.8 224.9,224.8 224.9,221 248.3,221 248.3,217.6 271.7,217.6 271.7,214.2 288.4,214.2 288.4,211 311.8,211 
		311.8,207.5 315.2,207.5 315.2,204.2 	"/>
	<polygon fill="#342E1F" points="-72.5,207.5 -72.5,210.9 -72.5,214.2 -72.5,217.6 -72.5,220.9 -72.5,224.2 -72.5,227.6 
		-72.5,230.9 -72.5,234.3 -72.5,237.6 -72.5,240.9 -72.5,244.3 -72.5,247.6 -72.5,251 -72.5,254.3 -72.5,256.8 -72.5,257.7 
		-72.5,261 -72.5,264.3 -72.5,271 -72.5,274.4 -72.5,281 -72.5,291.1 -69.1,291.1 -69.1,281 -65.8,281 -65.8,274.4 -62.4,274.4 
		-62.4,271 -59.1,271 -59.1,264.3 -55.7,264.3 -55.7,257.7 -52.4,257.7 -52.4,254.3 -49.1,254.3 -49.1,251 -45.7,251 -45.7,247.6 
		-39,247.6 -39,244.3 -32.4,244.3 -32.4,240.9 -22.3,240.9 -22.3,237.6 -15.6,237.6 -15.6,234.3 4.4,234.3 4.4,230.9 37.8,230.9 
		37.8,227.6 87.9,227.6 87.9,230.9 98,230.9 98,234.3 101.3,234.3 101.3,237.6 104.6,237.6 104.6,240.9 108,240.9 108,247.6 
		114.7,247.6 114.7,254.3 121.4,254.3 121.4,261 124.7,261 124.7,267.7 128,267.7 128,277.7 124.7,277.7 124.7,281 121.4,281 
		121.4,287.7 118,287.7 118,294.4 111.3,294.4 111.3,301.1 104.6,301.1 104.6,307.8 101.3,307.8 101.3,311.1 174.8,311.1 
		174.8,307.8 168.1,307.8 168.1,304.4 158.1,304.4 158.1,301.1 154.8,301.1 154.8,297.8 151.4,297.8 151.4,291.1 148.1,291.1 
		148.1,287.7 144.7,287.7 144.7,254.3 148.1,254.3 148.1,251 151.4,251 151.4,247.6 154.8,247.6 154.8,244.3 158.1,244.3 
		158.1,237.6 161.5,237.6 161.5,234.3 168.1,234.3 168.1,230.9 171.5,230.9 171.5,227.6 181.5,227.6 181.5,224.2 194.9,224.2 
		194.9,220.9 211.6,220.9 211.6,217.6 224.9,217.6 224.9,214.2 245,214.2 245,210.9 265,210.9 265,207.5 	"/>
	<polygon fill="#0075C9" points="746.2,264.3 746.2,267.7 722.8,267.7 722.8,271 712.8,271 712.8,274.4 716.1,274.4 716.1,277.7 
		736.2,277.7 736.2,281 756.2,281 756.2,284.4 789.7,284.4 789.7,287.7 819.7,287.7 819.7,274.4 819.7,271 819.7,267.7 823.1,267.7 
		823.1,264.3 	"/>
	<polygon fill="#D9A460" points="746.2,271 746.2,274.4 762.9,274.4 762.9,277.7 789.7,277.7 789.7,281 819.7,281 819.7,277.7 
		819.7,274.4 819.7,271 	"/>
	<polygon fill="#B07C57" points="756.2,267.7 756.2,271 772.9,271 772.9,274.4 803,274.4 803,277.7 819.7,277.7 819.7,274.4 
		819.7,271 819.7,267.7 	"/>
	<polygon fill="#83603F" points="762.9,264.3 762.9,267.7 779.6,267.7 779.6,271 819.7,271 819.7,267.7 819.7,264.3 	"/>
	<polygon fill="#3FAE2A" points="776.3,261 776.3,264.3 786.3,264.3 786.3,267.7 819.7,267.7 819.7,264.3 819.7,261 	"/>
	<rect x="108" y="37.1" fill="#FFFFFF" width="16.7" height="10"/>
	<rect x="108" y="37.1" fill="#CF0A2C" width="3.3" height="10"/>
	<rect x="121.4" y="37.1" fill="#CF0A2C" width="3.3" height="10"/>
	<polygon fill="#1D4F90" points="619.2,274.4 619.2,271 529,271 529,274.4 522.3,274.4 522.3,277.7 525.7,277.7 525.7,281 
		532.4,281 532.4,284.4 612.6,284.4 612.6,281 615.9,281 615.9,277.7 622.6,277.7 622.6,274.4 	"/>
	<rect x="114.7" y="40.5" fill="#CF0A2C" width="3.3" height="3.3"/>
	<polygon fill="#65513C" points="525.7,257.7 525.7,261 529,261 529,264.3 532.4,264.3 532.4,267.7 532.4,271 535.7,271 
		535.7,274.4 535.7,277.7 609.2,277.7 609.2,274.4 612.6,274.4 612.6,271 615.9,271 615.9,267.7 619.2,267.7 619.2,264.3 
		622.6,264.3 622.6,261 625.9,261 625.9,257.7 	"/>
	<polygon fill="#83603F" points="595.8,251 595.8,254.3 552.4,254.3 552.4,251 549.1,251 549.1,247.6 545.7,247.6 545.7,244.3 
		542.4,244.3 542.4,240.9 519,240.9 519,251 519,254.3 519,254.3 519,257.7 632.6,257.7 632.6,254.3 646,254.3 646,251 	"/>
	<rect x="635.9" y="247.6" fill="#83603F" width="3.3" height="3.3"/>
	<rect x="632.6" y="244.3" fill="#83603F" width="3.3" height="3.3"/>
	<rect x="629.3" y="240.9" fill="#83603F" width="3.3" height="3.3"/>
	<rect x="625.9" y="237.6" fill="#83603F" width="3.3" height="3.3"/>
	<rect x="622.6" y="234.3" fill="#83603F" width="3.3" height="3.3"/>
	<rect x="619.2" y="230.9" fill="#83603F" width="3.3" height="3.3"/>
	<rect x="615.9" y="227.6" fill="#83603F" width="3.3" height="3.3"/>
	<rect x="301.8" y="187.5" opacity="0.35" fill="#1E428A" width="517.9" height="3.3"/>
	<rect x="325.2" y="194.2" opacity="0.25" fill="#1E428A" width="494.5" height="3.3"/>
	<rect x="315.2" y="204.2" opacity="0.2" fill="#1E428A" width="504.6" height="3.4"/>
	<rect x="248.3" y="217.6" opacity="0.15" fill="#1E428A" width="571.4" height="3.4"/>
	<rect x="331.9" y="180.8" opacity="0.45" fill="#1E428A" width="487.9" height="3.6"/>
	<rect x="612.6" y="224.2" fill="#83603F" width="3.3" height="3.3"/>
	<rect x="609.2" y="220.9" fill="#83603F" width="3.3" height="3.3"/>
	<rect x="605.9" y="217.6" fill="#83603F" width="3.3" height="3.3"/>
	<rect x="602.5" y="214.2" fill="#83603F" width="3.3" height="3.3"/>
	<rect x="599.2" y="210.9" fill="#83603F" width="3.3" height="3.3"/>
	<rect x="595.8" y="207.5" fill="#83603F" width="3.3" height="3.3"/>
	<rect x="592.5" y="204.2" fill="#83603F" width="3.3" height="3.3"/>
	<rect x="455.5" y="177.5" opacity="0.6" fill="#1E428A" width="330.8" height="3.6"/>
	<rect x="519" y="174.1" opacity="0.75" fill="#1E428A" width="217.2" height="3.3"/>
	<rect x="595.8" y="170.8" fill="#1E428A" width="93.6" height="3.6"/>
	<rect x="589.2" y="200.9" fill="#83603F" width="3.3" height="3.3"/>
	<rect x="585.8" y="197.5" fill="#83603F" width="3.3" height="3.3"/>
	<rect x="565.8" y="177.5" fill="#65513C" width="3.3" height="76.9"/>
	<polygon fill="#D1D3D3" points="589.2,207.5 589.2,204.2 585.8,204.2 585.8,200.9 549.1,200.9 549.1,204.2 552.4,204.2 
		552.4,207.5 555.7,207.5 555.7,210.9 555.7,214.2 555.7,217.6 555.7,220.9 555.7,224.2 555.7,227.6 555.7,230.9 555.7,234.3 
		592.5,234.3 592.5,230.9 592.5,227.6 592.5,224.2 592.5,220.9 592.5,217.6 592.5,214.2 592.5,210.9 592.5,207.5 	"/>
	<rect x="552.4" y="234.3" fill="#A4A9AD" width="36.8" height="3.3"/>
	<rect x="549.1" y="237.6" fill="#A4A9AD" width="36.8" height="3.3"/>
	<rect x="582.5" y="194.2" fill="#83603F" width="3.3" height="3.3"/>
	<rect x="579.1" y="190.8" fill="#83603F" width="3.3" height="3.3"/>
	<rect x="575.8" y="187.5" fill="#83603F" width="3.3" height="3.3"/>
	<rect x="572.5" y="184.1" fill="#83603F" width="3.3" height="3.3"/>
	<rect x="569.1" y="180.8" fill="#83603F" width="3.3" height="3.3"/>
	<rect x="535.7" y="234.3" fill="#83603F" width="3.3" height="6.7"/>
	<rect x="539" y="227.6" fill="#83603F" width="3.3" height="6.7"/>
	<rect x="542.4" y="220.9" fill="#83603F" width="3.3" height="6.7"/>
	<rect x="545.7" y="214.2" fill="#83603F" width="3.3" height="6.7"/>
	<rect x="545.7" y="200.9" fill="#D1D3D3" width="3.3" height="3.3"/>
	<rect x="549.1" y="207.5" fill="#83603F" width="3.3" height="6.7"/>
	<rect x="555.7" y="194.2" fill="#83603F" width="3.3" height="6.7"/>
	<rect x="559.1" y="187.5" fill="#83603F" width="3.3" height="6.7"/>
	<rect x="562.4" y="180.8" fill="#83603F" width="3.3" height="6.7"/>
	<rect x="522.3" y="247.6" fill="#D1D3D3" width="3.3" height="6.7"/>
	<rect x="529" y="247.6" fill="#D1D3D3" width="3.3" height="6.7"/>
	<rect x="549.1" y="264.3" fill="#111820" width="3.3" height="3.3"/>
	<rect x="555.7" y="264.3" fill="#111820" width="3.3" height="3.3"/>
	<rect x="562.4" y="264.3" fill="#111820" width="3.3" height="3.3"/>
	<rect x="572.5" y="264.3" fill="#111820" width="3.3" height="3.3"/>
	<rect x="579.1" y="264.3" fill="#111820" width="3.3" height="3.3"/>
	<rect x="585.8" y="264.3" fill="#111820" width="3.3" height="3.3"/>
	<rect x="592.5" y="264.3" fill="#111820" width="3.3" height="3.3"/>
	<rect x="599.2" y="264.3" fill="#111820" width="3.3" height="3.3"/>
	<rect x="612.6" y="261" fill="#111820" width="3.3" height="3.3"/>
	<rect x="519" y="240.9" fill="#65513C" width="23.4" height="3.3"/>
	<rect x="552.4" y="251" fill="#65513C" width="43.4" height="3.3"/>
	<polygon fill="#FEDD3D" points="676,57.2 676,53.8 676,50.5 672.7,50.5 672.7,47.1 669.4,47.1 669.4,43.8 666,43.8 666,40.5 
		659.3,40.5 659.3,37.1 646,37.1 646,40.5 639.3,40.5 639.3,43.8 635.9,43.8 635.9,47.1 632.6,47.1 632.6,50.5 629.3,50.5 
		629.3,53.8 629.3,57.2 625.9,57.2 625.9,60.5 625.9,63.9 625.9,67.2 625.9,70.5 629.3,70.5 629.3,73.9 629.3,77.2 632.6,77.2 
		632.6,80.6 635.9,80.6 635.9,83.9 639.3,83.9 639.3,87.2 646,87.2 646,90.6 659.3,90.6 659.3,87.2 666,87.2 666,83.9 669.4,83.9 
		669.4,80.6 672.7,80.6 672.7,77.2 676,77.2 676,73.9 676,70.5 679.4,70.5 679.4,67.2 679.4,63.9 679.4,60.5 679.4,57.2 	"/>
	<rect x="251.7" y="23.8" fill="#D1D3D3" width="143.7" height="3.3"/>
	<rect x="211.6" y="27.1" fill="#D1D3D3" width="250.6" height="3.3"/>
	<rect x="191.5" y="30.4" fill="#D1D3D3" width="284" height="3.3"/>
	<rect x="198.2" y="33.8" fill="#D1D3D3" width="267.3" height="3.3"/>
	<rect x="268.4" y="37.1" fill="#D1D3D3" width="183.8" height="3.1"/>
</g>
<g id="Fore_ground">
	<polygon fill="#4E9D2D" points="61.2,331.2 61.2,327.8 61.2,324.5 57.9,324.5 57.9,321.1 57.9,317.8 54.5,317.8 54.5,314.5 
		51.2,314.5 51.2,311.1 44.5,311.1 44.5,307.8 34.5,307.8 34.5,304.4 7.7,304.4 7.7,307.8 4.4,307.8 4.4,311.1 -2.3,311.1 
		-2.3,314.5 -5.6,314.5 -5.6,317.8 -5.6,321.1 -9,321.1 -9,324.5 -9,327.8 -9,331.2 -5.6,331.2 -5.6,334.5 -5.6,337.9 -2.3,337.9 
		-2.3,341.2 -2.3,344.5 -2.3,347.9 4.4,347.9 4.4,351.2 47.8,351.2 47.8,347.9 57.9,347.9 57.9,344.5 61.2,344.5 61.2,341.2 
		61.2,337.9 64.6,337.9 64.6,334.5 64.6,331.2 	"/>
	<polygon fill="#4E9D2D" points="161.5,327.8 161.5,324.5 161.5,321.1 158.1,321.1 158.1,317.8 154.8,317.8 154.8,314.5 
		144.7,314.5 144.7,311.1 138.1,311.1 138.1,307.8 111.3,307.8 111.3,311.1 104.6,311.1 104.6,314.5 98,314.5 98,317.8 91.3,317.8 
		91.3,321.1 87.9,321.1 87.9,324.5 87.9,327.8 84.6,327.8 84.6,331.2 87.9,331.2 87.9,334.5 91.3,334.5 91.3,337.9 94.6,337.9 
		94.6,341.2 98,341.2 98,344.5 104.6,344.5 104.6,347.9 141.4,347.9 141.4,344.5 148.1,344.5 148.1,341.2 151.4,341.2 151.4,337.9 
		161.5,337.9 161.5,334.5 164.8,334.5 164.8,331.2 164.8,327.8 	"/>
	<polygon fill="#6CC04A" points="184.8,341.2 184.8,337.9 178.2,337.9 178.2,334.5 171.5,334.5 171.5,331.2 151.4,331.2 
		151.4,334.5 144.7,334.5 144.7,337.9 138.1,337.9 138.1,341.2 134.7,341.2 134.7,344.5 134.7,347.9 138.1,347.9 138.1,351.2 
		141.4,351.2 141.4,354.6 148.1,354.6 148.1,357.9 174.8,357.9 174.8,354.6 181.5,354.6 181.5,351.2 188.2,351.2 188.2,347.9 
		188.2,344.5 188.2,341.2 	"/>
	<polygon fill="#3FAE2A" points="114.7,337.9 114.7,334.5 114.7,331.2 111.3,331.2 111.3,327.8 111.3,324.5 111.3,321.1 108,321.1 
		108,317.8 101.3,317.8 101.3,314.5 94.6,314.5 94.6,311.1 77.9,311.1 77.9,314.5 71.2,314.5 71.2,317.8 64.6,317.8 64.6,321.1 
		61.2,321.1 61.2,324.5 57.9,324.5 57.9,327.8 54.5,327.8 54.5,331.2 54.5,334.5 51.2,334.5 51.2,337.9 51.2,341.2 54.5,341.2 
		54.5,344.5 57.9,344.5 57.9,347.9 64.6,347.9 64.6,351.2 108,351.2 108,347.9 114.7,347.9 114.7,344.5 118,344.5 118,341.2 
		118,337.9 	"/>
	<polygon fill="#3FAE2A" points="-5.6,331.2 -5.6,327.8 -5.6,324.5 -9,324.5 -9,321.1 -9,317.8 -12.3,317.8 -12.3,314.5 
		-15.6,314.5 -15.6,311.1 -22.3,311.1 -22.3,307.8 -32.4,307.8 -32.4,304.4 -59.1,304.4 -59.1,307.8 -62.4,307.8 -62.4,311.1 
		-69.1,311.1 -69.1,314.5 -72.5,314.5 -72.5,317.8 -72.5,321.1 -75.8,321.1 -75.8,324.5 -75.8,327.8 -75.8,331.2 -72.5,331.2 
		-72.5,334.5 -72.5,337.9 -69.1,337.9 -69.1,341.2 -69.1,344.5 -69.1,347.9 -62.4,347.9 -62.4,351.2 -19,351.2 -19,347.9 -9,347.9 
		-9,344.5 -5.6,344.5 -5.6,341.2 -5.6,337.9 -2.3,337.9 -2.3,334.5 -2.3,331.2 	"/>
	<polygon fill="#6CC04A" points="41.2,327.8 41.2,324.5 34.5,324.5 34.5,321.1 27.8,321.1 27.8,317.8 7.7,317.8 7.7,321.1 
		1.1,321.1 1.1,324.5 -5.6,324.5 -5.6,327.8 -9,327.8 -9,331.2 -9,334.5 -5.6,334.5 -5.6,337.9 -2.3,337.9 -2.3,341.2 4.4,341.2 
		4.4,344.5 31.1,344.5 31.1,341.2 37.8,341.2 37.8,337.9 44.5,337.9 44.5,334.5 44.5,331.2 44.5,327.8 	"/>
	<polygon fill="#6CC04A" points="-39,344.5 -39,341.2 -45.7,341.2 -45.7,337.9 -52.4,337.9 -52.4,334.5 -72.5,334.5 -72.5,337.9 
		-79.1,337.9 -79.1,341.2 -85.8,341.2 -85.8,344.5 -89.2,344.5 -89.2,347.9 -89.2,351.2 -85.8,351.2 -85.8,354.6 -82.5,354.6 
		-82.5,357.9 -75.8,357.9 -75.8,361.2 -49.1,361.2 -49.1,357.9 -42.4,357.9 -42.4,354.6 -35.7,354.6 -35.7,351.2 -35.7,347.9 
		-35.7,344.5 	"/>
	<polygon fill="#3FAE2A" points="218.3,344.5 218.3,341.2 214.9,341.2 214.9,337.9 214.9,334.5 211.6,334.5 211.6,331.2 
		204.9,331.2 204.9,327.8 184.8,327.8 184.8,331.2 181.5,331.2 181.5,334.5 174.8,334.5 174.8,337.9 171.5,337.9 171.5,341.2 
		168.1,341.2 168.1,344.5 168.1,347.9 171.5,347.9 171.5,351.2 174.8,351.2 174.8,354.6 178.2,354.6 178.2,357.9 184.8,357.9 
		184.8,361.2 208.2,361.2 208.2,357.9 211.6,357.9 211.6,354.6 218.3,354.6 218.3,351.2 221.6,351.2 221.6,347.9 221.6,344.5 	"/>
	<polygon fill="#3FAE2A" points="7.7,341.2 7.7,337.9 4.4,337.9 4.4,334.5 4.4,331.2 1.1,331.2 1.1,327.8 -5.6,327.8 -5.6,324.5 
		-25.7,324.5 -25.7,327.8 -29,327.8 -29,331.2 -35.7,331.2 -35.7,334.5 -39,334.5 -39,337.9 -42.4,337.9 -42.4,341.2 -42.4,344.5 
		-39,344.5 -39,347.9 -35.7,347.9 -35.7,351.2 -32.4,351.2 -32.4,354.6 -25.7,354.6 -25.7,357.9 -2.3,357.9 -2.3,354.6 1.1,354.6 
		1.1,351.2 7.7,351.2 7.7,347.9 11.1,347.9 11.1,344.5 11.1,341.2 	"/>
	<polygon fill="#4E9D2D" points="281.7,374.6 228.3,374.6 181.5,374.6 -72.5,374.6 -72.5,381.3 -72.5,388 -72.5,391.3 -72.5,394.7 
		-72.5,398 -25.7,398 -25.7,394.7 1.1,394.7 1.1,391.3 37.8,391.3 37.8,388 74.6,388 74.6,384.6 128,384.6 128,381.3 228.3,381.3 
		228.3,378 281.7,378 	"/>
	<rect x="14.4" y="354.6" fill="#83603F" width="10" height="23.4"/>
	<polygon fill="#65513C" points="141.4,371.3 141.4,367.9 138.1,367.9 138.1,364.6 134.7,364.6 134.7,351.2 138.1,351.2 
		138.1,347.9 134.7,347.9 118,347.9 118,371.3 114.7,371.3 114.7,378 144.7,378 144.7,371.3 	"/>
	<rect x="-22.3" y="354.6" fill="#65513C" width="13.4" height="23.4"/>
	<polygon fill="#3FAE2A" points="64.6,344.5 64.6,341.2 64.6,337.9 64.6,334.5 61.2,334.5 61.2,331.2 54.5,331.2 54.5,327.8 
		47.8,327.8 47.8,324.5 31.1,324.5 31.1,327.8 24.5,327.8 24.5,331.2 17.8,331.2 17.8,334.5 14.4,334.5 14.4,337.9 11.1,337.9 
		11.1,341.2 7.7,341.2 7.7,344.5 7.7,347.9 11.1,347.9 11.1,351.2 11.1,354.6 14.4,354.6 14.4,357.9 17.8,357.9 17.8,361.2 
		57.9,361.2 57.9,357.9 61.2,357.9 61.2,354.6 64.6,354.6 64.6,351.2 67.9,351.2 67.9,347.9 67.9,344.5 	"/>
	<rect x="-35.7" y="367.9" fill="#83603F" width="10" height="13.4"/>
	<polygon fill="#6CC04A" points="-5.6,351.2 -5.6,347.9 -12.3,347.9 -12.3,344.5 -19,344.5 -19,341.2 -39,341.2 -39,344.5 
		-45.7,344.5 -45.7,347.9 -52.4,347.9 -52.4,351.2 -55.7,351.2 -55.7,354.6 -55.7,357.9 -52.4,357.9 -52.4,361.2 -49.1,361.2 
		-49.1,364.6 -42.4,364.6 -42.4,367.9 -15.6,367.9 -15.6,364.6 -9,364.6 -9,361.2 -2.3,361.2 -2.3,357.9 -2.3,354.6 -2.3,351.2 	"/>
	<polygon fill="#3FAE2A" points="-35.7,367.9 -35.7,364.6 -35.7,361.2 -35.7,357.9 -39,357.9 -39,354.6 -45.7,354.6 -45.7,351.2 
		-52.4,351.2 -52.4,347.9 -69.1,347.9 -69.1,351.2 -75.8,351.2 -75.8,354.6 -82.5,354.6 -82.5,357.9 -85.8,357.9 -85.8,361.2 
		-89.2,361.2 -89.2,364.6 -92.5,364.6 -92.5,367.9 -92.5,371.3 -89.2,371.3 -89.2,374.6 -89.2,378 -85.8,378 -85.8,381.3 
		-82.5,381.3 -82.5,384.6 -42.4,384.6 -42.4,381.3 -39,381.3 -39,378 -35.7,378 -35.7,374.6 -32.4,374.6 -32.4,371.3 -32.4,367.9 	
		"/>
	<polygon fill="#65513C" points="793,381.3 793,384.6 752.9,384.6 752.9,388 709.5,388 709.5,391.3 549.1,391.3 549.1,388 
		478.9,388 478.9,384.6 438.8,384.6 438.8,381.3 392,381.3 392,378 338.6,378 338.6,374.6 281.7,374.6 281.7,378 228.3,378 
		228.3,381.3 128,381.3 128,384.6 74.6,384.6 74.6,388 37.8,388 37.8,391.3 1.1,391.3 1.1,394.7 -25.7,394.7 -25.7,398 74.6,398 
		81.3,398 355.3,398 478.9,398 819.7,398 819.7,394.7 819.7,391.3 819.7,388 819.7,384.6 819.7,381.3 	"/>
	<polygon fill="#83603F" points="552.4,394.7 552.4,391.3 475.6,391.3 475.6,388 438.8,388 438.8,384.6 415.4,384.6 415.4,381.3 
		341.9,381.3 341.9,378 338.6,378 338.6,374.6 291.8,374.6 291.8,378 268.4,378 268.4,381.3 231.6,381.3 231.6,384.6 128,384.6 
		128,388 77.9,388 77.9,391.3 34.5,391.3 34.5,394.7 4.4,394.7 4.4,398 819.7,398 819.7,394.7 	"/>
	<rect x="709.5" y="391.3" fill="#83603F" width="110.3" height="3.3"/>
	<rect x="756.2" y="388" fill="#83603F" width="63.5" height="3.3"/>
	<rect x="793" y="384.6" fill="#83603F" width="26.7" height="3.3"/>
	<polygon fill="#B07C57" points="472.2,394.7 472.2,391.5 432.1,391.5 432.1,388.1 405.4,388.1 405.4,384.6 338.6,384.6 
		338.6,381.3 335.2,381.3 335.2,374.6 295.1,374.6 295.1,381.3 275.1,381.3 275.1,384.6 238.3,384.6 238.3,388.1 134.7,388.1 
		134.7,391.5 81.3,391.5 81.3,394.7 41.2,394.7 41.2,398 545.7,398 545.7,394.7 	"/>
	<polygon fill="#B07C57" points="803,388 803,391.3 759.6,391.3 759.6,394.7 716.1,394.7 716.1,398 819.7,398 819.7,394.7 
		819.7,391.3 819.7,388 	"/>
	<polygon fill="#D9A460" points="395.4,394.7 395.4,391.3 358.6,391.3 358.6,388 331.9,388 331.9,384.6 331.9,381.3 328.5,381.3 
		328.5,378 298.5,378 298.5,381.3 291.8,381.3 291.8,384.6 288.4,384.6 288.4,388 261.7,388 261.7,391.3 198.2,391.3 198.2,394.7 
		151.4,394.7 151.4,398 418.7,398 418.7,394.7 	"/>
	<polygon fill="#4E9D2D" points="338.6,374.6 338.6,378 392,378 392,381.3 438.8,381.3 438.8,384.6 478.9,384.6 478.9,388 
		549.1,388 549.1,391.3 709.5,391.3 709.5,388 752.9,388 752.9,384.6 793,384.6 793,381.3 819.7,381.3 819.7,378 819.7,374.6 	"/>
	<polygon fill="#65513C" points="41.2,361.2 41.2,364.6 34.5,364.6 34.5,361.2 27.8,361.2 27.8,364.6 31.1,364.6 31.1,381.3 
		44.5,381.3 44.5,364.6 51.2,364.6 51.2,361.2 	"/>
	<polygon fill="#65513C" points="-52.4,384.6 -59.1,384.6 -59.1,388 -62.4,388 -62.4,384.6 -65.8,384.6 -65.8,398 -52.4,398 
		-52.4,388 -49.1,388 -49.1,384.6 	"/>
	<polygon fill="#65513C" points="505.6,357.9 505.6,351.2 488.9,351.2 488.9,378 505.6,378 505.6,374.6 502.3,374.6 502.3,357.9 	
		"/>
	<g>
		<polygon fill="#83603F" points="91.3,354.6 91.3,351.2 84.6,351.2 84.6,354.6 77.9,354.6 77.9,351.2 71.2,351.2 71.2,354.6 
			74.6,354.6 74.6,378 91.3,378 91.3,371.3 87.9,371.3 87.9,361.2 91.3,361.2 91.3,357.9 98,357.9 98,354.6 		"/>
		<rect x="98" y="351.2" fill="#83603F" width="3.3" height="3.3"/>
	</g>
	<polygon fill="#6CC04A" points="77.9,347.9 77.9,344.5 84.6,344.5 84.6,341.2 91.3,341.2 91.3,337.9 111.3,337.9 111.3,341.2 
		118,341.2 118,344.5 124.7,344.5 124.7,347.9 128,347.9 128,351.2 128,354.6 124.7,354.6 124.7,357.9 121.4,357.9 121.4,361.2 
		114.7,361.2 114.7,364.6 87.9,364.6 87.9,361.2 81.3,361.2 81.3,357.9 74.6,357.9 74.6,354.6 74.6,351.2 74.6,347.9 	"/>
	<polygon fill="#4E9D2D" points="549.1,331.2 549.1,327.8 549.1,324.5 552.4,324.5 552.4,321.1 552.4,317.8 555.7,317.8 
		555.7,314.5 559.1,314.5 559.1,311.1 565.8,311.1 565.8,307.8 575.8,307.8 575.8,304.4 602.5,304.4 602.5,307.8 605.9,307.8 
		605.9,311.1 612.6,311.1 612.6,314.5 615.9,314.5 615.9,317.8 615.9,321.1 619.2,321.1 619.2,324.5 619.2,327.8 619.2,331.2 
		615.9,331.2 615.9,334.5 615.9,337.9 612.6,337.9 612.6,341.2 612.6,344.5 612.6,347.9 605.9,347.9 605.9,351.2 562.4,351.2 
		562.4,347.9 552.4,347.9 552.4,344.5 549.1,344.5 549.1,341.2 549.1,337.9 545.7,337.9 545.7,334.5 545.7,331.2 	"/>
	<polygon fill="#3FAE2A" points="615.9,321.1 615.9,317.8 615.9,314.5 615.9,311.1 619.2,311.1 619.2,307.8 625.9,307.8 
		625.9,304.4 632.6,304.4 632.6,301.1 649.3,301.1 649.3,304.4 656,304.4 656,307.8 662.7,307.8 662.7,311.1 666,311.1 666,314.5 
		669.4,314.5 669.4,317.8 672.7,317.8 672.7,321.1 672.7,324.5 669.4,324.5 669.4,327.8 669.4,331.2 666,331.2 666,334.5 
		662.7,334.5 662.7,337.9 622.6,337.9 622.6,334.5 619.2,334.5 619.2,331.2 615.9,331.2 615.9,327.8 612.6,327.8 612.6,324.5 
		612.6,321.1 	"/>
	<polygon fill="#4E9D2D" points="465.5,331.2 465.5,327.8 465.5,324.5 468.9,324.5 468.9,321.1 472.2,321.1 472.2,317.8 
		482.2,317.8 482.2,314.5 488.9,314.5 488.9,311.1 515.7,311.1 515.7,314.5 522.3,314.5 522.3,317.8 529,317.8 529,321.1 
		535.7,321.1 535.7,324.5 539,324.5 539,327.8 539,331.2 542.4,331.2 542.4,334.5 539,334.5 539,337.9 535.7,337.9 535.7,341.2 
		532.4,341.2 532.4,344.5 529,344.5 529,347.9 522.3,347.9 522.3,351.2 485.6,351.2 485.6,347.9 478.9,347.9 478.9,344.5 
		475.6,344.5 475.6,341.2 465.5,341.2 465.5,337.9 462.2,337.9 462.2,334.5 462.2,331.2 	"/>
	<polygon fill="#6CC04A" points="445.5,344.5 445.5,341.2 452.2,341.2 452.2,337.9 458.8,337.9 458.8,334.5 478.9,334.5 
		478.9,337.9 485.6,337.9 485.6,341.2 492.3,341.2 492.3,344.5 495.6,344.5 495.6,347.9 495.6,351.2 492.3,351.2 492.3,354.6 
		488.9,354.6 488.9,357.9 482.2,357.9 482.2,361.2 455.5,361.2 455.5,357.9 448.8,357.9 448.8,354.6 442.1,354.6 442.1,351.2 
		442.1,347.9 442.1,344.5 	"/>
	<polygon fill="#3FAE2A" points="512.3,341.2 512.3,337.9 512.3,334.5 515.7,334.5 515.7,331.2 515.7,327.8 515.7,324.5 519,324.5 
		519,321.1 525.7,321.1 525.7,317.8 532.4,317.8 532.4,314.5 549.1,314.5 549.1,317.8 555.7,317.8 555.7,321.1 562.4,321.1 
		562.4,324.5 565.8,324.5 565.8,327.8 569.1,327.8 569.1,331.2 572.5,331.2 572.5,334.5 572.5,337.9 575.8,337.9 575.8,341.2 
		575.8,344.5 572.5,344.5 572.5,347.9 569.1,347.9 569.1,351.2 562.4,351.2 562.4,354.6 519,354.6 519,351.2 512.3,351.2 
		512.3,347.9 509,347.9 509,344.5 509,341.2 	"/>
	<polygon fill="#4E9D2D" points="652.7,334.5 652.7,331.2 652.7,327.8 656,327.8 656,324.5 656,321.1 659.3,321.1 659.3,317.8 
		662.7,317.8 662.7,314.5 669.4,314.5 669.4,311.1 679.4,311.1 679.4,307.8 706.1,307.8 706.1,311.1 709.5,311.1 709.5,314.5 
		716.1,314.5 716.1,317.8 719.5,317.8 719.5,321.1 719.5,324.5 722.8,324.5 722.8,327.8 722.8,331.2 722.8,334.5 719.5,334.5 
		719.5,337.9 719.5,341.2 716.1,341.2 716.1,344.5 716.1,347.9 716.1,351.2 709.5,351.2 709.5,354.6 666,354.6 666,351.2 656,351.2 
		656,347.9 652.7,347.9 652.7,344.5 652.7,341.2 649.3,341.2 649.3,337.9 649.3,334.5 	"/>
	<polygon fill="#4E9D2D" points="759.6,337.9 759.6,334.5 759.6,331.2 762.9,331.2 762.9,327.8 762.9,324.5 766.3,324.5 
		766.3,321.1 769.6,321.1 769.6,317.8 776.3,317.8 776.3,314.5 786.3,314.5 786.3,311.1 813,311.1 813,314.5 816.4,314.5 
		816.4,317.8 823.1,317.8 823.1,321.1 826.4,321.1 826.4,324.5 826.4,327.8 829.8,327.8 829.8,331.2 829.8,334.5 829.8,337.9 
		826.4,337.9 826.4,341.2 826.4,344.5 823.1,344.5 823.1,347.9 823.1,351.2 823.1,354.6 816.4,354.6 816.4,357.9 772.9,357.9 
		772.9,354.6 762.9,354.6 762.9,351.2 759.6,351.2 759.6,347.9 759.6,344.5 756.2,344.5 756.2,341.2 756.2,337.9 	"/>
	<rect x="605.9" y="351.2" fill="#65513C" width="10" height="26.7"/>
	<polygon fill="#6CC04A" points="585.8,331.2 585.8,327.8 592.5,327.8 592.5,324.5 599.2,324.5 599.2,321.1 619.2,321.1 
		619.2,324.5 625.9,324.5 625.9,327.8 632.6,327.8 632.6,331.2 635.9,331.2 635.9,334.5 635.9,337.9 632.6,337.9 632.6,341.2 
		629.3,341.2 629.3,344.5 622.6,344.5 622.6,347.9 595.8,347.9 595.8,344.5 589.2,344.5 589.2,341.2 582.5,341.2 582.5,337.9 
		582.5,334.5 582.5,331.2 	"/>
	<polygon fill="#3FAE2A" points="666,347.9 666,344.5 672.7,344.5 672.7,341.2 679.4,341.2 679.4,337.9 699.4,337.9 699.4,341.2 
		706.1,341.2 706.1,344.5 712.8,344.5 712.8,347.9 716.1,347.9 716.1,351.2 716.1,354.6 712.8,354.6 712.8,357.9 709.5,357.9 
		709.5,361.2 702.8,361.2 702.8,364.6 676,364.6 676,361.2 669.4,361.2 669.4,357.9 662.7,357.9 662.7,354.6 662.7,351.2 
		662.7,347.9 	"/>
	<polygon fill="#65513C" points="806.4,361.2 806.4,357.9 789.7,357.9 789.7,378 806.4,378 806.4,374.6 803,374.6 803,361.2 	"/>
	<polygon fill="#3FAE2A" points="408.7,351.2 408.7,347.9 412.1,347.9 412.1,344.5 412.1,341.2 415.4,341.2 415.4,337.9 
		422.1,337.9 422.1,334.5 442.1,334.5 442.1,337.9 445.5,337.9 445.5,341.2 452.2,341.2 452.2,344.5 455.5,344.5 455.5,347.9 
		458.8,347.9 458.8,351.2 458.8,354.6 455.5,354.6 455.5,357.9 452.2,357.9 452.2,361.2 448.8,361.2 448.8,364.6 442.1,364.6 
		442.1,367.9 418.7,367.9 418.7,364.6 415.4,364.6 415.4,361.2 408.7,361.2 408.7,357.9 405.4,357.9 405.4,354.6 405.4,351.2 	"/>
	<rect x="635.9" y="357.9" fill="#65513C" width="13.4" height="20"/>
	<polygon fill="#3FAE2A" points="619.2,344.5 619.2,341.2 622.6,341.2 622.6,337.9 622.6,334.5 625.9,334.5 625.9,331.2 
		632.6,331.2 632.6,327.8 652.7,327.8 652.7,331.2 656,331.2 656,334.5 662.7,334.5 662.7,337.9 666,337.9 666,341.2 669.4,341.2 
		669.4,344.5 669.4,347.9 666,347.9 666,351.2 662.7,351.2 662.7,354.6 659.3,354.6 659.3,357.9 652.7,357.9 652.7,361.2 
		629.3,361.2 629.3,357.9 625.9,357.9 625.9,354.6 619.2,354.6 619.2,351.2 615.9,351.2 615.9,347.9 615.9,344.5 	"/>
	<polygon fill="#3FAE2A" points="562.4,347.9 562.4,344.5 562.4,341.2 562.4,337.9 565.8,337.9 565.8,334.5 572.5,334.5 
		572.5,331.2 579.1,331.2 579.1,327.8 595.8,327.8 595.8,331.2 602.5,331.2 602.5,334.5 609.2,334.5 609.2,337.9 612.6,337.9 
		612.6,341.2 615.9,341.2 615.9,344.5 619.2,344.5 619.2,347.9 619.2,351.2 615.9,351.2 615.9,354.6 615.9,357.9 612.6,357.9 
		612.6,361.2 609.2,361.2 609.2,364.6 569.1,364.6 569.1,361.2 565.8,361.2 565.8,357.9 562.4,357.9 562.4,354.6 559.1,354.6 
		559.1,351.2 559.1,347.9 	"/>
	<polygon fill="#3FAE2A" points="793,344.5 793,341.2 793,337.9 793,334.5 796.3,334.5 796.3,331.2 803,331.2 803,327.8 
		809.7,327.8 809.7,324.5 826.4,324.5 826.4,327.8 833.1,327.8 833.1,331.2 839.8,331.2 839.8,334.5 843.1,334.5 843.1,337.9 
		846.5,337.9 846.5,341.2 849.8,341.2 849.8,344.5 849.8,347.9 846.5,347.9 846.5,351.2 846.5,354.6 843.1,354.6 843.1,357.9 
		839.8,357.9 839.8,361.2 799.7,361.2 799.7,357.9 796.3,357.9 796.3,354.6 793,354.6 793,351.2 789.7,351.2 789.7,347.9 
		789.7,344.5 	"/>
	<polygon fill="#4E9D2D" points="722.8,337.9 722.8,334.5 722.8,331.2 722.8,327.8 726.2,327.8 726.2,324.5 732.8,324.5 
		732.8,321.1 739.5,321.1 739.5,317.8 756.2,317.8 756.2,321.1 762.9,321.1 762.9,324.5 769.6,324.5 769.6,327.8 772.9,327.8 
		772.9,331.2 776.3,331.2 776.3,334.5 779.6,334.5 779.6,337.9 779.6,341.2 776.3,341.2 776.3,344.5 776.3,347.9 772.9,347.9 
		772.9,351.2 769.6,351.2 769.6,354.6 729.5,354.6 729.5,351.2 726.2,351.2 726.2,347.9 722.8,347.9 722.8,344.5 719.5,344.5 
		719.5,341.2 719.5,337.9 	"/>
	<polygon fill="#6CC04A" points="632.6,354.6 632.6,351.2 639.3,351.2 639.3,347.9 646,347.9 646,344.5 666,344.5 666,347.9 
		672.7,347.9 672.7,351.2 679.4,351.2 679.4,354.6 682.7,354.6 682.7,357.9 682.7,361.2 679.4,361.2 679.4,364.6 676,364.6 
		676,367.9 669.4,367.9 669.4,371.3 642.6,371.3 642.6,367.9 635.9,367.9 635.9,364.6 629.3,364.6 629.3,361.2 629.3,357.9 
		629.3,354.6 	"/>
	<polygon fill="#65513C" points="555.7,354.6 555.7,357.9 552.4,357.9 552.4,354.6 535.7,354.6 535.7,378 552.4,378 552.4,361.2 
		559.1,361.2 559.1,357.9 559.1,354.6 	"/>
	<polygon fill="#3FAE2A" points="702.8,344.5 702.8,341.2 702.8,337.9 702.8,334.5 706.1,334.5 706.1,331.2 712.8,331.2 
		712.8,327.8 719.5,327.8 719.5,324.5 736.2,324.5 736.2,327.8 742.9,327.8 742.9,331.2 749.6,331.2 749.6,334.5 752.9,334.5 
		752.9,337.9 756.2,337.9 756.2,341.2 759.6,341.2 759.6,344.5 759.6,347.9 756.2,347.9 756.2,351.2 756.2,354.6 752.9,354.6 
		752.9,357.9 749.6,357.9 749.6,361.2 709.5,361.2 709.5,357.9 706.1,357.9 706.1,354.6 702.8,354.6 702.8,351.2 699.4,351.2 
		699.4,347.9 699.4,344.5 	"/>
	<polygon fill="#6CC04A" points="545.7,351.2 545.7,347.9 539,347.9 539,344.5 532.4,344.5 532.4,341.2 512.3,341.2 512.3,344.5 
		505.6,344.5 505.6,347.9 498.9,347.9 498.9,351.2 495.6,351.2 495.6,354.6 495.6,357.9 498.9,357.9 498.9,361.2 502.3,361.2 
		502.3,364.6 509,364.6 509,367.9 535.7,367.9 535.7,364.6 542.4,364.6 542.4,361.2 549.1,361.2 549.1,357.9 549.1,354.6 
		549.1,351.2 	"/>
	<polygon fill="#83603F" points="158.1,357.9 154.8,357.9 154.8,361.2 158.1,361.2 158.1,378 168.1,378 168.1,357.9 	"/>
	<polygon fill="#6CC04A" points="752.9,347.9 752.9,344.5 759.6,344.5 759.6,341.2 766.3,341.2 766.3,337.9 786.3,337.9 
		786.3,341.2 793,341.2 793,344.5 799.7,344.5 799.7,347.9 803,347.9 803,351.2 803,354.6 799.7,354.6 799.7,357.9 796.3,357.9 
		796.3,361.2 789.7,361.2 789.7,364.6 762.9,364.6 762.9,361.2 756.2,361.2 756.2,357.9 749.6,357.9 749.6,354.6 749.6,351.2 
		749.6,347.9 	"/>
	<g>
		<polygon fill="#83603F" points="198.2,361.2 198.2,364.6 191.5,364.6 191.5,378 201.6,378 201.6,364.6 204.9,364.6 204.9,361.2 		
			"/>
		<rect x="188.2" y="361.2" fill="#83603F" width="3.3" height="3.3"/>
	</g>
	<polygon fill="#83603F" points="104.6,364.6 94.6,364.6 94.6,381.3 104.6,381.3 104.6,367.9 108,367.9 108,364.6 	"/>
	<rect x="425.4" y="367.9" fill="#83603F" width="10" height="10"/>
	<polygon fill="#65513C" points="468.9,361.2 458.8,361.2 458.8,378 468.9,378 468.9,364.6 472.2,364.6 472.2,361.2 	"/>
	<polygon fill="#83603F" points="519,367.9 515.7,367.9 515.7,371.3 519,371.3 519,382.8 528.5,382.8 528.5,367.9 	"/>
	<polygon fill="#83603F" points="582.5,364.6 575.8,364.6 575.8,367.9 579.1,367.9 579.1,371.3 582.5,371.3 582.5,384.6 
		595.8,384.6 595.8,364.6 	"/>
	<polygon fill="#83603F" points="652.7,371.3 649.3,371.3 649.3,374.6 652.7,374.6 652.7,388 662.7,388 662.7,371.3 	"/>
	<rect x="682.7" y="364.6" fill="#83603F" width="10" height="13.4"/>
	<polygon fill="#65513C" points="736.2,361.2 719.5,361.2 712.8,361.2 712.8,364.6 719.5,364.6 719.5,367.9 722.8,367.9 
		722.8,374.6 719.5,374.6 719.5,378 736.2,378 736.2,364.6 739.5,364.6 739.5,361.2 	"/>
	<g>
		<rect x="783" y="364.6" fill="#83603F" width="3.3" height="3.3"/>
		<polygon fill="#83603F" points="779.6,367.9 779.6,364.6 772.9,364.6 769.6,364.6 769.6,367.9 772.9,367.9 772.9,381.3 
			779.6,381.3 779.6,371.3 783,371.3 783,367.9 		"/>
	</g>
	<g>
		<polygon fill="#83603F" points="813,361.2 813,364.6 809.7,364.6 809.7,367.9 813,367.9 813,378 823.1,378 823.1,361.2 		"/>
		<rect x="806.4" y="361.2" fill="#83603F" width="3.3" height="3.3"/>
	</g>
</g>
<g id="Background">
	
		<linearGradient id="SVGID_1_" gradientUnits="userSpaceOnUse" x1="-340" y1="200" x2="740" y2="200" gradientTransform="matrix(4.489700e-11 1 -1 4.489700e-11 400 0)">
		<stop  offset="0" style="stop-color:#0082CB"/>
		<stop  offset="1" style="stop-color:#9BE7D8"/>
	</linearGradient>
	<rect x="-1001.5" y="-340" display="none" fill="url(#SVGID_1_)" width="2403" height="1080"/>
</g>
</svg>
