<?xml version="1.0" encoding="utf-8"?>
<!-- Generator: Adobe Illustrator 18.1.1, SVG Export Plug-In . SVG Version: 6.00 Build 0)  -->
<!DOCTYPE svg PUBLIC "-//W3C//DTD SVG 1.1//EN" "http://www.w3.org/Graphics/SVG/1.1/DTD/svg11.dtd">
<svg version="1.1" id="Layer_1" xmlns="http://www.w3.org/2000/svg" xmlns:xlink="http://www.w3.org/1999/xlink" x="0px" y="0px"
	 viewBox="0 0 600 400" enable-background="new 0 0 600 400" xml:space="preserve">
<rect fill="#1A1A1A" width="600" height="400"/>
<path d="M-1108.3-236c0,0.1-0.1,0.2-0.1,0.2c-0.1,0-0.1,0-0.2,0c0.1-0.1,0.1-0.2,0.2-0.3C-1108.4-236.1-1108.4-236.1-1108.3-236z"/>
<polygon fill="#F2F2F2" points="391.5,263.6 341.8,289.7 341.8,201.7 391.5,176.7 "/>
<polygon fill="#F2F2F2" points="208.2,263.6 257.8,289.7 257.8,201.7 208.2,176.7 "/>
<polygon fill="#F2F2F2" points="299.4,156.6 208,110.3 208,166.8 299.4,215.1 391,166.8 391,110.3 "/>
<rect opacity="0.5" fill="#E6E6E6" width="600" height="400"/>
</svg>
